<?xml version="1.0" encoding="iso-8859-1"?>
<!-- Generator: Adobe Illustrator 18.1.1, SVG Export Plug-In . SVG Version: 6.00 Build 0)  -->
<svg version="1.1" id="Capa_1" xmlns="http://www.w3.org/2000/svg" xmlns:xlink="http://www.w3.org/1999/xlink" x="0px" y="0px"
	 viewBox="0 0 48.781 48.781" style="enable-background:new 0 0 48.781 48.781;" xml:space="preserve">
<g>
	<g>
		<g>
			<path style="fill:#010002;" d="M25.334,10.02h-1.476c-0.027,0.413-0.125,0.742-0.292,0.987c-0.168,0.244-0.4,0.446-0.689,0.604
				c-0.238,0.128-0.583,0.223-1.039,0.291c-0.457,0.066-0.89,0.101-1.288,0.101v1.295h2.953v9.511H20.55v1.448h7.682v-1.448h-2.897
				V10.02H25.334z"/>
			<path style="fill:#010002;" d="M35.161,30.578c0.52-0.278,1.011-0.637,1.449-1.076c1.778-1.777,2.244-4.367,1.41-6.575
				c2.151-0.971,3.651-3.131,3.651-5.646c0-2.514-1.5-4.673-3.651-5.646c0.834-2.208,0.368-4.795-1.41-6.574
				c-1.777-1.778-4.367-2.244-6.574-1.409C29.065,1.5,26.905,0,24.39,0c-2.514,0-4.674,1.5-5.646,3.652
				c-2.208-0.834-4.796-0.368-6.574,1.41c-1.779,1.779-2.245,4.367-1.41,6.574c-2.151,0.972-3.652,3.132-3.652,5.646
				c0,2.515,1.5,4.675,3.652,5.646c-0.834,2.208-0.368,4.799,1.41,6.575c0.439,0.438,0.929,0.798,1.45,1.077L6.333,44.148
				l6.383-1.363l2.25,5.996l7.762-14.455c0.53,0.147,1.085,0.236,1.663,0.236s1.132-0.089,1.662-0.236l7.763,14.455l2.25-5.996
				l6.383,1.363L35.161,30.578z M24.4,30.021c-7.076,0-12.813-5.737-12.813-12.813S17.323,4.396,24.4,4.396
				c7.075,0,12.813,5.736,12.813,12.812C37.213,24.285,31.476,30.021,24.4,30.021z"/>
		</g>
	</g>
</g>
<g>
</g>
<g>
</g>
<g>
</g>
<g>
</g>
<g>
</g>
<g>
</g>
<g>
</g>
<g>
</g>
<g>
</g>
<g>
</g>
<g>
</g>
<g>
</g>
<g>
</g>
<g>
</g>
<g>
</g>
</svg>
