<?xml version="1.0" encoding="iso-8859-1"?>
<!-- Generator: Adobe Illustrator 18.0.0, SVG Export Plug-In . SVG Version: 6.00 Build 0)  -->
<!DOCTYPE svg PUBLIC "-//W3C//DTD SVG 1.1//EN" "http://www.w3.org/Graphics/SVG/1.1/DTD/svg11.dtd">
<svg version="1.1" id="Capa_1" xmlns="http://www.w3.org/2000/svg" xmlns:xlink="http://www.w3.org/1999/xlink" x="0px" y="0px"
	 viewBox="0 0 358.441 358.441" style="enable-background:new 0 0 358.441 358.441;" xml:space="preserve">
<path d="M285.736,27.992V5.238H72.703v22.754H0v17.755c0,58.45,22.765,94.45,41.86,114.348
	c16.749,17.446,33.442,25.857,40.515,28.896c13.563,28.303,40.162,49.166,72.025,54.81v65.022h-45.248v44.382h140.137v-44.382
	h-45.254V243.8c31.866-5.644,58.47-26.508,72.03-54.81c7.068-3.038,23.768-11.449,40.512-28.896
	c19.099-19.897,41.864-55.897,41.864-114.348V27.992H285.736z M72.703,140.638c-15.118-13.728-32.288-37.657-36.327-77.139h36.327
	V140.638z M211.525,149.482l-32.304-16.983l-32.303,16.983l6.163-35.972l-26.129-25.475l36.116-5.243l16.152-32.726l16.146,32.726
	l36.119,5.243l-26.133,25.475L211.525,149.482z M285.736,140.696V63.499h36.33C318.045,103.063,300.886,126.982,285.736,140.696z"/>
<g>
</g>
<g>
</g>
<g>
</g>
<g>
</g>
<g>
</g>
<g>
</g>
<g>
</g>
<g>
</g>
<g>
</g>
<g>
</g>
<g>
</g>
<g>
</g>
<g>
</g>
<g>
</g>
<g>
</g>
</svg>
