<?xml version="1.0" encoding="utf-8"?>
<!-- Generator: Adobe Illustrator 16.0.0, SVG Export Plug-In . SVG Version: 6.00 Build 0)  -->
<!DOCTYPE svg PUBLIC "-//W3C//DTD SVG 1.1//EN" "http://www.w3.org/Graphics/SVG/1.1/DTD/svg11.dtd">
<svg version="1.1" id="Layer_1" xmlns="http://www.w3.org/2000/svg" xmlns:xlink="http://www.w3.org/1999/xlink" x="0px" y="0px"
	 width="1792px" height="1792px" viewBox="0 0 1792 1792" enable-background="new 0 0 1792 1792" xml:space="preserve">
<g>
	<path fill="#FFEC00" d="M832,1629.5c-25.375,0-46.835-9.124-65.604-27.895c-18.771-18.771-27.896-40.23-27.896-65.605v-366.644
		l-317.578,182.667c-15.023,8.472-30.026,12.591-45.862,12.591c-8.302,0-16.986-1.173-25.812-3.486
		c-25.161-6.596-43.548-20.695-56.213-43.104l-64.092-110.163c-12.784-22.702-15.75-46.129-9.07-71.613
		c6.595-25.16,20.695-43.548,43.104-56.214L580.858,896L262.976,711.965c-22.409-12.666-36.508-31.053-43.103-56.213
		c-6.679-25.48-3.714-48.905,9.065-71.605l64.097-110.171c12.666-22.409,31.053-36.508,56.213-43.104
		c8.825-2.313,17.509-3.486,25.812-3.486c15.838,0,30.843,4.12,45.87,12.595L738.5,622.644V256c0-25.375,9.125-46.834,27.896-65.604
		C785.166,171.624,806.626,162.5,832,162.5h128c25.374,0,46.834,9.125,65.605,27.896c18.77,18.771,27.895,40.23,27.895,65.604
		v366.644l317.567-182.661c15.027-8.477,30.033-12.597,45.873-12.597c8.302,0,16.986,1.173,25.812,3.486
		c25.159,6.595,43.547,20.695,56.214,43.104l64.094,110.166c12.781,22.703,15.747,46.129,9.068,71.61
		c-6.596,25.16-20.695,43.548-43.104,56.213L1211.143,896l317.881,184.034c22.409,12.667,36.509,31.055,43.104,56.214
		c6.68,25.483,3.714,48.908-9.069,71.611l-64.093,110.164c-12.666,22.409-31.054,36.509-56.214,43.104
		c-8.825,2.313-17.511,3.486-25.813,3.486c-15.84,0-30.847-4.121-45.874-12.599L1053.5,1169.356V1536
		c0,25.375-9.125,46.834-27.896,65.604S985.375,1629.5,960,1629.5H832z"/>
	<path fill="#F29800" d="M960,197c16.415,0,28.739,5.321,41.209,17.789C1013.68,227.26,1019,239.585,1019,256v307v119.288
		l103.402-59.477l265.744-152.853c9.803-5.507,18.959-8.073,28.794-8.073c5.351,0,11.093,0.793,17.063,2.359
		c16.318,4.277,26.764,12.265,34.928,26.708l0.212,0.375l0.217,0.372l63.754,109.578c8.298,14.841,10.036,28.959,5.641,45.726
		c-4.277,16.319-12.265,26.764-26.707,34.927l-0.311,0.176l-0.309,0.179l-266,154L1142.285,896l103.144,59.714l266,154l0.308,0.179
		l0.311,0.176c14.443,8.164,22.431,18.609,26.708,34.928c4.396,16.771,2.656,30.893-5.646,45.736l-63.748,109.568l-0.217,0.372
		l-0.212,0.375c-8.163,14.442-18.609,22.43-34.928,26.707c-5.971,1.565-11.713,2.359-17.065,2.359
		c-9.828,0-18.977-2.562-28.771-8.062l-265.765-152.864L1019,1109.712V1229v307c0,16.415-5.32,28.739-17.79,41.21
		C988.74,1589.679,976.415,1595,960,1595H832c-16.416,0-28.74-5.32-41.211-17.791C778.32,1564.74,773,1552.416,773,1536v-307
		v-119.288l-103.403,59.477l-265.741,152.851c-9.804,5.508-18.96,8.075-28.796,8.075c-5.352,0-11.093-0.794-17.064-2.359
		c-16.319-4.277-26.765-12.265-34.927-26.706l-0.212-0.375l-0.217-0.373l-63.747-109.565c-8.304-14.843-10.045-28.967-5.648-45.739
		c4.277-16.318,12.265-26.765,26.708-34.928l0.31-0.175l0.309-0.18l266-154L649.715,896l-103.144-59.714l-266-154l-0.309-0.179
		l-0.312-0.176c-14.441-8.162-22.428-18.607-26.706-34.927c-4.397-16.772-2.657-30.894,5.647-45.738l63.748-109.566l0.217-0.373
		l0.212-0.375c8.163-14.442,18.608-22.429,34.928-26.707c5.971-1.565,11.711-2.358,17.062-2.358c9.829,0,18.979,2.562,28.776,8.062
		l265.762,152.863L773,682.288V563V256c0-16.416,5.32-28.74,17.791-41.209C803.26,202.32,815.585,197,832,197H960 M960,128H832
		c-34.667,0-64.667,12.667-90,38c-25.334,25.334-38,55.334-38,90v307L438,410c-20.187-11.41-41.166-17.114-62.941-17.114
		c-11.305,0-22.826,1.538-34.559,4.614c-34.334,9-60.167,28.834-77.5,59.5l-64,110c-17.334,30.667-21.5,63.167-12.5,97.5
		c9,34.334,28.833,60.167,59.5,77.5l266,154l-266,154c-30.667,17.334-50.5,43.167-59.5,77.5c-9,34.334-4.834,66.834,12.5,97.5
		l64,110c17.333,30.667,43.166,50.5,77.5,59.5c11.735,3.076,23.254,4.614,34.561,4.614c21.773,0,42.754-5.705,62.939-17.114l266-153
		v307c0,34.667,12.666,64.667,38,90c25.333,25.334,55.333,38,90,38h128c34.666,0,64.666-12.666,90-38c25.333-25.333,38-55.333,38-90
		v-307l266,153c20.187,11.41,41.163,17.114,62.938,17.114c11.305,0,22.828-1.539,34.562-4.614c34.333-9,60.166-28.833,77.5-59.5
		l64-110c17.333-30.666,21.5-63.166,12.5-97.5c-9-34.333-28.834-60.166-59.5-77.5l-266-154l266-154
		c30.666-17.333,50.5-43.166,59.5-77.5c9-34.333,4.833-66.833-12.5-97.5l-64-110c-17.334-30.666-43.167-50.5-77.5-59.5
		c-11.735-3.076-23.253-4.614-34.56-4.614c-21.773,0-42.756,5.705-62.94,17.114l-266,153V256c0-34.666-12.667-64.666-38-90
		C1024.666,140.667,994.666,128,960,128L960,128z"/>
</g>
</svg>
