<?xml version="1.0" encoding="utf-8"?>
<!-- Generator: Adobe Illustrator 16.0.0, SVG Export Plug-In . SVG Version: 6.00 Build 0)  -->
<!DOCTYPE svg PUBLIC "-//W3C//DTD SVG 1.1//EN" "http://www.w3.org/Graphics/SVG/1.1/DTD/svg11.dtd">
<svg version="1.1" id="Layer_1" xmlns="http://www.w3.org/2000/svg" xmlns:xlink="http://www.w3.org/1999/xlink" x="0px" y="0px"
	 width="1792px" height="1792px" viewBox="0 0 1792 1792" enable-background="new 0 0 1792 1792" xml:space="preserve">
<g>
	<path fill="#A31F00" d="M896,1639c-100.113,0-197.233-19.845-288.662-58.981c-91.598-39.21-171.375-92.588-237.118-158.652
		c-65.766-66.085-119-146.219-158.226-238.174C172.849,1091.424,153,993.788,153,893c0-100.776,19.845-198.232,58.982-289.661
		c39.226-91.636,92.464-171.61,158.238-237.704c65.743-66.064,145.521-119.442,237.118-158.652C698.769,167.844,795.889,148,896,148
		c100.11,0,197.23,19.846,288.661,58.983c91.596,39.209,171.372,92.587,237.117,158.652
		c65.772,66.094,119.013,146.068,158.238,237.704C1619.156,694.769,1639,792.225,1639,893c0,100.786-19.85,198.421-58.995,290.191
		c-39.228,91.955-92.462,172.089-158.227,238.174c-65.745,66.065-145.521,119.443-237.116,158.652
		C1093.234,1619.155,996.114,1639,896,1639z M559.479,1355.137l25.902,16.827C680.407,1433.698,784.914,1465,896,1465
		c77.09,0,151.59-15.326,221.431-45.557c69.591-30.122,130.569-71.09,181.247-121.766c50.724-50.725,91.549-112.102,121.342-182.426
		C1449.865,1044.8,1465,970.022,1465,893c0-111.743-30.629-215.576-91.032-308.613l-16.802-25.879L559.479,1355.137z M896,322
		c-102.694,0-198.786,25.709-285.607,76.412c-86.733,50.652-156.387,120.653-207.023,208.057C352.694,693.932,327,790.336,327,893
		c0,112.412,31.302,217.594,93.036,312.619l16.804,25.867l798.307-797.249l-25.173-16.968C1116.191,354.053,1010.554,322,896,322z"
		/>
	<path fill="#191919" d="M896,173c48.4,0,96.384,4.79,142.613,14.238c46.208,9.443,92.036,23.819,136.209,42.728
		c44.442,19.024,86.283,41.596,124.363,67.085c37.904,25.374,73.188,54.382,104.872,86.219
		c31.713,31.868,60.631,67.303,85.951,105.322c25.435,38.189,47.983,80.106,67.023,124.585
		c18.905,44.164,33.278,90.063,42.723,136.428C1609.207,796.01,1614,844.257,1614,893c0,48.75-4.795,97.043-14.248,143.537
		c-9.446,46.461-23.828,92.504-42.742,136.846c-19.042,44.638-41.594,86.675-67.026,124.941
		c-25.312,38.086-54.223,73.551-85.925,105.406c-31.684,31.839-66.968,60.847-104.872,86.22
		c-38.08,25.49-79.921,48.062-124.363,67.084c-44.173,18.909-90,33.285-136.209,42.729C992.384,1609.211,944.403,1614,896,1614
		s-96.385-4.789-142.614-14.236c-46.208-9.443-92.036-23.819-136.209-42.729c-44.442-19.022-86.284-41.594-124.363-67.084
		c-37.905-25.373-73.188-54.382-104.872-86.22c-31.702-31.855-60.61-67.32-85.925-105.406
		c-25.434-38.268-47.984-80.305-67.026-124.941c-18.914-44.343-33.296-90.384-42.742-136.846C182.794,990.044,178,941.75,178,893
		c0-48.743,4.792-96.989,14.244-143.396c9.442-46.364,23.815-92.265,42.722-136.428c19.04-44.479,41.589-86.396,67.023-124.585
		c25.319-38.02,54.238-73.454,85.951-105.321c31.684-31.838,66.967-60.846,104.872-86.219c38.08-25.49,79.921-48.062,124.363-67.086
		c44.174-18.908,90.001-33.284,136.209-42.728C799.616,177.79,847.599,173,896,173 M432.68,1270.972l43.651-43.594l755.001-754
		l42.959-42.903l-50.345-33.937c-48.928-32.98-101.392-58.092-155.934-74.636C1013.537,305.38,955.663,297,896,297
		c-53.463,0-105.668,6.712-155.168,19.947c-49.596,13.262-97.725,33.407-143.048,59.876
		c-45.208,26.402-86.333,58.082-122.229,94.161c-35.878,36.061-67.444,77.427-93.819,122.951
		c-26.434,45.626-46.554,93.971-59.801,143.693C308.707,787.279,302,839.553,302,893c0,58.581,8.185,115.782,24.328,170.016
		c16.131,54.191,40.604,106.754,72.742,156.225L432.68,1270.972 M896,1490c80.525,0,158.366-16.02,231.36-47.612
		c72.494-31.379,136.08-74.118,188.994-127.031c53.008-53.008,95.63-117.051,126.684-190.353
		C1474.199,1051.448,1490,973.39,1490,893c0-58.205-8.006-114.86-23.793-168.393c-15.798-53.568-39.776-105.326-71.271-153.834
		l-33.604-51.758l-43.664,43.605l-754,753l-43.712,43.653l51.805,33.654c49.443,32.122,101.808,56.587,155.636,72.717
		C781.324,1481.806,838.052,1490,896,1490 M896,123c-104,0-203.5,20.334-298.5,61c-95,40.667-176.667,95.334-245,164
		C284.166,416.668,229.666,498.5,189,593.5c-40.667,95-61,194.834-61,299.5c0,104.668,20.333,204.668,61,300
		c40.666,95.334,95.166,177.334,163.5,246c68.333,68.668,150,123.334,245,164c95,40.668,194.5,61,298.5,61s203.5-20.332,298.5-61
		c95-40.666,176.666-95.332,245-164c68.332-68.666,122.832-150.666,163.5-246c40.666-95.332,61-195.332,61-300
		c0-104.666-20.334-204.5-61-299.5c-40.668-95-95.168-176.832-163.5-245.5c-68.334-68.666-150-123.333-245-164
		C1099.5,143.334,1000,123,896,123L896,123z M441,1192c-59.334-91.332-89-191-89-299c0-98.666,24.333-190,73-274
		c48.666-84,114.666-150.332,198-199c83.332-48.666,174.332-73,273-73c110,0,210,30.334,300,91L441,1192L441,1192z M896,1440
		c-106.668,0-205.668-29.666-297-89l754-753c58,89.334,87,187.668,87,295c0,74-14.334,144.834-43,212.5
		c-28.668,67.668-67.334,125.834-116,174.5c-48.668,48.668-106.5,87.5-173.5,116.5S970,1440,896,1440L896,1440z"/>
</g>
</svg>
