<?xml version="1.0" encoding="iso-8859-1"?>
<!-- Generator: Adobe Illustrator 18.1.1, SVG Export Plug-In . SVG Version: 6.00 Build 0)  -->
<svg version="1.1" id="Capa_1" xmlns="http://www.w3.org/2000/svg" xmlns:xlink="http://www.w3.org/1999/xlink" x="0px" y="0px"
	 viewBox="0 0 526.179 526.179" style="enable-background:new 0 0 526.179 526.179;" xml:space="preserve">
<g>
	<g>
		<path style="fill:#010002;" d="M490.179,508.605c-0.396-4.383-0.396-7.567,0-9.562V369.95V240.856
			c0.398-5.577-0.199-8.965-1.793-10.159c-1.594-1.195-4.781-1.793-9.562-1.793h-3.586h-15.539h-17.332v-21.218v-23.309
			c0,0-0.302-7.172-0.896-21.516c-0.597-14.344-1.494-22.113-2.688-23.309c-1.195-1.196-2.892-8.068-5.08-20.619
			c-2.191-12.551-5.08-19.523-8.666-20.918c-13.945-29.484-35.361-53.191-64.248-71.121C331.9,8.964,300.922,0,267.851,0
			c-3.188,0-6.375,0.199-9.562,0.598c-40.641-0.797-77.496,12.65-110.566,40.342S94.93,102.399,88.555,142.243
			c-1.195,8.367-1.893,17.432-2.092,27.193c-0.199,9.761-0.199,20.619,0,32.572s0.299,20.918,0.299,26.896H72.12H55.683H41.937
			c-2.789,0-4.582,0.696-5.379,2.092c-0.797,1.395-0.996,3.686-0.598,6.873v17.332v264.761c0.797,3.188,2.689,5.08,5.678,5.678
			c2.989,0.601,6.773,0.697,11.355,0.299c4.582-0.396,7.869-0.396,9.861,0h421.348c3.188-1.192,5.08-3.286,5.678-6.272
			C490.478,516.676,490.577,512.99,490.179,508.605z M303.114,377.418c-5.183,7.769-11.757,13.447-19.726,17.033
			c0,1.594,0.199,3.188,0.601,4.778l11.95,58.57H227.21l11.953-55.582c0.797-3.188,1.195-6.176,1.195-8.965
			c-7.57-3.984-13.646-9.662-18.229-17.033s-6.873-15.438-6.873-24.205c0-8.766,2.391-16.934,7.172-24.504
			c2.789-5.578,6.773-10.16,11.953-13.746c8.367-6.771,17.93-10.16,28.688-10.16h2.99v0.005c11.953,0,21.715,4.778,29.285,14.344
			c10.359,9.164,15.539,20.52,15.539,34.063C310.883,361.182,308.293,369.65,303.114,377.418z M143.539,227.11
			c0-5.578-0.1-14.644-0.299-27.193c-0.199-12.55-0.199-22.412,0-29.584s1.494-15.738,3.885-25.699
			c2.391-9.961,5.777-18.926,10.16-26.895c9.562-18.328,23.607-32.971,42.135-43.928s38.15-16.236,58.869-15.838
			c2.789-0.399,5.776-0.598,8.965-0.598c21.914,0,42.533,5.578,61.857,16.734c19.321,11.156,33.768,26.496,43.327,46.02
			c3.984,7.969,6.976,16.834,8.968,26.596c1.989,9.762,3.088,18.229,3.284,25.4c0.199,7.171,0.199,16.635,0,28.389
			c-0.196,11.754-0.1,20.619,0.302,26.597L143.539,227.11L143.539,227.11z"/>
	</g>
</g>
<g>
</g>
<g>
</g>
<g>
</g>
<g>
</g>
<g>
</g>
<g>
</g>
<g>
</g>
<g>
</g>
<g>
</g>
<g>
</g>
<g>
</g>
<g>
</g>
<g>
</g>
<g>
</g>
<g>
</g>
</svg>
