<?xml version="1.0" encoding="utf-8"?>
<!-- Generator: Adobe Illustrator 16.0.0, SVG Export Plug-In . SVG Version: 6.00 Build 0)  -->
<!DOCTYPE svg PUBLIC "-//W3C//DTD SVG 1.1//EN" "http://www.w3.org/Graphics/SVG/1.1/DTD/svg11.dtd">
<svg version="1.1" id="Layer_1" xmlns="http://www.w3.org/2000/svg" xmlns:xlink="http://www.w3.org/1999/xlink" x="0px" y="0px"
	 width="1792px" height="1792px" viewBox="0 0 1792 1792" enable-background="new 0 0 1792 1792" xml:space="preserve">
<g>
	<path fill="#FFE000" d="M758.158,1767c-0.397-0.026-2.529-0.205-8.033-1.273c-6.157-2.027-8.712-5.159-10.254-7.699
		c-2.193-3.612-2.661-6.788-1.617-10.963L945.08,898.76l-445.975,110.945c-0.337,0.055-2.042,0.295-6.105,0.295
		c-6.116,0-10.696-1.568-14.85-5.083l-0.145-0.122c-4.131-3.442-6.099-6.77-4.604-14.336l200.75-823.974
		c1.191-3.898,3.316-6.836,6.849-9.485c3.639-2.729,7.77-4,13-4h328c6.176,0,10.701,1.703,14.673,5.522
		c4.682,4.501,5.327,8.177,5.327,11.478c0,0.086-0.026,2.152-2.36,6.82l-0.615,1.229L851.2,686.603l441.806-109.335
		c4.017-1.004,5.799-1.225,6.229-1.267c3.908,0.034,9.159,0.958,15.618,7.214c4.895,5.623,5.476,9.673,2.447,16.312
		L777.602,1755.879C773.34,1763.83,767.84,1766.966,758.158,1767z"/>
	<path fill="#F29800" d="M1012.392,178L844.097,633.677l-32.697,88.53l91.611-22.672l384.425-95.135L774.77,1702.836
		l184.808-757.992l19.584-80.324l-80.232,19.959l-398.104,99.036L697.077,178H1012.392 M1022,128H694c-10.667,0-20,3-28,9
		s-13.334,13.667-16,23L449,985c-3.334,16,1,29,13,39c8.666,7.334,19,11,31,11c5.333,0,9.333-0.333,12-1l406-101l-197,808
		c-2.667,10.667-1.167,20.667,4.5,30c5.666,9.334,14.166,15.667,25.5,19c6.666,1.334,11.333,2,14,2c19.333,0,33.333-8.333,42-25
		l540-1157c7.333-16,5-30.666-7-44c-10-10-21.334-15-34-15c-2.667,0-6.667,0.667-12,2l-396,98l171-463c3.333-6.666,5-12.666,5-18
		c0-11.333-4.334-21.166-13-29.5C1045.333,132.167,1034.666,128,1022,128L1022,128z"/>
</g>
</svg>
