<?xml version="1.0" encoding="utf-8"?>
<!-- Generator: Adobe Illustrator 16.0.0, SVG Export Plug-In . SVG Version: 6.00 Build 0)  -->
<!DOCTYPE svg PUBLIC "-//W3C//DTD SVG 1.1//EN" "http://www.w3.org/Graphics/SVG/1.1/DTD/svg11.dtd">
<svg version="1.1" id="Layer_1" xmlns="http://www.w3.org/2000/svg" xmlns:xlink="http://www.w3.org/1999/xlink" x="0px" y="0px"
	 width="1792px" height="1792px" viewBox="0 0 1792 1792" enable-background="new 0 0 1792 1792" xml:space="preserve">
<g>
	<path fill="#561818" d="M547.881,1631.733c-17.987,0.001-36.386-1.456-54.686-4.328c-46.353-7.276-82.665-21.254-108.102-41.589
		c-5.434-16.959-14.316-43.097-26.962-79.351c-14.826-42.501-25.49-73.985-31.694-93.579c-6.028-19.034-13.524-48.089-22.281-86.358
		c-8.487-37.094-13.257-68.963-14.177-94.724c-0.946-26.496,0.195-58.24,3.391-94.351c3.105-35.085,10.03-69.872,20.584-103.394
		l13.714-43.561H160c-35.075,0-64.289-12.164-89.312-37.188C45.664,928.289,33.5,899.074,33.5,864V672
		c0-35.074,12.165-64.288,37.188-89.312C95.712,557.664,124.926,545.5,160,545.5h480c74.55,0,150.669-8.332,226.243-24.765
		c75.318-16.377,152.181-41.255,228.454-73.944c148.32-63.566,300.55-159.313,452.621-284.663
		c20.803,2.368,38.882,11.447,54.995,27.56c18.967,18.968,28.188,40.659,28.188,66.312v417.5h33.5
		c26.326,0,48.181,9.057,66.812,27.688c18.632,18.631,27.688,40.486,27.688,66.812s-9.057,48.181-27.688,66.812
		c-18.631,18.631-40.485,27.688-66.812,27.688h-33.5V1280c0,25.653-9.221,47.345-28.188,66.312
		c-16.114,16.115-34.196,25.194-55.003,27.562c-137.194-112.978-274.607-202.005-408.609-264.715
		c-138.306-64.725-276.893-103.262-411.91-114.542l-6.766-0.565l-6.452,2.114c-45.51,14.908-81.843,41.349-107.988,78.585
		c-26.199,37.314-38.667,78.025-37.06,121.002c1.333,35.65,12.489,67.706,33.227,95.603c-8.918,19.258-14.321,38.709-16.108,58.066
		c-2.438,26.415,0.175,50.716,7.768,72.229c7.398,20.962,20.26,42.308,39.32,65.255c17.399,20.95,34.811,39.065,51.75,53.841
		c10.663,9.303,23.6,20.109,38.635,32.276c-16.961,19.095-42.175,33.568-76.329,43.918
		C614.393,1626.756,581.117,1631.733,547.881,1631.733z M1515.62,263.412c-128.646,98.607-257.265,176.916-382.281,232.75
		c-124.222,55.479-248.368,90.313-368.989,103.537l-29.85,3.272v330.003l29.791,3.319
		c121.662,13.554,246.354,48.401,370.614,103.574c125.004,55.503,253.105,133.136,380.745,230.743l53.85,41.179V222.113
		L1515.62,263.412z"/>
	<path fill="#AA2E2E" d="M701,577.221V633v270v59.95l4.739,0.528l-2.597,0.851c-52.535,17.21-94.583,47.885-124.976,91.171
		c-30.499,43.438-45.006,91.047-43.119,141.502c0.975,26.083,6.512,50.969,16.456,73.966c3.582,8.282,7.744,16.338,12.466,24.137
		c-6.19,16.952-10.102,34.079-11.685,51.237c-2.886,31.264,0.322,60.352,9.536,86.457c8.739,24.761,23.504,49.46,45.137,75.507
		c18.541,22.325,37.214,41.733,55.498,57.683c2.234,1.948,4.562,3.96,6.985,6.032c-9.377,4.869-20.203,9.172-32.371,12.858
		c-29.243,8.862-59.25,13.354-89.188,13.354c-16.257,0-32.908-1.319-49.492-3.923c-35.888-5.634-64.312-15.397-84.771-29.09
		c-5.568-16.897-13.463-39.988-23.858-69.789c-14.721-42.198-25.281-73.373-31.388-92.66c-5.754-18.168-13.008-46.334-21.562-83.716
		c-8.017-35.036-12.51-64.794-13.354-88.447c-0.897-25.115,0.207-55.464,3.282-90.202c2.891-32.675,9.34-65.069,19.168-96.286
		L373.336,957H282H160c-26.095,0-46.947-8.699-65.625-27.377C75.699,910.947,67,890.094,67,864V672
		c0-26.094,8.699-46.946,27.376-65.624C113.054,587.698,133.906,579,160,579h480C660.24,579,680.582,578.406,701,577.221 M1664,707
		c17.461,0,30.761,5.513,43.124,17.876C1719.488,737.239,1725,750.539,1725,768s-5.513,30.761-17.876,43.124
		C1694.761,823.487,1681.461,829,1664,829h-61V707H1664 M1536,128c-307.334,256-606,384-896,384H160c-44,0-81.667,15.667-113,47
		C15.666,590.334,0,628,0,672v192c0,44,15.666,81.667,47,113c31.333,31.334,69,47,113,47h122c-11.334,36-18.667,72.834-22,110.5
		c-3.334,37.667-4.5,70.5-3.5,98.5s6,61.667,15,101c9,39.334,16.666,69,23,89c6.333,20,17,51.5,32,94.5s24.833,72.167,29.5,87.5
		c30.666,28,74.666,46.5,132,55.5c20.107,3.156,40.062,4.733,59.882,4.733c36.695,0,72.907-5.412,108.618-16.233
		c55-16.666,92.166-44.333,111.5-83c-25.334-20-45.834-36.833-61.5-50.5c-15.667-13.666-31.667-30.333-48-50
		c-16.334-19.666-27.5-38-33.5-55s-8-36.333-6-58c2-21.666,9.666-43.5,23-65.5c-25.334-26-38.667-56.833-40-92.5
		c-1.334-35.666,9-69.166,31-100.5c22-31.333,52.333-53.333,91-66c263.333,22,534,148.667,812,380c34.666,0,64.666-12.666,90-38
		c25.333-25.333,38-55.333,38-90V896c35.333,0,65.5-12.5,90.5-37.5s37.5-55.166,37.5-90.5c0-35.333-12.5-65.5-37.5-90.5
		S1699.333,640,1664,640V256c0-34.666-12.667-64.666-38-90C1600.666,140.667,1570.666,128,1536,128L1536,128z M1536,1244
		c-260.667-199.333-516.667-313-768-341V633c249.333-27.333,505.333-141.666,768-343V1244L1536,1244z"/>
</g>
</svg>
