<?xml version="1.0" encoding="utf-8"?>
<!-- Generator: Adobe Illustrator 16.0.0, SVG Export Plug-In . SVG Version: 6.00 Build 0)  -->
<!DOCTYPE svg PUBLIC "-//W3C//DTD SVG 1.1//EN" "http://www.w3.org/Graphics/SVG/1.1/DTD/svg11.dtd">
<svg version="1.1" id="Layer_1" xmlns="http://www.w3.org/2000/svg" xmlns:xlink="http://www.w3.org/1999/xlink" x="0px" y="0px"
	 width="1792px" height="1792px" viewBox="0 0 1792 1792" enable-background="new 0 0 1792 1792" xml:space="preserve">
<path fill="#232323" d="M192,1664h1408V640H192V1664z M576,448V160c0-9.333-3-17-9-23s-13.667-9-23-9h-64c-9.334,0-17,3-23,9
	s-9,13.667-9,23v288c0,9.334,3,17,9,23s13.666,9,23,9h64c9.333,0,17-3,23-9S576,457.334,576,448z M1344,448V160c0-9.333-3-17-9-23
	s-13.667-9-23-9h-64c-9.334,0-17,3-23,9s-9,13.667-9,23v288c0,9.334,3,17,9,23s13.666,9,23,9h64c9.333,0,17-3,23-9
	S1344,457.334,1344,448z M1728,384v1280c0,34.667-12.667,64.667-38,90c-25.334,25.334-55.334,38-90,38H192
	c-34.667,0-64.667-12.666-90-38c-25.334-25.333-38-55.333-38-90V384c0-34.666,12.666-64.666,38-90c25.333-25.333,55.333-38,90-38
	h128v-96c0-44,15.666-81.666,47-113c31.333-31.333,69-47,113-47h64c44,0,81.666,15.667,113,47c31.333,31.334,47,69,47,113v96h384
	v-96c0-44,15.666-81.666,47-113c31.333-31.333,69-47,113-47h64c44,0,81.666,15.667,113,47c31.333,31.334,47,69,47,113v96h128
	c34.666,0,64.666,12.667,90,38C1715.333,319.334,1728,349.334,1728,384z"/>
</svg>
