<svg xmlns="http://www.w3.org/2000/svg" width="1792" height="1792" viewBox="0 0 1792 1792"><path fill="#662900" d="M896 1629l640-349V644L896 877v752zm-64-865l698-254-698-254-698 254 698 254zm832-252v768c0 23.334-6 45-18 65s-28.334 35.667-49 47l-704 384c-18.667 10.667-39 16-61 16s-42.334-5.333-61-16L67 1392c-20.667-11.333-37-27-49-47s-18-41.666-18-65V512c0-26.666 7.666-51 23-73 15.333-22 35.666-37.666 61-47l704-256c14.666-5.333 29.333-8 44-8 14.666 0 29.333 2.667 44 8l704 256c25.333 9.334 45.666 25 61 47 15.333 22 23 46.334 23 73z"/></svg>