<?xml version="1.0" encoding="utf-8"?>
<!-- Generator: Adobe Illustrator 16.0.0, SVG Export Plug-In . SVG Version: 6.00 Build 0)  -->
<!DOCTYPE svg PUBLIC "-//W3C//DTD SVG 1.1//EN" "http://www.w3.org/Graphics/SVG/1.1/DTD/svg11.dtd">
<svg version="1.1" id="Layer_1" xmlns="http://www.w3.org/2000/svg" xmlns:xlink="http://www.w3.org/1999/xlink" x="0px" y="0px"
	 width="1792px" height="1792px" viewBox="0 0 1792 1792" enable-background="new 0 0 1792 1792" xml:space="preserve">
<g>
	<path fill="#6480A7" d="M896,1767c-136.417,0-264.34-11.452-380.217-34.038c-114.759-22.368-206.393-52.869-272.356-90.655
		C183.424,1607.936,153,1572.17,153,1536v-124.197c77.197,45.408,176.128,80.88,294.892,105.67
		C586.259,1546.355,737.024,1561,896,1561c158.976,0,309.741-14.645,448.108-43.527c118.763-24.79,217.694-60.262,294.892-105.67
		V1536c0,36.17-30.424,71.937-90.426,106.307c-65.965,37.786-157.6,68.287-272.357,90.655C1160.341,1755.548,1032.417,1767,896,1767
		z M896,1383c-136.417,0-264.34-11.452-380.217-34.038c-114.759-22.368-206.393-52.869-272.356-90.655
		C183.424,1223.936,153,1188.17,153,1152v-124.197c77.197,45.408,176.128,80.88,294.892,105.67
		C586.259,1162.355,737.024,1177,896,1177c158.976,0,309.741-14.645,448.108-43.527c118.763-24.79,217.694-60.262,294.892-105.67
		V1152c0,36.17-30.424,71.937-90.426,106.307c-65.965,37.786-157.6,68.287-272.357,90.655C1160.341,1371.548,1032.417,1383,896,1383
		z M896,999c-136.417,0-264.34-11.452-380.217-34.038c-114.759-22.368-206.393-52.869-272.356-90.655
		C183.424,839.937,153,804.17,153,768V643.803c77.197,45.408,176.128,80.879,294.892,105.669C586.259,778.355,737.024,793,896,793
		c158.976,0,309.741-14.645,448.108-43.527c118.763-24.79,217.694-60.262,294.892-105.67V768c0,36.17-30.424,71.937-90.426,106.307
		c-65.965,37.786-157.6,68.287-272.357,90.655C1160.341,987.548,1032.417,999,896,999z M896,615
		c-136.417,0-264.34-11.452-380.217-34.039c-114.759-22.368-206.393-52.869-272.356-90.654C183.424,455.937,153,420.17,153,384V256
		c0-36.169,30.424-71.937,90.426-106.307c65.966-37.786,157.6-68.287,272.356-90.654C631.66,36.452,759.583,25,896,25
		s264.341,11.452,380.217,34.039c114.756,22.367,206.39,52.868,272.357,90.654C1608.576,184.064,1639,219.831,1639,256v128
		c0,36.17-30.424,71.937-90.426,106.307c-65.965,37.786-157.6,68.287-272.357,90.654C1160.341,603.548,1032.417,615,896,615z"/>
	<path fill="#4B6280" d="M896,50c134.815,0,261.13,11.297,375.435,33.576c112.062,21.843,201.125,51.387,264.713,87.81
		c28.74,16.463,49.986,33.104,63.148,49.46C1609.19,233.142,1614,244.641,1614,256v128c0,11.359-4.811,22.858-14.704,35.154
		c-13.162,16.356-34.408,32.997-63.148,49.459c-63.585,36.423-152.647,65.967-264.713,87.81C1157.13,578.703,1030.816,590,896,590
		s-261.13-11.297-375.434-33.576c-112.067-21.844-201.129-51.387-264.714-87.81c-28.74-16.463-49.986-33.104-63.147-49.459
		C182.81,406.858,178,395.359,178,384V256c0-11.359,4.81-22.858,14.704-35.154c13.161-16.356,34.408-32.997,63.148-49.46
		c63.587-36.423,152.649-65.966,264.714-87.81C634.87,61.297,761.185,50,896,50 M1614,685.962V768
		c0,11.359-4.811,22.858-14.704,35.154c-13.162,16.356-34.408,32.997-63.148,49.459c-63.585,36.423-152.647,65.966-264.713,87.81
		C1157.13,962.703,1030.816,974,896,974s-261.13-11.297-375.434-33.576c-112.067-21.844-201.129-51.387-264.714-87.81
		c-28.74-16.463-49.986-33.104-63.147-49.459C182.81,790.858,178,779.359,178,768v-82.037
		c22.781,11.568,47.002,22.374,72.551,32.358c56.496,22.077,121.173,40.792,192.232,55.624
		c70.117,14.637,143.845,25.763,219.136,33.072C737.006,814.304,815.762,818,896,818c80.238,0,158.994-3.695,234.08-10.983
		c75.291-7.309,149.019-18.435,219.137-33.072c71.059-14.833,135.735-33.547,192.231-55.624
		C1566.996,708.337,1591.22,697.531,1614,685.962 M1614,1069.963V1152c0,11.359-4.811,22.858-14.704,35.154
		c-13.162,16.356-34.408,32.997-63.148,49.46c-63.585,36.423-152.647,65.966-264.713,87.81C1157.13,1346.703,1030.816,1358,896,1358
		s-261.13-11.297-375.434-33.576c-112.067-21.844-201.129-51.388-264.714-87.811c-28.74-16.462-49.986-33.103-63.147-49.459
		C182.81,1174.858,178,1163.359,178,1152v-82.037c22.781,11.568,47.002,22.374,72.551,32.357
		c56.496,22.077,121.173,40.792,192.232,55.625c70.117,14.636,143.845,25.763,219.136,33.071
		C737.006,1198.304,815.762,1202,896,1202c80.238,0,158.994-3.695,234.08-10.983c75.291-7.309,149.019-18.436,219.137-33.071
		c71.059-14.833,135.735-33.548,192.231-55.625C1566.996,1092.337,1591.22,1081.53,1614,1069.963 M1614,1453.963V1536
		c0,11.359-4.811,22.858-14.704,35.154c-13.162,16.356-34.408,32.997-63.148,49.46c-63.585,36.423-152.647,65.966-264.713,87.81
		C1157.13,1730.703,1030.816,1742,896,1742s-261.13-11.297-375.434-33.576c-112.067-21.844-201.129-51.388-264.714-87.811
		c-28.74-16.462-49.986-33.103-63.147-49.459C182.81,1558.858,178,1547.359,178,1536v-82.037
		c22.781,11.568,47.002,22.374,72.551,32.357c56.496,22.077,121.173,40.792,192.232,55.625
		c70.117,14.636,143.845,25.763,219.136,33.071C737.006,1582.304,815.762,1586,896,1586c80.238,0,158.994-3.695,234.08-10.983
		c75.291-7.309,149.019-18.436,219.137-33.071c71.059-14.833,135.735-33.548,192.231-55.625
		C1566.996,1476.337,1591.22,1465.53,1614,1453.963 M896,0C757.333,0,629,11.5,511,34.5S299.666,88.667,231,128
		c-68.667,39.334-103,82-103,128v128c0,46,34.333,88.667,103,128c68.666,39.334,162,70.5,280,93.5S757.333,640,896,640
		c138.666,0,267-11.5,385-34.5s211.333-54.166,280-93.5c68.666-39.333,103-82,103-128V256c0-46-34.334-88.666-103-128
		c-68.667-39.333-162-70.5-280-93.5S1034.666,0,896,0L896,0z M1664,598c-79.334,56-187.667,98.334-325,127
		c-137.334,28.667-285,43-443,43s-305.667-14.333-443-43c-137.334-28.666-245.667-71-325-127v170c0,46,34.333,88.667,103,128
		c68.666,39.334,162,70.5,280,93.5s246.333,34.5,385,34.5c138.666,0,267-11.5,385-34.5s211.333-54.166,280-93.5
		c68.666-39.333,103-82,103-128V598L1664,598z M1664,982c-79.334,56-187.667,98.334-325,127c-137.334,28.667-285,43-443,43
		s-305.667-14.333-443-43c-137.334-28.666-245.667-71-325-127v170c0,46,34.333,88.667,103,128c68.666,39.334,162,70.5,280,93.5
		s246.333,34.5,385,34.5c138.666,0,267-11.5,385-34.5s211.333-54.166,280-93.5c68.666-39.333,103-82,103-128V982L1664,982z
		 M1664,1366c-79.334,56-187.667,98.334-325,127c-137.334,28.667-285,43-443,43s-305.667-14.333-443-43
		c-137.334-28.666-245.667-71-325-127v170c0,46,34.333,88.667,103,128c68.666,39.334,162,70.5,280,93.5s246.333,34.5,385,34.5
		c138.666,0,267-11.5,385-34.5s211.333-54.166,280-93.5c68.666-39.333,103-82,103-128V1366L1664,1366z"/>
</g>
</svg>
