<svg xmlns="http://www.w3.org/2000/svg" width="1792" height="1792" viewBox="0 0 1792 1792"><path fill="#4A7521" d="M192 1664h288v-288H192v288zm352 0h320v-288H544v288zm-352-352h288V992H192v320zm352 0h320V992H544v320zM192 928h288V640H192v288zm736 736h320v-288H928v288zM544 928h320V640H544v288zm768 736h288v-288h-288v288zm-384-352h320V992H928v320zM576 448V160c0-8.666-3.167-16.166-9.5-22.5-6.334-6.333-13.834-9.5-22.5-9.5h-64c-8.667 0-16.167 3.167-22.5 9.5-6.334 6.334-9.5 13.834-9.5 22.5v288c0 8.667 3.166 16.167 9.5 22.5 6.333 6.334 13.833 9.5 22.5 9.5h64c8.666 0 16.166-3.166 22.5-9.5 6.333-6.333 9.5-13.833 9.5-22.5zm736 864h288V992h-288v320zM928 928h320V640H928v288zm384 0h288V640h-288v288zm32-480V160c0-8.666-3.167-16.166-9.5-22.5-6.334-6.333-13.834-9.5-22.5-9.5h-64c-8.667 0-16.167 3.167-22.5 9.5-6.334 6.334-9.5 13.834-9.5 22.5v288c0 8.667 3.166 16.167 9.5 22.5 6.333 6.334 13.833 9.5 22.5 9.5h64c8.666 0 16.166-3.166 22.5-9.5 6.333-6.333 9.5-13.833 9.5-22.5zm384-64v1280c0 34.667-12.667 64.667-38 90-25.334 25.334-55.334 38-90 38H192c-34.667 0-64.667-12.666-90-38-25.334-25.333-38-55.333-38-90V384c0-34.666 12.666-64.666 38-90 25.333-25.333 55.333-38 90-38h128v-96c0-44 15.666-81.666 47-113 31.333-31.333 69-47 113-47h64c44 0 81.666 15.667 113 47 31.333 31.334 47 69 47 113v96h384v-96c0-44 15.666-81.666 47-113 31.333-31.333 69-47 113-47h64c44 0 81.666 15.667 113 47 31.333 31.334 47 69 47 113v96h128c34.666 0 64.666 12.667 90 38 25.333 25.334 38 55.334 38 90z"/></svg>