<?xml version="1.0" encoding="utf-8"?>
<!-- Generator: Adobe Illustrator 16.0.0, SVG Export Plug-In . SVG Version: 6.00 Build 0)  -->
<!DOCTYPE svg PUBLIC "-//W3C//DTD SVG 1.1//EN" "http://www.w3.org/Graphics/SVG/1.1/DTD/svg11.dtd">
<svg version="1.1" id="Layer_1" xmlns="http://www.w3.org/2000/svg" xmlns:xlink="http://www.w3.org/1999/xlink" x="0px" y="0px"
	 width="1792px" height="1792px" viewBox="0 0 1792 1792" enable-background="new 0 0 1792 1792" xml:space="preserve">
<path fill="#1D59B2" d="M192,1664h288v-288H192V1664z M544,1664h320v-288H544V1664z M192,1312h288V992H192V1312z M544,1312h320V992
	H544V1312z M192,928h288V640H192V928z M928,1664h320v-288H928V1664z M544,928h320V640H544V928z M1312,1664h288v-288h-288V1664z
	 M928,1312h320V992H928V1312z M576,448V160c0-8.666-3.168-16.166-9.5-22.5c-6.334-6.333-13.834-9.5-22.5-9.5h-64
	c-8.668,0-16.168,3.167-22.5,9.5c-6.335,6.334-9.5,13.834-9.5,22.5v288c0,8.668,3.165,16.168,9.5,22.5
	c6.332,6.335,13.832,9.5,22.5,9.5h64c8.666,0,16.166-3.165,22.5-9.5C572.832,464.168,576,456.668,576,448z M1312,1312h288V992h-288
	V1312z M928,928h320V640H928V928z M1312,928h288V640h-288V928z M1344,448V160c0-8.666-3.168-16.166-9.5-22.5
	c-6.334-6.333-13.834-9.5-22.5-9.5h-64c-8.668,0-16.168,3.167-22.5,9.5c-6.334,6.334-9.5,13.834-9.5,22.5v288
	c0,8.668,3.166,16.168,9.5,22.5c6.332,6.335,13.832,9.5,22.5,9.5h64c8.666,0,16.166-3.165,22.5-9.5
	C1340.832,464.168,1344,456.668,1344,448z M1728,384v1280c0,34.668-12.668,64.668-38,90c-25.334,25.334-55.334,38-90,38H192
	c-34.667,0-64.667-12.666-90-38c-25.334-25.332-38-55.332-38-90V384c0-34.666,12.666-64.666,38-90c25.333-25.333,55.333-38,90-38
	h128v-96c0-44,15.666-81.666,47-113c31.333-31.333,69-47,113-47h64c44,0,81.666,15.667,113,47c31.332,31.334,47,69,47,113v96h384
	v-96c0-44,15.666-81.666,47-113c31.332-31.333,69-47,113-47h64c44,0,81.666,15.667,113,47c31.332,31.334,47,69,47,113v96h128
	c34.666,0,64.666,12.667,90,38C1715.332,319.335,1728,349.335,1728,384z"/>
</svg>
