<svg xmlns="http://www.w3.org/2000/svg" width="1792" height="1792" viewBox="0 0 1792 1792"><path fill="#6480A7" d="M224 1767c-19.948 0-36.409-6.764-50.322-20.677C159.764 1732.409 153 1715.948 153 1696V96c0-19.948 6.764-36.408 20.678-50.322S204.052 25 224 25h775v519c0 33.415 11.884 62.241 35.323 85.678C1057.76 653.115 1086.586 665 1120 665h519v1031c0 19.948-6.764 36.408-20.678 50.322S1587.948 1767 1568 1767H224zm953-1280V92.355L1571.645 487H1177z"/><path fill="#494948" d="M974 50v494c0 19.834 3.622 38.688 10.766 56.038 7.172 17.417 17.897 33.337 31.878 47.317 13.981 13.982 29.902 24.708 47.319 31.88C1081.312 686.378 1100.165 690 1120 690h494v1006c0 13.34-4.119 23.408-13.355 32.645S1581.34 1742 1568 1742H224c-13.341 0-23.409-4.118-32.646-13.356C182.119 1719.408 178 1709.341 178 1696V96c0-13.34 4.119-23.408 13.355-32.645S210.66 50 224 50h750m228 102.711L1511.289 462H1202V152.711M1024 0H224c-26.667 0-49.334 9.334-68 28-18.667 18.667-28 41.334-28 68v1600c0 26.667 9.333 49.334 28 68 18.666 18.667 41.333 28 68 28h1344c26.666 0 49.333-9.333 68-28 18.666-18.666 28-41.333 28-68V640h-544c-26.667 0-49.334-9.333-68-28-18.667-18.666-28-41.333-28-68V0zm128 40v472h472c-9.334-14.666-18.667-26.666-28-36L1188 68c-9.334-9.333-21.334-18.666-36-28z"/></svg>