<?xml version="1.0" encoding="iso-8859-1"?>
<!-- Generator: Adobe Illustrator 16.0.0, SVG Export Plug-In . SVG Version: 6.00 Build 0)  -->
<!DOCTYPE svg PUBLIC "-//W3C//DTD SVG 1.1//EN" "http://www.w3.org/Graphics/SVG/1.1/DTD/svg11.dtd">
<svg version="1.1" id="Capa_1" xmlns="http://www.w3.org/2000/svg" xmlns:xlink="http://www.w3.org/1999/xlink" x="0px" y="0px"
	 width="87.361px" height="87.361px" viewBox="0 0 87.361 87.361" style="enable-background:new 0 0 87.361 87.361;"
	 xml:space="preserve">
<g>
	<g>
		<g>
			<path d="M43.68,16.801c-14.784,0-26.88,12.097-26.88,26.88c0,14.784,12.096,26.88,26.88,26.88
				c14.784,0,26.878-12.098,26.878-26.88C70.559,28.897,58.464,16.801,43.68,16.801z M53.311,27.553
				c-1.344,0.673-2.688,1.12-4.256,1.568c-0.447-2.912-0.895-5.6-1.791-7.84C49.727,22.402,51.745,24.64,53.311,27.553z
				 M50.177,41.666c0-2.24-0.225-5.824-0.448-9.633c1.793-0.447,3.584-0.896,5.151-1.792c1.345,3.36,2.24,7.168,2.466,11.424
				L50.177,41.666L50.177,41.666z M57.12,45.696c-0.226,4.256-1.119,8.064-2.464,11.424c-1.567-0.672-3.36-1.344-5.151-1.791
				c0.447-3.809,0.447-7.393,0.447-9.633H57.12L57.12,45.696z M43.456,20.833h0.224h0.226c0.671,1.12,1.567,4.256,2.239,8.736
				c-0.896,0-1.792,0.224-2.688,0.224s-1.792,0-2.688-0.224C41.664,25.09,42.56,21.953,43.456,20.833z M33.154,23.521
				c-0.674,0.896-1.12,1.792-1.792,2.688c-0.448-0.224-0.896-0.672-1.346-0.896C30.912,24.64,32.033,23.969,33.154,23.521z
				 M37.184,41.666h-6.943c0.224-4.256,1.12-8.063,2.464-11.424c1.566,0.672,3.358,1.344,5.15,1.792
				C37.409,35.841,37.184,39.425,37.184,41.666z M37.856,55.329c-1.792,0.447-3.358,0.896-5.15,1.791
				c-1.344-3.359-2.24-7.168-2.464-11.424h6.942C37.184,47.937,37.409,51.521,37.856,55.329z M27.778,60.032
				c-3.81-3.807-6.272-8.734-6.944-14.336h6.496c0.224,4.705,1.12,9.186,2.688,12.77C29.12,58.913,28.449,59.585,27.778,60.032z
				 M27.328,41.666h-6.496c0.448-5.601,2.912-10.752,6.944-14.336c0.672,0.672,1.566,1.12,2.238,1.568
				C28.449,32.481,27.552,36.961,27.328,41.666z M30.016,62.048c0.448-0.223,0.896-0.672,1.346-0.895
				c0.446,0.895,1.118,2.016,1.792,2.688C32.033,63.394,30.912,62.72,30.016,62.048z M34.048,59.81
				c1.344-0.674,2.688-1.121,4.032-1.346c0.448,2.912,0.896,5.602,1.792,7.84C37.632,64.96,35.617,62.72,34.048,59.81z
				 M38.08,29.121c-1.344-0.448-2.688-0.896-4.032-1.344c1.568-2.912,3.584-5.152,5.824-6.272
				C39.201,23.298,38.53,26.209,38.08,29.121z M43.906,66.528H43.68h-0.224c-0.672-1.118-1.568-4.256-2.24-8.735
				c0.896,0,1.792-0.224,2.688-0.224c0.895,0,1.792,0,2.688,0.224C45.695,62.272,44.8,65.409,43.906,66.528z M46.593,54.882
				c-0.896,0-2.016-0.225-2.913-0.225c-0.896,0-2.016,0-2.912,0.225c-0.224-2.688-0.446-5.824-0.446-9.186h6.944
				C47.04,49.056,46.816,52.192,46.593,54.882z M40.322,41.666c0-3.36,0.224-6.496,0.446-9.185c0.896,0,2.018,0.224,2.912,0.224
				c0.897,0,2.015,0,2.913-0.224c0.226,2.688,0.447,5.823,0.447,9.185H40.322z M47.488,66.081c0.896-2.24,1.345-4.928,1.791-7.84
				c1.345,0.447,2.912,0.896,4.257,1.568C51.745,62.72,49.727,64.96,47.488,66.081z M54.208,63.841
				c0.672-0.896,1.121-1.793,1.793-2.688c0.446,0.223,0.896,0.672,1.345,0.895C56.447,62.72,55.329,63.394,54.208,63.841z
				 M56.001,26.209c-0.449-0.896-1.121-2.016-1.793-2.688c1.121,0.447,2.017,1.119,2.912,2.016
				C56.895,25.537,56.447,25.986,56.001,26.209z M59.585,60.032c-0.672-0.672-1.567-1.119-2.239-1.566
				c1.567-3.584,2.463-8.062,2.688-12.77h6.496C66.081,51.298,63.391,56.226,59.585,60.032z M60.031,41.666
				c-0.225-4.705-1.118-9.185-2.688-12.769c0.896-0.448,1.568-1.12,2.24-1.568c3.807,3.808,6.27,8.736,6.943,14.336L60.031,41.666
				L60.031,41.666z"/>
			<path d="M87.359,41.441H76.607C75.488,25.09,62.271,11.873,45.921,10.753V0.001H41.44v10.752
				c-16.352,1.12-29.566,14.336-30.688,30.688H0v4.48h10.752c1.12,16.352,14.336,29.568,30.688,30.688V87.36h4.481V76.608
				c16.353-1.118,29.567-14.336,30.688-30.688h10.752v-4.48H87.359z M43.68,75.714c-17.694,0-32.032-14.338-32.032-32.033
				c0-17.695,14.338-31.808,32.032-31.808c17.696,0,32.032,14.112,32.032,31.807C75.712,61.376,61.376,75.714,43.68,75.714z"/>
		</g>
	</g>
</g>
<g>
</g>
<g>
</g>
<g>
</g>
<g>
</g>
<g>
</g>
<g>
</g>
<g>
</g>
<g>
</g>
<g>
</g>
<g>
</g>
<g>
</g>
<g>
</g>
<g>
</g>
<g>
</g>
<g>
</g>
</svg>
