<?xml version="1.0" encoding="utf-8"?>
<!-- Generator: Adobe Illustrator 16.0.0, SVG Export Plug-In . SVG Version: 6.00 Build 0)  -->
<!DOCTYPE svg PUBLIC "-//W3C//DTD SVG 1.1//EN" "http://www.w3.org/Graphics/SVG/1.1/DTD/svg11.dtd">
<svg version="1.1" id="Layer_1" xmlns="http://www.w3.org/2000/svg" xmlns:xlink="http://www.w3.org/1999/xlink" x="0px" y="0px"
	 width="1792px" height="1792px" viewBox="0 0 1792 1792" enable-background="new 0 0 1792 1792" xml:space="preserve">
<circle fill="#558919" stroke="#000000" stroke-miterlimit="10" cx="896" cy="896" r="768"/>
<path fill="#1860A0" d="M896,128c139.333,0,267.833,34.334,385.5,103c117.666,68.667,210.833,161.834,279.5,279.5
	c68.666,117.667,103,246.167,103,385.5c0,139.334-34.334,267.834-103,385.5c-68.667,117.667-161.834,210.834-279.5,279.5
	c-117.667,68.667-246.167,103-385.5,103c-139.334,0-267.834-34.333-385.5-103c-117.667-68.666-210.834-161.833-279.5-279.5
	c-68.667-117.666-103-246.166-103-385.5c0-139.333,34.333-267.833,103-385.5C299.666,392.834,392.833,299.667,510.5,231
	C628.166,162.334,756.666,128,896,128z M1170,649c-1.334,0.667-4.5,3.834-9.5,9.5c-5,5.667-9.5,8.834-13.5,9.5
	c1.333,0,2.833-1.666,4.5-5c1.666-3.333,3.333-7,5-11c1.666-4,2.833-6.333,3.5-7c4-4.666,11.333-9.666,22-15c9.333-4,26.666-8,52-12
	c22.666-5.333,39.666-1.666,51,11c-1.334-1.333,1.833-5.666,9.5-13c7.666-7.333,12.5-11.333,14.5-12c2-1.333,7-2.833,15-4.5
	c8-1.666,13-4.166,15-7.5l2-22c-8,0.667-13.834-1.666-17.5-7c-3.667-5.333-5.834-12.333-6.5-21c0,1.334-2,4-6,8
	c0-4.666-1.5-7.333-4.5-8c-3-0.666-6.834-0.333-11.5,1c-4.667,1.334-7.667,1.667-9,1c-6.667-2-11.667-4.5-15-7.5
	c-3.334-3-6-8.5-8-16.5s-3.334-13-4-15c-1.334-3.333-4.5-6.833-9.5-10.5c-5-3.666-8.167-7.166-9.5-10.5
	c-0.667-1.333-1.5-3.166-2.5-5.5c-1-2.333-2-4.5-3-6.5s-2.334-3.833-4-5.5c-1.667-1.666-3.5-2.5-5.5-2.5s-4.334,1.667-7,5
	c-2.667,3.334-5.167,6.667-7.5,10c-2.334,3.334-3.834,5-4.5,5c-2-1.333-4-1.833-6-1.5c-2,0.334-3.5,0.667-4.5,1
	c-1,0.334-2.5,1.334-4.5,3c-2,1.667-3.667,2.834-5,3.5c-2,1.334-4.834,2.334-8.5,3c-3.667,0.667-6.5,1.334-8.5,2
	c10-3.333,9.666-7-1-11c-6.667-2.666-12-3.666-16-3c6-2.666,8.5-6.666,7.5-12c-1-5.333-3.834-10-8.5-14h5
	c-0.667-2.666-3.5-5.5-8.5-8.5s-10.834-5.833-17.5-8.5c-6.667-2.666-11-4.666-13-6c-5.334-3.333-16.667-6.5-34-9.5
	c-17.334-3-28.334-3.166-33-0.5c-3.334,4-4.834,7.5-4.5,10.5c0.333,3,1.666,7.667,4,14c2.333,6.334,3.5,10.5,3.5,12.5
	c0.666,4-1.167,8.334-5.5,13c-4.334,4.667-6.5,8.667-6.5,12c0,4.667,4.666,9.834,14,15.5c9.333,5.667,12.666,12.834,10,21.5
	c-2,5.334-7.334,10.667-16,16c-8.667,5.334-14,9.334-16,12c-3.334,5.334-3.834,11.5-1.5,18.5c2.333,7,5.833,12.5,10.5,16.5
	c1.333,1.334,1.833,2.667,1.5,4c-0.334,1.334-1.5,2.834-3.5,4.5c-2,1.667-3.834,3-5.5,4c-1.667,1-3.834,2.167-6.5,3.5l-3,2
	c-7.334,3.334-14.167,1.334-20.5-6c-6.334-7.333-10.834-16-13.5-26c-4.667-16.666-10-26.666-16-30c-15.334-5.333-25-5-29,1
	c-3.334-8.666-17-17.333-41-26c-16.667-6-36-7.333-58-4c4-0.666,4-5.666,0-15c-4.667-10-11-14-19-12c2-4,3.333-9.833,4-17.5
	c0.666-7.666,1-12.166,1-13.5c2-8.666,6-16.333,12-23c0.666-0.666,3-3.5,7-8.5s7.166-9.5,9.5-13.5c2.333-4,2.5-6,0.5-6
	c23.333,2.667,40-1,50-11c3.333-3.333,7.166-9,11.5-17c4.333-8,7.833-13.666,10.5-17c6-4,10.666-5.833,14-5.5
	c3.333,0.334,8.166,2.167,14.5,5.5c6.333,3.334,11.166,5,14.5,5c9.333,0.667,14.5-3,15.5-11s-1.5-14.666-7.5-20c8,0.667,9-5,3-17
	c-3.334-4.666-6-7.666-8-9c-8-2.666-17-1-27,5c-5.334,2.667-4.667,5.334,2,8c-0.667-0.666-3.834,2.834-9.5,10.5
	c-5.667,7.667-11.167,13.5-16.5,17.5c-5.334,4-10.667,2.334-16-5c-0.667-0.666-2.5-5.166-5.5-13.5c-3-8.333-6.167-12.833-9.5-13.5
	c-5.334,0-10.667,5-16,15c2-5.333-1.667-10.333-11-15c-9.334-4.666-17.334-7.333-24-8c12.666-8,10-17-8-27
	c-4.667-2.666-11.5-4.333-20.5-5c-9-0.666-15.5,0.667-19.5,4c-3.334,4.667-5.167,8.5-5.5,11.5c-0.334,3,1.333,5.667,5,8
	c3.666,2.334,7.166,4.167,10.5,5.5c3.333,1.334,7.166,2.667,11.5,4c4.333,1.334,7.166,2.334,8.5,3c9.333,6.667,12,11.334,8,14
	c-1.334,0.667-4.167,1.834-8.5,3.5c-4.334,1.667-8.167,3.167-11.5,4.5c-3.334,1.334-5.334,2.667-6,4c-2,2.667-2,7.334,0,14
	c2,6.667,1.333,11.334-2,14c-3.334-3.333-6.334-9.166-9-17.5c-2.667-8.333-5-13.833-7-16.5c4.666,6-3.667,8-25,6l-10-1
	c-2.667,0-8,0.667-16,2c-8,1.334-14.834,1.667-20.5,1c-5.667-0.666-10.167-3.333-13.5-8c-2.667-5.333-2.667-12,0-20
	c0.666-2.666,2-3.333,4-2c-2.667-2-6.334-5.166-11-9.5c-4.667-4.333-8-7.166-10-8.5c-30.667,10-62,23.667-94,41
	c4,0.667,8,0.334,12-1c3.333-1.333,7.666-3.5,13-6.5c5.333-3,8.666-4.833,10-5.5c22.666-9.333,36.666-11.666,42-7l5-5
	c9.333,10.667,16,19,20,25c-4.667-2.666-14.667-3-30-1c-13.334,4-20.667,8-22,12c4.666,8,6.333,14,5,18c-2.667-2-6.5-5.333-11.5-10
	c-5-4.666-9.834-8.333-14.5-11c-4.667-2.666-9.667-4.333-15-5c-10.667,0-18,0.334-22,1c-97.334,53.334-175.667,127.334-235,222
	c4.666,4.667,8.666,7.334,12,8c2.666,0.667,4.333,3.667,5,9c0.666,5.334,1.5,9,2.5,11s4.833,1,11.5-3c6,5.334,7,11.667,3,19
	c0.666-0.666,15.333,8.334,44,27c12.666,11.334,19.666,18.334,21,21c2,7.334-1.334,13.334-10,18c-0.667-1.333-3.667-4.333-9-9
	c-5.334-4.666-8.334-6-9-4c-2,3.334-1.834,9.5,0.5,18.5c2.333,9,5.833,13.167,10.5,12.5c-4.667,0-7.834,5.334-9.5,16
	c-1.667,10.667-2.5,22.5-2.5,35.5s-0.334,20.834-1,23.5l2,1c-2,8-0.167,19.5,5.5,34.5c5.666,15,12.833,21.5,21.5,19.5
	c-8.667,2-2,16.334,20,43c4,5.334,6.666,8.334,8,9c2,1.334,6,3.834,12,7.5c6,3.667,11,7,15,10s7.333,6.5,10,10.5
	c2.666,3.334,6,10.834,10,22.5c4,11.667,8.666,19.5,14,23.5c-1.334,4,1.833,10.667,9.5,20c7.666,9.334,11.166,17,10.5,23
	c-0.667,0-1.5,0.334-2.5,1c-1,0.667-1.834,1-2.5,1c2,4.667,7.166,9.334,15.5,14c8.333,4.667,13.5,9,15.5,13
	c0.666,2,1.333,5.334,2,10c0.666,4.667,1.666,8.334,3,11c1.333,2.667,4,3.334,8,2c1.333-13.333-6.667-34-24-62
	c-10-16.666-15.667-26.333-17-29c-2-3.333-3.834-8.5-5.5-15.5c-1.667-7-3.167-11.833-4.5-14.5c1.333,0,3.333,0.5,6,1.5
	c2.666,1,5.5,2.167,8.5,3.5c3,1.334,5.5,2.667,7.5,4c2,1.334,2.666,2.334,2,3c-2,4.667-1.334,10.5,2,17.5
	c3.333,7,7.333,13.167,12,18.5c4.666,5.334,10.333,11.667,17,19c6.666,7.334,10.666,11.667,12,13c4,4,8.666,10.5,14,19.5
	c5.333,9,5.333,13.5,0,13.5c6,0,12.666,3.334,20,10c7.333,6.667,13,13.334,17,20c3.333,5.334,6,14,8,26s3.666,20,5,24
	c1.333,4.667,4.166,9.167,8.5,13.5c4.333,4.334,8.5,7.5,12.5,9.5l16,8l13,7c3.333,1.334,9.5,4.834,18.5,10.5
	c9,5.667,16.166,9.5,21.5,11.5c6.666,2.667,12,4,16,4s8.833-0.833,14.5-2.5c5.666-1.666,10.166-2.833,13.5-3.5
	c10-1.333,19.666,3.667,29,15c9.333,11.334,16.333,18.334,21,21c24,12.667,42.333,16.334,55,11c-1.334,0.667-1.167,3.167,0.5,7.5
	c1.666,4.334,4.333,9.5,8,15.5c3.666,6,6.666,10.834,9,14.5c2.333,3.667,4.166,6.5,5.5,8.5c3.333,4,9.333,9,18,15
	c8.666,6,14.666,11,18,15c4-2.666,6.333-5.666,7-9c-2,5.334,0.333,12,7,20c6.666,8,12.666,11.334,18,10c9.333-2,14-12.666,14-32
	c-20.667,10-37,4-49-18c0-0.666-0.834-2.5-2.5-5.5c-1.667-3-3-5.833-4-8.5c-1-2.666-1.834-5.5-2.5-8.5c-0.667-3-0.667-5.5,0-7.5
	c0.666-2,2.333-3,5-3c6,0,9.333-1.166,10-3.5c0.666-2.333,0-6.5-2-12.5s-3.334-10.333-4-13c-0.667-5.333-4.334-12-11-20
	c-6.667-8-10.667-13-12-15c-3.334,6-8.667,8.667-16,8c-7.334-0.666-12.667-3.666-16-9c0,0.667-0.5,2.5-1.5,5.5s-1.5,5.167-1.5,6.5
	c-8.667,0-13.667-0.333-15-1c0.666-2,1.5-7.833,2.5-17.5c1-9.666,2.166-17.166,3.5-22.5c0.666-2.666,2.5-6.666,5.5-12
	c3-5.333,5.5-10.166,7.5-14.5c2-4.333,3.333-8.5,4-12.5c0.666-4-0.834-7.166-4.5-9.5c-3.667-2.333-9.5-3.166-17.5-2.5
	c-12.667,0.667-21.334,7.334-26,20c-0.667,2-1.667,5.5-3,10.5c-1.334,5-3,8.834-5,11.5c-2,2.667-5,5-9,7c-4.667,2-12.667,2.667-24,2
	c-11.334-0.666-19.334-2.333-24-5c-8.667-5.333-16.167-15-22.5-29c-6.334-14-9.5-26.333-9.5-37c0-6.666,0.833-15.5,2.5-26.5
	c1.666-11,2.666-19.333,3-25c0.333-5.666-1.5-13.833-5.5-24.5c2-1.333,5-4.5,9-9.5s7.333-8.5,10-10.5
	c1.333-0.666,2.833-1.166,4.5-1.5c1.666-0.333,3.166-0.333,4.5,0c1.333,0.334,2.666-0.166,4-1.5c1.333-1.333,2.333-3.333,3-6
	c-0.667-0.666-2-1.666-4-3c-2-2-3.334-3-4-3c4.666,2,14.166,1.5,28.5-1.5c14.333-3,23.5-2.5,27.5,1.5c10,7.334,17.333,6.667,22-2
	c0-0.666-0.834-3.833-2.5-9.5c-1.667-5.666-1.834-10.166-0.5-13.5c3.333,18,13,21,29,9c2,2,7.166,3.667,15.5,5
	c8.333,1.334,14.166,3,17.5,5c2,1.334,4.333,3.167,7,5.5c2.666,2.334,4.5,3.834,5.5,4.5c1,0.667,2.666,0.5,5-0.5
	c2.333-1,5.166-3.166,8.5-6.5c6.666,9.334,10.666,17.334,12,24c7.333,26.667,13.666,41.334,19,44c4.666,2,8.333,2.667,11,2
	c2.666-0.666,4.166-3.833,4.5-9.5c0.333-5.666,0.333-10.333,0-14c-0.334-3.666-0.834-7.833-1.5-12.5l-1-8v-18l-1-8
	c-10-2-16.167-6-18.5-12c-2.334-6-1.834-12.166,1.5-18.5c3.333-6.333,8.333-12.5,15-18.5c0.666-0.666,3.333-1.833,8-3.5
	c4.666-1.666,9.833-3.833,15.5-6.5c5.666-2.666,9.833-5.333,12.5-8c14-12.666,19-24.333,15-35c4.666,0,8.333-3,11-9
	c-0.667,0-2.334-1-5-3c-2.667-2-5.167-3.666-7.5-5c-2.334-1.333-3.834-2-4.5-2c6-3.333,6.666-8.666,2-16c3.333-2,5.833-5.666,7.5-11
	c1.666-5.333,4.166-8.666,7.5-10c6,8,13,8.667,21,2c4.666-5.333,5-10.666,1-16c3.333-4.666,10.166-8.166,20.5-10.5
	c10.333-2.333,16.5-5.5,18.5-9.5c4.666,1.334,7.333,0.667,8-2c0.666-2.666,1-6.666,1-12c0-5.333,1-9.333,3-12
	c2.666-3.333,7.666-6.333,15-9c7.333-2.666,11.666-4.333,13-5l17-11c2-2.666,2-4,0-4c12,1.334,22.333-2.333,31-11
	c6.666-7.333,4.666-14-6-20c2-4,1-7.166-3-9.5c-4-2.333-9-4.166-15-5.5c2-0.666,5.833-0.833,11.5-0.5
	c5.666,0.334,9.166-0.166,10.5-1.5c10-6.666,7.666-12-7-16C1201.666,633.667,1187.333,637.667,1170,649z M1007,1526
	c137.333-24,254.333-87,351-189c-2-2-6.167-3.5-12.5-4.5c-6.334-1-10.5-2.166-12.5-3.5c-12-4.666-20-7.333-24-8
	c0.666-4.666-0.167-9-2.5-13c-2.334-4-5-7-8-9s-7.167-4.666-12.5-8c-5.334-3.333-9-5.666-11-7c-1.334-1.333-3.667-3.333-7-6
	c-3.334-2.666-5.667-4.5-7-5.5c-1.334-1-3.834-2.5-7.5-4.5c-3.667-2-6.5-2.666-8.5-2c-2,0.667-5.334,1-10,1l-3,1
	c-2,0.667-3.834,1.5-5.5,2.5c-1.667,1-3.5,2-5.5,3s-3.334,2-4,3c-0.667,1-0.667,1.834,0,2.5c-14-11.333-26-18.666-36-22
	c-3.334-0.666-7-2.5-11-5.5s-7.5-5.333-10.5-7c-3-1.666-6.334-2.166-10-1.5c-3.667,0.667-7.5,3-11.5,7
	c-3.334,3.334-5.334,8.334-6,15c-0.667,6.667-1.334,11-2,13c-4.667-3.333-4.667-9.166,0-17.5c4.666-8.333,5.333-14.5,2-18.5
	c-2-4-5.5-5.5-10.5-4.5s-9,2.5-12,4.5s-6.834,4.834-11.5,8.5c-4.667,3.667-7.667,5.834-9,6.5c-1.334,0.667-4.167,2.5-8.5,5.5
	c-4.334,3-7.167,5.5-8.5,7.5c-2,2.667-4,6.667-6,12c-2,5.334-3.667,9-5,11c-1.334-2.666-5.167-4.833-11.5-6.5
	c-6.334-1.666-9.5-3.5-9.5-5.5c1.333,6.667,2.666,18.334,4,35c1.333,16.667,3,29.334,5,38c4.666,20.667,0.666,36.667-12,48
	c-18,16.667-27.667,30-29,40c-2.667,14.667,1.333,23.334,12,26c0,4.667-2.667,11.5-8,20.5c-5.334,9-7.667,16.167-7,21.5
	C1005,1514,1005.666,1519.334,1007,1526z"/>
</svg>
