<svg xmlns="http://www.w3.org/2000/svg" width="744.094" height="1052.362"><path d="M362.976 236.037h-.017c-1.603 0-3.018.529-4.349 1.603-.989.784-1.67 1.842-2.216 3.018h.068c.546-1.176 1.228-2.234 2.2-3.018 1.33-1.074 2.745-1.586 4.314-1.603z" fill="#bd0000" fill-rule="evenodd"/><path d="M96.465 30.593L37.155 289.36h417.14c-17.001-1.484-30.423-7.452-38.42-18.331-1.484-2.012-2.71-4.18-3.784-6.448a222.9 222.9 0 0 1-1.972-5.062c-1.705-5.423-2.385-11.44-2.078-17.852.853-17.87 9.238-39.128 23.766-61.388 15.433-23.656 37.799-48.45 65.492-71.46 6.207-5.153 12.625-10.241 19.343-15.186 8.305-6.11 16.673-11.737 25.046-17 30.847-19.42 61.618-33.01 88.884-39.912-26.055 8.5-55.328 22.931-84.248 42.577-1.04.703-2.068 1.422-3.091 2.132-16.046 11.118-30.583 22.925-43.27 34.85-40.823 38.385-62.4 78.159-52.595 101.46a29.105 29.105 0 0 0 2.504 4.583c10.538 15.5 36.656 18.18 69.754 9.859 2.251-.563 4.502-1.2 6.821-1.865 10.573-3.053 21.797-7.175 33.359-12.257 2.78-1.227 5.589-2.49 8.42-3.836.29-.137.562-.273.852-.427 36.492-18.131 64.536-38.994 70.607-51.53 1.33-2.726 1.65-5.05.746-6.873-4.332-8.782-34.64-2.85-71.353 13.055a379.97 379.97 0 0 0-8.953 3.997 284.271 284.271 0 0 1 7.62-6.821 258.46 258.46 0 0 1 13.056-10.551 260.576 260.576 0 0 1 21.582-14.708c33.456-25.24 50.37-49.117 46.84-57.977-.665-1.67-2.08-2.818-4.263-3.517-6.974-2.219-19.704.429-35.17 6.767-12.755 5.232-27.405 12.991-42.258 22.648l-2.025 1.332-.373.213-7.14 4.743 4.103-7.514c6.088-11.144 16.004-22.77 28.35-33.571 9.054-7.897 19.398-15.338 30.533-21.849 4.212-2.465 8.418-4.755 12.63-6.82 4.314-2.108 8.63-3.981 12.842-5.649 12.237-4.84 23.918-7.78 34.105-8.58H651.94h-96.452-425.293-33.731zm305.98.373c-1.67 25.505 3.275 62.862 14.495 104.338a578.818 578.818 0 0 0 6.554 22.487 561.47 561.47 0 0 0 4.583 13.855c-.92 1.354-1.848 2.7-2.717 4.05-14 21.455-22.183 41.731-24.247 59.363-5.917-19.814-10.372-41.518-12.895-64.532a392.632 392.632 0 0 1-1.652-19.556c-2.763-46.797 3.346-89.218 15.88-120.005zm-279.39 33.198c.32-.007.635 0 .96 0h63.04c5.388 0 9.555 1.01 12.523 3.038 2.95 2.039 4.056 4.677 3.357 7.886l-7.514 33.945H173.2l7.3-33.039h-55.632l-20.09 90.803-7.247 32.879h55.58l.053-.213 11.137-50.304H138.19l2.504-11.35h48.333l-13.855 62.773c-.188.893-.516 1.703-.96 2.504-1.142 2.08-3.135 3.863-5.915 5.33-3.853 2.028-8.466 3.037-13.855 3.037H91.456c-5.389 0-9.556-1.009-12.523-3.038-2.95-2.029-4.073-4.62-3.357-7.833l27.763-125.494c.716-3.209 2.95-5.847 6.821-7.886.136-.074.29-.09.426-.16 3.533-1.77 7.68-2.765 12.47-2.878zm98.797 0h79.346c5.32 0 9.502 1.01 12.47 3.038 2.984 2.039 4.126 4.677 3.41 7.886l-14.814 66.93c-.7 3.189-2.986 5.79-6.874 7.834-3.888 2.05-8.465 3.09-13.802 3.09H223.93l-11.137 50.251-1.812 8.26H189.24l1.652-7.46 30.96-139.829zm109.614 0h21.741l-24.619 111.213-5.382 24.299h52.01a309.473 309.473 0 0 0 1.864 11.777h-78.227l6.182-27.923 26.43-119.366zm-90.484 11.83l-14.44 65.118h54.193l14.388-65.118h-54.14zm-45.56 145.69c.212-.007.424 0 .639 0 2.523 0 4.727.443 6.5 1.279 1.894.887 3.247 2.204 3.997 3.943.734 1.688.925 3.605.533 5.702l-.16.8h-6.234l.053-.747c.161-1.465-.02-2.617-.586-3.41a3.62 3.62 0 0 0-.267-.32 3.477 3.477 0 0 0-.533-.426c-.872-.55-2.237-.853-3.996-.853-2.336 0-4.082.407-5.276 1.226-1.16.801-1.893 1.697-2.131 2.77-.239 1.092.153 1.666.426 1.973l.053.053c.346.294 1.546.985 5.276 1.865 3.376.818 5.612 1.554 6.874 2.185 1.91.972 3.244 2.231 3.943 3.783.7 1.535.853 3.332.427 5.276-.427 1.893-1.392 3.638-2.825 5.275-1.415 1.637-3.216 2.933-5.382 3.837a18.196 18.196 0 0 1-6.927 1.385c-3.07 0-5.534-.464-7.46-1.385-2.013-.955-3.464-2.462-4.317-4.423-.818-1.91-.993-4.078-.533-6.448l.16-.746h6.128l-.053.746c-.153 1.416-.002 2.558.373 3.41.358.82 1.04 1.497 2.132 2.026 1.16.562 2.609.852 4.263.852 1.483 0 2.839-.25 4.05-.693 1.193-.426 2.142-.989 2.824-1.705.665-.716 1.055-1.473 1.225-2.291.17-.733.13-1.354-.16-1.865-.323-.546-.965-1.03-1.971-1.439l-5.222-1.545c-2.916-.734-4.88-1.433-6.022-2.132-1.552-.92-2.67-2.102-3.25-3.517-.58-1.398-.642-2.948-.267-4.636.392-1.808 1.264-3.528 2.611-5.062 1.364-1.552 3.125-2.77 5.222-3.57a18.345 18.345 0 0 1 5.862-1.173zm55.952.107c.337-.027.654 0 1.012 0l3.837.426 1.279.106-1.865 4.743-.373.746-2.931-.266c-.866 0-1.501.133-1.918.426-.028.02-.081.084-.107.107-.056.049-.15.134-.213.213-.257.336-.57.938-.8 2.025 0 0-.11.46-.213.852h4.583l-1.172 5.276h-4.476l-4.53 20.303h-6.181s4.018-18.035 4.53-20.303h-3.571l1.172-5.276h3.517c.17-.733.426-1.652.426-1.652.376-1.705.768-2.93 1.28-3.783a8.044 8.044 0 0 1 2.93-2.878c1.026-.595 2.322-.952 3.784-1.065zm14.76.266l-2.024 9.112h3.996l-1.172 5.276h-3.997c-.324 1.466-2.877 12.842-2.877 12.842s-.213 1.367-.213 1.759c0 .013-.002.043 0 .053 0 .004-.002.05 0 .053.001.003.05-.002.053 0l.64.054 2.93-.213-.32 4.742.054.853-4.21.48c-1.671 0-2.897-.273-3.784-.853-.937-.614-1.483-1.428-1.705-2.452-.034-.187-.106-.46-.106-.852 0-.767.145-2.066.64-4.316 0 0 2.24-10.036 2.717-12.15h-2.931l1.172-5.276h2.931c.273-1.227 1.226-5.435 1.226-5.435l4.956-2.611 2.025-1.066zm-196.366.213h23.98l-1.333 5.968H74.883c-.273 1.211-1.366 6.114-1.758 7.887h15.187l-1.332 5.968H71.793c-.324 1.484-3.251 14.655-3.251 14.655h-6.448l7.674-34.478zm32.132 8.42c.241-.03.504 0 .746 0 1.535 0 2.953.467 4.317 1.438l.852.587-3.304 5.435-.905-.64a3.895 3.895 0 0 0-2.132-.639c-.648 0-1.251.23-1.865.64a4.709 4.709 0 0 0-1.599 1.758c-.716 1.313-1.24 2.784-1.598 4.37l-2.878 13.109h-6.181l5.702-25.579h5.755s-.199.776-.267 1.066c.273-.205.56-.486.8-.64.825-.492 1.698-.8 2.557-.905zm18.331 0c.373-.028.74 0 1.12 0 3.478 0 6.11 1.219 7.833 3.623 1.074 1.552 1.652 3.47 1.652 5.755 0 1.262-.156 2.62-.48 4.104l-.48 1.865h-17.371c-.034.358-.054.741-.054 1.065 0 1.33.273 2.377.853 3.144.276.376.595.713.96.96.686.448 1.573.692 2.61.692 1.262 0 2.37-.347 3.41-1.012.99-.631 1.936-1.64 2.772-3.037h6.607l-.586 1.278c-1.262 2.558-3.022 4.553-5.222 5.969-2.2 1.415-4.828 2.184-7.727 2.184-3.768 0-6.573-1.219-8.313-3.623-1.722-2.353-2.093-5.606-1.172-9.699.92-4.16 2.758-7.485 5.435-9.805 2.4-2.08 5.123-3.234 8.153-3.463zm27.764 0c.372-.028.738 0 1.119 0 3.478 0 6.11 1.219 7.833 3.623 1.074 1.552 1.652 3.47 1.652 5.755 0 1.245-.156 2.584-.48 4.05l-.48 1.919h-17.371c-.017.238-.036.454-.053.692-.013.09.005.226 0 .32v.053c0 .256.036.508.053.747.085.971.339 1.784.8 2.397.087.12.17.267.266.373.78.836 1.886 1.28 3.303 1.28a6.112 6.112 0 0 0 3.41-1.013c.99-.631 1.936-1.64 2.772-3.037h6.66l-.639 1.278c-1.261 2.558-3.022 4.553-5.222 5.969-2.2 1.415-4.828 2.184-7.727 2.184-3.768 0-6.573-1.219-8.313-3.623-1.125-1.535-1.651-3.49-1.651-5.808 0-.359.019-.744.053-1.12.068-.886.204-1.782.426-2.77.921-4.144 2.705-7.486 5.382-9.806 2.4-2.08 5.176-3.234 8.207-3.463zm75.616 0c.38-.03.73 0 1.119 0 3.546 0 6.273 1.2 8.046 3.57 1.757 2.37 2.183 5.568 1.279 9.592-.7 3.138-1.71 5.672-3.09 7.514-1.382 1.841-3.143 3.346-5.223 4.37-2.063 1.022-4.248 1.544-6.448 1.544-3.615 0-6.307-1.236-8.046-3.623-1.126-1.518-1.706-3.472-1.706-5.808 0-1.262.139-2.603.48-4.104 1.023-4.57 3.112-8.05 6.181-10.284 2.254-1.627 4.742-2.566 7.408-2.771zm93.627 0c.45-.028.866 0 1.332 0 2.149 0 3.837.217 5.116.746 1.364.545 2.332 1.317 2.877 2.238.529.87.8 1.937.8 3.25l-.64 3.89-1.172 5.276c-1.006 4.502-1.228 6.19-1.28 6.82-.05.854.029 1.685.267 2.452l.427 1.386h-6.288l-.267-.8c-.102-.375-.072-.852-.106-1.279-1.194.734-2.39 1.384-3.464 1.759-1.586.546-3.231.852-4.903.852-2.898 0-5.045-.754-6.34-2.238-.99-1.09-1.44-2.425-1.44-3.943 0-.58.077-1.18.213-1.812.29-1.296.817-2.496 1.652-3.57.819-1.057 1.787-1.927 2.878-2.558 1.057-.63 2.236-1.078 3.464-1.385l3.783-.64c2.916-.34 5.092-.765 6.661-1.225.034-.171.107-.373.107-.373.247-1.098.216-1.922-.054-2.345-.02-.027-.084-.083-.106-.107-.058-.061-.146-.158-.213-.213-.642-.507-1.735-.746-3.198-.746-1.654 0-2.877.27-3.73.8-.835.528-1.609 1.496-2.291 2.877h-6.448l.586-1.279c.768-1.773 1.682-3.244 2.824-4.37 1.143-1.125 2.686-1.997 4.477-2.61a17.746 17.746 0 0 1 4.476-.853zm27.017 0c.24-.03.504 0 .746 0 1.552 0 3.005.467 4.37 1.438l.799.587-3.304 5.435-.906-.64c-.665-.426-1.345-.639-2.078-.639-.648 0-1.287.23-1.918.64-.648.426-1.12.99-1.546 1.758a17.498 17.498 0 0 0-1.598 4.37l-2.931 13.109h-6.182l5.702-25.579h5.755s-.145.776-.213 1.066c.273-.205.544-.486.8-.64.812-.492 1.645-.8 2.504-.905zm18.278 0c.372-.028.738 0 1.119 0 3.479 0 6.128 1.219 7.833 3.623 1.092 1.552 1.652 3.47 1.652 5.755 0 1.262-.209 2.62-.533 4.104l-.426 1.865h-17.372c-.034.358-.107.741-.107 1.065 0 1.33.29 2.377.853 3.144.088.12.223.267.32.373.056.06.154.158.213.214.762.693 1.8 1.065 3.09 1.065 1.263 0 2.37-.347 3.411-1.012.99-.631 1.918-1.64 2.771-3.037h6.661l-.64 1.278c-1.261 2.558-3.039 4.553-5.222 5.969-2.216 1.415-4.81 2.184-7.726 2.184-3.769 0-6.52-1.219-8.26-3.623-1.722-2.353-2.13-5.606-1.226-9.699.921-4.16 2.705-7.485 5.382-9.805 2.415-2.08 5.179-3.234 8.207-3.463zm-93.308.48h6.342s.782 15.178.799 15.4c.256-.544.454-1.001.48-1.066l6.98-14.335h5.809s.532 14.996.532 15.08c.171-.306 7.94-15.08 7.94-15.08h6.288l-13.855 25.579h-5.701s-.552-13.87-.587-14.655c-2.353 4.826-7.14 14.655-7.14 14.655h-5.862l-2.025-25.579zm-148.887 4.849c-1.469.062-2.803.591-4.05 1.598-.989.785-1.656 1.861-2.185 3.038h10.498c.017-.188.053-.416.053-.587 0-.972-.172-1.726-.48-2.238-.75-1.227-1.862-1.811-3.516-1.811-.1 0-.222-.005-.32 0zm27.763 0c-1.469.062-2.803.591-4.05 1.598-.989.785-1.639 1.861-2.185 3.038h10.498c.017-.188.054-.416.054-.587 0-.972-.156-1.726-.48-2.238a4.288 4.288 0 0 0-.533-.692c-.712-.736-1.692-1.12-2.984-1.12-.1 0-.222-.004-.32 0zm214.752 0c-1.511.046-2.922.557-4.21 1.598-.972.785-1.64 1.861-2.185 3.038h10.444c.017-.188.054-.416.054-.587 0-.972-.156-1.726-.48-2.238-.733-1.21-1.863-1.794-3.517-1.811-.049 0-.058-.002-.106 0zm-139.615.106c-1.41.167-2.72.81-3.944 1.918-1.466 1.33-2.53 3.42-3.144 6.182-.256 1.16-.373 2.15-.373 3.037 0 1.211.233 2.162.693 2.878.123.184.285.378.426.533.758.805 1.817 1.225 3.144 1.225 1.723 0 3.24-.641 4.69-1.971 1.466-1.347 2.513-3.458 3.144-6.288.58-2.592.498-4.528-.32-5.755-.785-1.194-1.931-1.759-3.517-1.759-.27 0-.538-.03-.8 0zm96.291 9.326c-1.45.392-3.073.722-5.222 1.012-1.603.239-2.745.49-3.41.746-.58.239-1.047.57-1.44 1.013-.374.426-.626.873-.745 1.385a3.74 3.74 0 0 0-.054.586v.053c.002.041-.004.121 0 .16.011.078.033.195.054.267.007.024.044.083.053.106.019.046.03.116.053.16.025.043.078.119.107.16.045.061.105.156.16.213.426.478 1.277.693 2.504.693 1.347 0 2.643-.256 3.837-.853a7.46 7.46 0 0 0 2.824-2.45c.512-.717.921-1.82 1.28-3.251z" fill="#bd0000" fill-rule="evenodd"/><path d="M363.027 236.037h-.051c1.654.017 2.745.58 3.478 1.79.324.512.495 1.28.495 2.252 0 .17-.034.392-.051.58h.068c0-.188.034-.41.034-.58 0-.972-.153-1.74-.477-2.251-.734-1.228-1.842-1.79-3.496-1.79z" fill="#bd0000" fill-rule="evenodd"/><path d="M15.988 376.958h12.72l5.713-23.873H55.09l2.66-10.231H36.996l3.445-15.347h22.082l2.66-11.937H30.313l-14.324 61.388zM73.045 376.958l3.82-16.029c2.012-8.68 6.258-16.37 14.29-16.37.715 0 1.414.358 1.943.443l3.104-12.294c-.717 0-1.501-.085-2.388-.085-5.917 0-10.879 4.16-14.187 10.129h-.341c.494-2.916.92-5.679 1.245-8.424H69.566c-.63 3.547-1.603 10.487-3.086 16.745l-6.242 25.885h12.807zM129.624 365.448c-3.53 1.722-7.554 1.279-12.243 1.279-3.7 0-6.566-.648-8.134-1.91-.819-1.381-1.16-3.53-1.092-4.91 17.274.46 28.17-3.53 28.716-14.444.41-8.236-5.61-12.84-14.358-12.84-15.62 0-25.85 13.778-26.516 27.044-.58 11.579 5.423 17.291 17.803 17.291 4.757 0 11.066-.545 16.233-2.097l-.409-9.413zm-4.672-19.985c-.205 4.058-5.218 4.297-15.091 4.212 1.074-3.564 4.689-6.821 10.606-6.821 2.916 0 4.587 1.108 4.485 2.609zM174.83 365.448c-3.53 1.722-7.555 1.279-12.227 1.279-3.717 0-6.565-.648-8.134-1.91-.818-1.381-1.176-3.53-1.108-4.91 17.29.46 28.17-3.53 28.733-14.444.409-8.236-5.61-12.84-14.358-12.84-15.637 0-25.868 13.778-26.534 27.044-.562 11.579 5.44 17.291 17.803 17.291 4.775 0 11.084-.545 16.25-2.097l-.426-9.413zm-4.656-19.985c-.204 4.058-5.218 4.297-15.108 4.212 1.091-3.564 4.69-6.821 10.606-6.821 2.916 0 4.605 1.108 4.502 2.609zM240.651 376.958c.102-5.405 1.398-13.897 2.745-19.473l5.474-23.157c-3.478-1.177-8.901-1.705-14.119-1.705-21.179 0-31.683 15.688-32.416 30.387-.46 9.225 4.536 13.948 12.311 13.948 5.03 0 10.71-2.438 15.126-9.77h.187c-.34 3.53-.75 6.957-.972 9.77h11.664zm-8.748-24.35c-2.49 10.845-7.571 14.119-11.357 14.119-3.53 0-5.064-2.507-4.86-6.156.41-8.236 6.924-17.717 15.143-17.717 1.33 0 2.37-.239 3.342-.478l-2.268 10.232zM248.99 374.946c2.455 1.91 7.605 1.927 12.976 2.012 11.476.086 20.139-4.928 20.65-14.136.29-6.139-4.467-9.77-9.122-12.21-3.36-1.62-5.048-3.171-4.963-4.979.12-2.438 2.405-2.78 5.764-2.78 3.786 0 6.821.461 8.56.802l3.445-9.242c-1.961-1.177-5.883-1.79-10.914-1.79-11.135 0-19.286 5.883-19.746 14.818-.273 5.525 3.7 9.242 8.509 11.766 3.888 1.995 5.218 3.53 5.116 5.695-.12 2.183-2.064 1.825-5.593 1.825-4.144 0-8.731-.546-11.153-.92l-3.53 9.14zM317.028 376.958l10.316-42.63H314.71l-10.385 42.63h12.704zm5.917-47.746c4.331 0 8.185-3.58 8.424-9.72.204-4.16-2.49-5.627-6.463-5.627-4.144 0-7.93 2.694-8.151 6.719-.205 4.058 2.49 8.628 6.19 8.628zM341.413 376.958l4.501-19.2c2.336-9.771 7.367-13.199 11.51-13.199 3.275 0 4.23 1.398 4.076 3.428a30.477 30.477 0 0 1-.682 4.894l-5.73 24.077h12.721l6.037-25.254c.46-2.183.972-5.44 1.074-7.418.375-7.69-3.461-10.487-10.521-10.487-5.661 0-11.17 2.626-15.518 8.322h-.17l1.16-7.793h-11.22c-.734 3.649-1.672 8.065-3.002 13.215l-6.957 29.415h12.72zM396.15 376.958h12.721l5.73-23.873h20.65l2.66-10.231H417.16l3.444-15.347h22.083l2.66-11.937h-34.872l-14.324 61.388zM453.207 376.958l3.82-16.029c2.012-8.68 6.258-16.37 14.29-16.37.716 0 1.415.358 1.943.443l3.104-12.294c-.716 0-1.5-.085-2.388-.085-5.917 0-10.879 4.16-14.187 10.129h-.341c.495-2.916.92-5.679 1.245-8.424h-10.965c-.614 3.547-1.603 10.487-3.086 16.745l-6.241 25.885h12.806zM509.786 365.448c-3.53 1.722-7.554 1.279-12.243 1.279-3.7 0-6.565-.648-8.134-1.91-.819-1.381-1.16-3.53-1.092-4.91 17.274.46 28.17-3.53 28.716-14.444.41-8.236-5.61-12.84-14.358-12.84-15.62 0-25.85 13.778-26.516 27.044-.58 11.579 5.44 17.291 17.803 17.291 4.757 0 11.084-.545 16.233-2.097l-.409-9.413zm-4.672-19.985c-.205 4.058-5.218 4.297-15.091 4.212 1.074-3.564 4.69-6.821 10.606-6.821 2.916 0 4.587 1.108 4.485 2.609zM554.992 365.448c-3.53 1.722-7.555 1.279-12.227 1.279-3.717 0-6.565-.648-8.134-1.91-.818-1.381-1.176-3.53-1.108-4.91 17.29.46 28.17-3.53 28.733-14.444.41-8.236-5.61-12.84-14.358-12.84-15.637 0-25.868 13.778-26.533 27.044-.563 11.579 5.44 17.291 17.802 17.291 4.775 0 11.084-.545 16.25-2.097l-.425-9.413zm-4.656-19.985c-.204 4.058-5.218 4.297-15.108 4.212 1.091-3.564 4.69-6.821 10.607-6.821 2.915 0 4.604 1.108 4.501 2.609zM605.534 313.865l-4.791 19.371c-1.74-.716-4.008-.613-5.781-.613-16.336 0-27.897 13.982-28.665 29.125-.511 10.674 5.184 15.21 12.517 15.21 5.132 0 10.538-2.268 14.63-8.134h.17l-.971 8.134h11.561c.529-5.115 1.637-11.203 2.882-16.762l11.067-46.33h-12.619zm-9.958 41.642c-1.995 8.406-6.702 11.22-10.419 11.22-3.7 0-5.764-2.575-5.508-7.162.426-8.492 6.258-16.711 13.847-16.711 2.131 0 3.956.324 4.962.801l-2.882 11.852zM634.54 376.958c14.836 0 26.278-11.237 27.08-26.533.494-10.129-5.816-17.802-17.462-17.802-15.381 0-26.414 12.448-27.182 27.488-.528 10.947 6.531 16.847 17.564 16.847zm1.995-10.231c-4.331 0-6.718-2.762-6.463-6.89.342-6.871 4.588-16.983 11.903-16.983 5.047 0 6.6 3.87 6.395 7.673-.376 7.503-4.946 16.2-11.835 16.2zM677.427 376.958l4.604-19.473c1.927-8.68 6.735-14.631 11.05-14.631 3.103 0 3.956 2.268 3.802 5.235-.085 1.535-.426 3.257-.784 4.962l-5.696 23.907h12.278l4.604-19.559c2.114-8.952 6.65-14.545 10.88-14.545 2.915 0 4.126 2.08 3.99 5.047-.086 1.723-.444 3.615-.887 5.338l-5.525 23.72h12.363l5.951-25.255c.46-2.268.989-5.798 1.074-7.605.375-7.503-3.29-11.476-9.907-11.476-5.661 0-11.17 2.557-15.347 7.946-.154-3.888-2.933-7.946-9.822-7.946-5.576 0-10.896 2.523-15.16 8.236h-.17l1.142-6.531H674.92c-.716 3.649-1.586 8.065-2.916 13.215l-6.855 29.415h12.278z" fill="#bd0000" fill-rule="evenodd" stroke-width="1pt"/><path d="M406.503 262.546c.692 1.78 1.384 3.556 2.105 5.294 1.11 2.36 2.394 4.62 3.937 6.73 8.336 11.331 22.296 17.535 40.02 19.08h19.065c6.028-.47 12.345-1.347 18.892-2.628 11.292-2.208 23.261-5.6 35.693-10.132 9.417-3.434 19.094-7.497 28.915-12.218 21.386-10.252 43.48-23.475 65.155-39.433a432.47 432.47 0 0 0 20.565-16.117 409.503 409.503 0 0 0 17.335-15.26c15.416-14.856 27.054-29.945 33.645-43.194 6.864-13.797 8.234-25.594 2.61-33.025-3.447-4.561-9.215-7.006-16.642-7.581 33.457-25.105 52.955-55.559 45.96-74.76-2.22-6.127-7.11-10.698-14.118-13.226-3.115-1.12-6.62-1.83-10.441-2.154h-10.297c-14.378 1.037-35.286 6.186-53.025 14.879" fill="none" stroke="#bd0000" stroke-width="8.526"/></svg>