<svg xmlns="http://www.w3.org/2000/svg" width="1792" height="1792" viewBox="0 0 1792 1792"><path fill="#6480A7" d="M640 1518.5c-12.618 0-23.29-4.538-32.625-13.874-9.337-9.336-13.875-20.008-13.875-32.626v-128c0-12.617 4.538-23.29 13.875-32.626 9.336-9.336 20.008-13.874 32.625-13.874h81.5v-419H640c-12.618 0-23.29-4.538-32.625-13.874C598.038 855.29 593.5 844.618 593.5 832V704c0-12.618 4.538-23.29 13.875-32.625 9.336-9.336 20.008-13.875 32.625-13.875h384c12.617 0 23.289 4.539 32.626 13.875 9.336 9.336 13.874 20.008 13.874 32.625v593.5h81.5c12.617 0 23.289 4.538 32.626 13.875 9.336 9.336 13.874 20.008 13.874 32.625v128c0 12.617-4.538 23.29-13.874 32.626S1164.617 1518.5 1152 1518.5H640zm128-1088c-12.618 0-23.29-4.538-32.625-13.874C726.038 407.29 721.5 396.618 721.5 384V192c0-12.618 4.538-23.29 13.875-32.625 9.336-9.336 20.008-13.875 32.625-13.875h256c12.617 0 23.289 4.539 32.626 13.875 9.336 9.336 13.874 20.008 13.874 32.625v192c0 12.618-4.538 23.29-13.874 32.625-9.336 9.336-20.009 13.875-32.626 13.875H768z"/><path fill="#F29800" d="M1024 163c8.062 0 14.119 2.617 20.25 8.748 6.133 6.134 8.75 12.19 8.75 20.252v192c0 8.062-2.616 14.119-8.749 20.251-6.132 6.132-12.188 8.749-20.251 8.749H768c-8.063 0-14.119-2.616-20.252-8.75C741.616 398.119 739 392.063 739 384V192c0-8.062 2.616-14.119 8.749-20.251S759.938 163 768 163h256m0 512c8.062 0 14.119 2.617 20.25 8.748 6.133 6.134 8.75 12.19 8.75 20.252v611h99c8.062 0 14.119 2.617 20.25 8.748 6.133 6.133 8.75 12.189 8.75 20.252v128c0 8.062-2.616 14.119-8.749 20.251-6.132 6.133-12.188 8.749-20.251 8.749H640c-8.063 0-14.119-2.616-20.252-8.75-6.131-6.131-8.748-12.187-8.748-20.25v-128c0-8.062 2.616-14.119 8.749-20.251 6.132-6.133 12.189-8.749 20.251-8.749h99V861h-99c-8.063 0-14.119-2.616-20.252-8.75C613.616 846.119 611 840.063 611 832V704c0-8.062 2.616-14.119 8.749-20.251S631.938 675 640 675h384m0-547H768c-17.334 0-32.334 6.334-45 19-12.667 12.667-19 27.667-19 45v192c0 17.334 6.333 32.334 19 45 12.666 12.667 27.666 19 45 19h256c17.333 0 32.333-6.333 45-19 12.666-12.666 19-27.666 19-45V192c0-17.333-6.334-32.333-19-45-12.667-12.666-27.667-19-45-19zm0 512H640c-17.334 0-32.334 6.334-45 19-12.667 12.667-19 27.667-19 45v128c0 17.334 6.333 32.334 19 45 12.666 12.667 27.666 19 45 19h64v384h-64c-17.334 0-32.334 6.334-45 19-12.667 12.667-19 27.667-19 45v128c0 17.334 6.333 32.334 19 45 12.666 12.667 27.666 19 45 19h512c17.333 0 32.333-6.333 45-19 12.666-12.666 19-27.666 19-45v-128c0-17.333-6.334-32.333-19-45-12.667-12.666-27.667-19-45-19h-64V704c0-17.333-6.334-32.333-19-45-12.667-12.666-27.667-19-45-19z"/></svg>