<?xml version="1.0" encoding="iso-8859-1"?>
<!-- Generator: Adobe Illustrator 16.0.0, SVG Export Plug-In . SVG Version: 6.00 Build 0)  -->
<!DOCTYPE svg PUBLIC "-//W3C//DTD SVG 1.1//EN" "http://www.w3.org/Graphics/SVG/1.1/DTD/svg11.dtd">
<svg version="1.1" id="Capa_1" xmlns="http://www.w3.org/2000/svg" xmlns:xlink="http://www.w3.org/1999/xlink" x="0px" y="0px"
	 width="33.441px" height="33.441px" viewBox="0 0 33.441 33.441" style="enable-background:new 0 0 33.441 33.441;"
	 xml:space="preserve">
<g>
	<g>
		<path d="M11.452,5.3l7.317,4.225c0.203,0.116,0.461,0.046,0.578-0.155l0.211-0.366c0.117-0.201,0.047-0.46-0.154-0.577
			l-7.318-4.225c-0.202-0.117-0.461-0.047-0.577,0.154l-0.211,0.366C11.181,4.924,11.25,5.183,11.452,5.3z"/>
		<path d="M5.115,16.277l7.318,4.226c0.202,0.116,0.461,0.047,0.577-0.154l0.211-0.365c0.117-0.201,0.048-0.461-0.154-0.577
			l-7.318-4.225c-0.202-0.117-0.461-0.047-0.577,0.154l-0.211,0.366C4.843,15.901,4.912,16.16,5.115,16.277z"/>
		<path d="M30.92,21.44l-14.646-7.591l1.969-3.41c0.116-0.201,0.047-0.461-0.153-0.577l-6.588-3.803
			c-0.201-0.116-0.461-0.046-0.577,0.155l-4.648,8.05c-0.115,0.201-0.046,0.461,0.155,0.577l6.587,3.802
			c0.201,0.117,0.461,0.047,0.576-0.154l1.97-3.41l13.896,8.889c0.196,0.125,0.451,0.063,0.567-0.139l1.057-1.83
			C31.2,21.8,31.126,21.548,30.92,21.44z"/>
		<path d="M33.23,22.509l-0.731-0.422c-0.2-0.117-0.461-0.047-0.577,0.154l-1.269,2.195c-0.115,0.201-0.046,0.461,0.155,0.576
			l0.731,0.422c0.201,0.117,0.46,0.048,0.577-0.154l1.268-2.195C33.501,22.884,33.432,22.624,33.23,22.509z"/>
		<path d="M17.418,25.114h-0.881c0.111-0.124,0.185-0.284,0.185-0.464v-0.696c0-0.383-0.313-0.697-0.696-0.697H2.09
			c-0.384,0-0.697,0.314-0.697,0.697v0.696c0,0.18,0.074,0.34,0.186,0.464H0.697C0.312,25.114,0,25.429,0,25.812v2.787
			c0,0.383,0.313,0.697,0.697,0.697H17.42c0.385,0,0.696-0.314,0.696-0.697V25.81C18.116,25.429,17.803,25.114,17.418,25.114z
			 M16.427,28.335H1.752c-0.403,0-0.733-0.33-0.733-0.732v-0.734c0.001-0.402,0.33-0.734,0.733-0.732h14.675
			c0.405,0,0.735,0.33,0.734,0.731l0.001,0.735C17.161,28.005,16.832,28.335,16.427,28.335z"/>
	</g>
</g>
<g>
</g>
<g>
</g>
<g>
</g>
<g>
</g>
<g>
</g>
<g>
</g>
<g>
</g>
<g>
</g>
<g>
</g>
<g>
</g>
<g>
</g>
<g>
</g>
<g>
</g>
<g>
</g>
<g>
</g>
</svg>
