<?xml version="1.0" encoding="utf-8"?>
<!-- Generator: Adobe Illustrator 16.0.0, SVG Export Plug-In . SVG Version: 6.00 Build 0)  -->
<!DOCTYPE svg PUBLIC "-//W3C//DTD SVG 1.1//EN" "http://www.w3.org/Graphics/SVG/1.1/DTD/svg11.dtd">
<svg version="1.1" id="Layer_1" xmlns="http://www.w3.org/2000/svg" xmlns:xlink="http://www.w3.org/1999/xlink" x="0px" y="0px"
	 width="1792px" height="1792px" viewBox="0 0 1792 1792" enable-background="new 0 0 1792 1792" xml:space="preserve">
<g>
	<path fill="#54B218" d="M125,1499c-13.867,0-25.249-2.279-33.83-6.775c-12.008-6.289-16.959-11.334-18.841-13.782
		c-3.861-5.019-11.116-15.531-23.843-37.19c-1.592-3.106-3.682-6.92-6.358-11.604c-2.183-3.819-3.372-5.991-3.99-7.15
		c-0.131-0.463-0.33-1.211-0.584-2.315C37.181,1418.569,37,1416.875,37,1415c0-14.568,7.678-31.49,22.819-50.295
		c18.538-23.022,39.058-42.812,60.992-58.816c25.765-18.803,49.81-38.608,71.467-58.869C221.425,1219.752,235,1195.914,235,1172
		c0-8.215-1.447-14.833-16.787-52.088c-11.262-27.348-13.526-35.518-13.897-37.03C198.798,1051.371,196,1018.78,196,986
		c0-71.424,13.688-140.678,40.683-205.839c27.122-65.466,64.685-123.733,111.646-173.182
		c47.959-50.501,102.905-95.29,163.311-133.122c60.51-37.898,126.421-68.751,195.91-91.706
		c33.758-11.042,79.692-19.043,136.523-23.779c58.908-4.909,118.474-7.896,177.047-8.877c59.802-1.002,120.277-3.035,179.748-6.042
		c61.584-3.114,119.117-11.578,171.001-25.159c55.539-14.537,99.142-36.558,129.597-65.452l0.353-0.335l29.498-29.498l27.52-26.121
		l21.837-16.175l27.386-12.004l35.426-3.665c12.478,0.739,25.418,10.776,38.487,29.862c18.359,26.809,32.514,60.391,42.07,99.812
		c10.323,42.59,18.165,83.078,23.306,120.339c5.077,36.817,7.652,67.416,7.652,90.944c0,60.557-6.478,123.002-19.253,185.602
		c-14.642,71.295-36.919,138.295-66.206,199.091c-29.172,60.557-66.161,116.745-109.94,167.005
		c-44.245,50.793-95.694,98.299-152.919,141.198c-57.519,43.118-122.51,82.812-193.168,117.98l-0.184,0.092
		c-68.518,34.579-138.73,60.858-208.688,78.108C934.879,1412.277,863.336,1421,792,1421c-94.142,0-186.352-15.148-274.071-45.024
		l-0.229-0.077c-2.912-0.971-17.5-6.716-82.972-39.901C363.449,1299.871,337.744,1295,322,1295c-31.134,0-54.475,26.881-69.322,47.1
		c-16.458,22.41-32.398,47.2-47.381,73.681c-12.718,22.479-28.489,43.499-46.872,62.476C145.467,1491.633,133.596,1499,125,1499z
		 M1216,603c-118.18,0-229.168,17.313-329.88,51.459c-100.548,34.09-191.293,80.979-269.715,139.363
		c-77.251,57.514-158.287,133.002-240.856,224.371C356.61,1039.124,347,1062.616,347,1088c0,27.037,10.318,51.646,29.838,71.164
		C396.355,1178.682,420.963,1189,448,1189c25.331,0,48.778-9.569,69.693-28.445c18.446-16.403,43.837-40.759,75.47-72.392
		c30.713-30.713,52.912-52.587,65.99-65.023C746.647,944,833.095,887.233,916.106,854.407C999.014,821.623,1099.913,805,1216,805
		c27.035,0,51.644-10.317,71.163-29.837C1306.683,755.643,1317,731.035,1317,704c0-27.034-10.317-51.642-29.836-71.162
		C1267.642,613.317,1243.034,603,1216,603z"/>
	<path fill="#387212" d="M1640.168,202.584c2.137,1.762,6.041,5.583,11.275,13.226c15.815,23.097,28.144,52.578,36.64,87.623
		c10.032,41.388,17.64,80.645,22.61,116.677c4.849,35.151,7.307,64.048,7.307,85.89c0,58.048-6.22,117.974-18.487,178.114
		c-14.039,68.362-35.338,132.463-63.306,190.521c-27.737,57.578-62.897,110.993-104.506,158.76
		c-42.538,48.834-92.067,94.556-147.213,135.896c-55.731,41.779-118.802,80.289-187.461,114.462l-0.184,0.092l-0.185,0.093
		c-66.033,33.325-133.618,58.632-200.875,75.216C928.916,1375.639,860.353,1384,792,1384c-45.096,0-90.012-3.624-133.5-10.771
		c-43.428-7.137-86.709-17.997-128.642-32.278l-0.054-0.019c-2.627-0.991-17.336-7.014-78.35-37.938
		C398.168,1275.986,355.761,1258,322,1258c-22.703,0-44.389,8.243-64.457,24.501c-11.635,9.425-22.981,21.757-34.688,37.698
		c-17.32,23.584-34.062,49.612-49.761,77.36c-11.172,19.744-25.048,38.232-41.245,54.952c-5.216,5.385-8.872,8.119-10.84,9.395
		c-8.096-0.396-11.679-1.937-12.675-2.459c-4.35-2.278-6.604-3.919-7.462-4.602c-2.956-3.983-9.005-12.843-19.981-31.479
		c-1.704-3.276-3.796-7.088-6.348-11.567c1.3-4.66,5.171-12.809,14.094-23.891c16.505-20.498,34.668-38.038,53.984-52.134
		c26.973-19.683,52.184-40.454,74.933-61.735c14.911-13.95,26.314-27.162,34.858-40.393C265.41,1213.522,272,1192.781,272,1172
		c0-16.316-4.171-28.767-19.575-66.179c-8.319-20.202-11.152-28.543-11.991-31.215C235.501,1045.785,233,1015.989,233,986
		c0-33.346,3.186-66.367,9.47-98.146c6.272-31.722,15.826-63.19,28.396-93.531c12.735-30.741,27.984-59.958,45.321-86.838
		c17.249-26.742,37.089-51.984,58.972-75.026c45.82-48.248,98.346-91.059,156.12-127.244c57.968-36.306,121.147-65.879,187.783-87.9
		c31.026-10.147,74.119-17.573,128.083-22.07c58.095-4.841,116.837-7.787,174.595-8.755c60.216-1.009,121.112-3.056,180.996-6.084
		c64.112-3.242,124.169-12.096,178.502-26.317c29.624-7.754,56.494-17.584,79.863-29.217c25.41-12.648,47.558-27.852,65.83-45.188
		l0.706-0.669l0.688-0.688l28.814-28.814l25.531-24.233l16.675-12.352l18.271-8.009L1640.168,202.584 M448,1226
		c34.235,0,66.858-13.096,94.367-37.873c19.236-17.111,44.414-41.256,76.958-73.801c30.245-30.245,52.107-51.793,65.003-64.069
		C768.4,974.271,850.95,919.961,929.712,888.815c38.766-15.329,82.175-27.042,129.021-34.812C1106.75,846.038,1159.662,842,1216,842
		c37.062,0,70.717-14.065,97.326-40.674C1339.935,774.717,1354,741.062,1354,704c0-37.059-14.064-70.713-40.677-97.328
		C1286.713,580.064,1253.06,566,1216,566c-60.864,0-120.376,4.46-176.882,13.255c-56.947,8.865-112.42,22.377-164.878,40.163
		c-51.929,17.606-101.746,38.661-148.068,62.58c-46.618,24.073-90.983,51.71-131.863,82.145
		c-79.188,58.955-162.025,136.083-246.182,229.208C323.184,1020.919,310,1053.647,310,1088c0,37.064,14.066,70.72,40.672,97.323
		C377.28,1211.934,410.936,1226,448,1226 M1642,128l-43.5,4.5l-36.5,16l-27,20l-29.5,28L1476,226c-26,24.667-63.834,43.5-113.5,56.5
		c-49.667,13-104.167,21-163.5,24c-59.334,3-118.834,5-178.5,6c-59.667,1-119.5,4-179.5,9S732.666,335,696,347
		c-72.667,24-140.667,55.834-204,95.5c-63.334,39.667-120.167,86-170.5,139c-50.334,53-90,114.5-119,184.5S159,909.334,159,986
		c0,35.334,3,70,9,104c1.333,6.667,6.666,21.334,16,44c9.333,22.667,14,35.334,14,38c0,12.667-10.334,28.667-31,48
		c-20.667,19.334-43.334,38-68,56c-24.667,18-47.334,39.834-68,65.5c-20.667,25.667-31,50.167-31,73.5c0,4.667,0.5,9.167,1.5,13.5
		c1,4.334,2,7.5,3,9.5s2.833,5.334,5.5,10c2.666,4.667,4.666,8.334,6,11c11.333,19.334,20.333,33.334,27,42
		c6.666,8.667,17,16.667,31,24c14,7.334,31,11,51,11c19.333,0,39.333-10.666,60-32c20.666-21.333,38.166-44.666,52.5-70
		c14.333-25.333,29.333-48.666,45-70c15.666-21.333,28.833-32,39.5-32c15.333,0,47.333,12.334,96,37c48.666,24.667,78,38.667,88,42
		c92,31.334,187.333,47,286,47c149.333,0,295.333-36,438-108c146-72.666,265.166-162,357.5-268
		c92.333-106,153.833-233.666,184.5-383c13.333-65.333,20-129.666,20-193c0-25.333-2.667-57.333-8-96
		c-5.334-38.666-13.334-80-24-124c-10.667-44-26.5-81.333-47.5-112C1691.5,143.334,1668,128,1642,128L1642,128z M448,1152
		c-17.334,0-32.334-6.333-45-19c-12.667-12.666-19-27.666-19-45c0-16,6.333-31,19-45c81.333-90,159.833-163.166,235.5-219.5
		c75.666-56.333,162.166-101,259.5-134c97.333-33,203.333-49.5,318-49.5c17.333,0,32.333,6.334,45,19c12.666,12.667,19,27.667,19,45
		c0,17.334-6.334,32.334-19,45c-12.667,12.667-27.667,19-45,19c-121.334,0-225.834,17.334-313.5,52
		c-87.667,34.667-177.167,93.334-268.5,176c-13.334,12.667-35.667,34.667-67,66c-31.334,31.334-56,55-74,71
		C479,1145.667,464,1152,448,1152L448,1152z"/>
</g>
</svg>
