<?xml version="1.0" encoding="UTF-8" standalone="no"?>
<!-- Generator: Adobe Illustrator 16.0.0, SVG Export Plug-In . SVG Version: 6.00 Build 0)  -->

<svg
   xmlns:dc="http://purl.org/dc/elements/1.1/"
   xmlns:cc="http://creativecommons.org/ns#"
   xmlns:rdf="http://www.w3.org/1999/02/22-rdf-syntax-ns#"
   xmlns:svg="http://www.w3.org/2000/svg"
   xmlns="http://www.w3.org/2000/svg"
   xmlns:sodipodi="http://sodipodi.sourceforge.net/DTD/sodipodi-0.dtd"
   xmlns:inkscape="http://www.inkscape.org/namespaces/inkscape"
   version="1.1"
   id="Layer_1"
   x="0px"
   y="0px"
   width="1792px"
   height="1792px"
   viewBox="0 0 1792 1792"
   enable-background="new 0 0 1792 1792"
   xml:space="preserve"
   sodipodi:docname="leaf.svg"
   inkscape:version="0.92.3 (2405546, 2018-03-11)"><metadata
   id="metadata13"><rdf:RDF><cc:Work
       rdf:about=""><dc:format>image/svg+xml</dc:format><dc:type
         rdf:resource="http://purl.org/dc/dcmitype/StillImage" /></cc:Work></rdf:RDF></metadata><defs
   id="defs11">
	
	
</defs><sodipodi:namedview
   pagecolor="#ffffff"
   bordercolor="#666666"
   borderopacity="1"
   objecttolerance="10"
   gridtolerance="10"
   guidetolerance="10"
   inkscape:pageopacity="0"
   inkscape:pageshadow="2"
   inkscape:window-width="2400"
   inkscape:window-height="1271"
   id="namedview9"
   showgrid="false"
   inkscape:zoom="0.13169643"
   inkscape:cx="-30.372881"
   inkscape:cy="896"
   inkscape:window-x="2551"
   inkscape:window-y="-9"
   inkscape:window-maximized="1"
   inkscape:current-layer="Layer_1" />
<path
   style="fill:#54b218"
   inkscape:connector-curvature="0"
   id="path2"
   d="m 124.9995,1562.978 c -13.867,0 -25.249,-2.279 -33.83,-6.775 -12.008,-6.289 -16.959,-11.334 -18.841,-13.782 -3.861,-5.019 -11.116,-15.531 -23.843,-37.19 -1.592,-3.106 -3.682,-6.92 -6.358,-11.604 -2.183,-3.819 -3.372,-5.991 -3.99,-7.15 -0.131,-0.463 -0.33,-1.211 -0.584,-2.315 -0.373,-1.615 -0.554,-3.309 -0.554,-5.184 0,-14.568 7.678,-31.49 22.819,-50.295 18.538,-23.022 39.058,-42.812 60.992,-58.816 25.765,-18.803 49.81,-38.608 71.467,-58.869 29.147,-27.268 42.722,-51.106 42.722,-75.02 0,-8.215 -1.447,-14.833 -16.787,-52.088 -11.262,-27.348 -13.526,-35.518 -13.897,-37.03 -5.518,-31.511 -8.316,-64.102 -8.316,-96.882 0,-71.424 13.688,-140.678 40.683,-205.839 27.122,-65.466 64.685,-123.733 111.646,-173.182 47.959,-50.501 102.905,-95.29 163.311,-133.122 60.51,-37.898 126.421,-68.751 195.91,-91.706 33.758,-11.042 79.692,-19.043 136.523,-23.779 58.908,-4.909 118.474,-7.896 177.047,-8.877 59.802,-1.002 120.277,-3.035 179.748,-6.042 61.584,-3.114 119.117,-11.578 171.001,-25.159 55.539,-14.537 99.142,-36.558 129.597,-65.452 l 0.353,-0.335 29.498,-29.498 27.52,-26.121 21.837,-16.175 27.386,-12.004 35.426,-3.665 c 12.478,0.739 25.418,10.776 38.487,29.862 18.359,26.809 32.514,60.391 42.07,99.812 10.323,42.59 18.165,83.078 23.306,120.339 5.077,36.817 7.652,67.416 7.652,90.944 0,60.557 -6.478,123.002 -19.253,185.602 -14.642,71.295 -36.919,138.295 -66.206,199.091 -29.172,60.557 -66.161,116.745 -109.94,167.005 -44.245,50.793 -95.694,98.299 -152.919,141.198 -57.519,43.118 -122.51,82.812 -193.168,117.98 l -0.184,0.092 c -68.518,34.579 -138.73,60.858 -208.688,78.108 -69.764,17.2 -141.307,25.923 -212.643,25.923 -94.142,0 -186.352,-15.148 -274.071,-45.024 l -0.229,-0.077 c -2.912,-0.971 -17.5,-6.716 -82.972,-39.901 -71.279,-36.127 -96.984,-40.998 -112.728,-40.998 -31.134,0 -54.475,26.881 -69.322,47.1 -16.458,22.41 -32.398,47.2 -47.381,73.681 -12.718,22.479 -28.489,43.499 -46.872,62.476 -12.958,13.376 -24.829,20.743 -33.425,20.743 z m 1091,-896 c -118.18,0 -229.168,17.313 -329.88,51.459 -100.548,34.09 -191.293,80.979 -269.715,139.363 -77.251,57.514 -158.287,133.002 -240.856,224.371 -18.939,20.931 -28.549,44.423 -28.549,69.807 0,27.037 10.318,51.646 29.838,71.164 19.517,19.518 44.125,29.836 71.162,29.836 25.331,0 48.778,-9.569 69.693,-28.445 18.446,-16.403 43.837,-40.759 75.47,-72.392 30.713,-30.713 52.912,-52.587 65.99,-65.023 87.494,-79.14 173.942,-135.907 256.953,-168.733 82.908,-32.784 183.807,-49.407 299.894,-49.407 27.035,0 51.644,-10.317 71.163,-29.837 19.52,-19.52 29.837,-44.128 29.837,-71.163 0,-27.034 -10.317,-51.642 -29.836,-71.162 -19.522,-19.521 -44.13,-29.838 -71.164,-29.838 z" /><path
   style="fill:#54b218;fill-opacity:1"
   inkscape:connector-curvature="0"
   id="path4"
   d="m 1640.168,266.58399 c 2.137,1.762 6.041,5.583 11.275,13.226 15.815,23.097 28.144,52.578 36.64,87.623 10.032,41.388 17.64,80.645 22.61,116.677 4.849,35.151 7.307,64.048 7.307,85.89 0,58.048 -6.22,117.974 -18.487,178.114 -14.039,68.36203 -35.338,132.46303 -63.306,190.52103 -27.737,57.578 -62.897,110.99298 -104.506,158.75998 -42.538,48.834 -92.067,94.556 -147.213,135.896 -55.731,41.779 -118.802,80.289 -187.461,114.462 l -0.184,0.092 -0.185,0.093 c -66.033,33.325 -133.618,58.632 -200.87502,75.216 C 928.91598,1439.639 860.35298,1448 792,1448 c -45.096,0 -90.012,-3.624 -133.5,-10.771 -43.428,-7.137 -86.709,-17.997 -128.642,-32.278 l -0.054,-0.019 c -2.627,-0.991 -17.336,-7.014 -78.35,-37.938 C 398.168,1339.986 355.761,1322 322,1322 c -22.703,0 -44.389,8.243 -64.457,24.501 -11.635,9.425 -22.981,21.757 -34.688,37.698 -17.32,23.584 -34.062,49.612 -49.761,77.36 -11.172,19.744 -25.048,38.232 -41.245,54.952 -5.216,5.385 -8.872,8.119 -10.84,9.395 -8.096,-0.396 -11.679,-1.937 -12.675,-2.459 -4.35,-2.278 -6.604,-3.919 -7.462,-4.602 -2.955995,-3.983 -9.004995,-12.843 -19.980995,-31.479 -1.704,-3.276 -3.796,-7.088 -6.348,-11.567 1.3,-4.66 5.171,-12.809 14.094,-23.891 C 105.142,1431.41 123.305,1413.87 142.621,1399.774 c 26.973,-19.683 52.184,-40.454 74.933,-61.735 14.911,-13.95 26.314,-27.162 34.858,-40.393 C 265.41,1277.522 272,1256.781 272,1236 c 0,-16.316 -4.171,-28.767 -19.575,-66.179 -8.319,-20.202 -11.152,-28.543 -11.991,-31.215 C 235.501,1109.785 233,1079.989 233,1050 c 0,-33.346 3.186,-66.36698 9.47,-98.14598 6.272,-31.722 15.826,-63.19 28.396,-93.531 12.735,-30.741 27.984,-59.95803 45.321,-86.83803 17.249,-26.742 37.089,-51.984 58.972,-75.026 45.82,-48.248 98.346,-91.059 156.12,-127.244 57.968,-36.306 121.147,-65.879 187.783,-87.9 31.026,-10.147 74.119,-17.573 128.08298,-22.07 58.095,-4.841 116.837,-7.787 174.59502,-8.755 60.216,-1.009 121.112,-3.056 180.996,-6.084 64.112,-3.242 124.169,-12.096 178.502,-26.317 29.624,-7.754 56.494,-17.584 79.863,-29.217 25.41,-12.648 47.558,-27.852 65.83,-45.188 l 0.706,-0.669 0.688,-0.688 28.814,-28.814 25.531,-24.233 16.675,-12.352 18.271,-8.009 22.552,-2.335 M 448,1290 c 34.235,0 66.858,-13.096 94.367,-37.873 19.236,-17.111 44.414,-41.256 76.958,-73.801 30.245,-30.245 52.107,-51.793 65.003,-64.069 84.072,-75.986 166.62198,-130.29598 245.38398,-161.44198 38.766,-15.329 82.17502,-27.042 129.02102,-34.812 48.017,-7.96499 100.929,-12.00299 157.267,-12.00299 37.062,0 70.717,-14.065 97.326,-40.674 C 1339.935,838.71703 1354,805.062 1354,768 c 0,-37.059 -14.064,-70.713 -40.677,-97.328 C 1286.713,644.064 1253.06,630 1216,630 c -60.864,0 -120.376,4.46 -176.882,13.255 -56.94702,8.865 -112.42002,22.377 -164.87802,40.163 -51.92898,17.606 -101.74598,38.661 -148.06798,62.58 -46.618,24.073 -90.983,51.71 -131.863,82.14503 -79.188,58.955 -162.025,136.083 -246.182,229.20797 C 323.184,1084.919 310,1117.647 310,1152 c 0,37.064 14.066,70.72 40.672,97.323 C 377.28,1275.934 410.936,1290 448,1290 m 1194,-1098.00001 -43.5,4.5 -36.5,16 -27,20 -29.5,28 -29.5,29.5 c -26,24.667 -63.834,43.5 -113.5,56.5 -49.667,13 -104.167,21 -163.5,24 -59.334,3 -118.834,5 -178.5,6 -59.66702,1 -119.50002,4 -179.50002,9 -59.99998,5 -108.33398,13.5 -144.99998,25.5 -72.667,24 -140.667,55.834 -204,95.5 -63.334,39.667 -120.167,86 -170.5,139 -50.334,53 -90,114.5 -119,184.50003 -29,70.00001 -43.5,143.334 -43.5,219.99998 0,35.334 3,70 9,104 1.333,6.667 6.666,21.334 16,44 9.333,22.667 14,35.334 14,38 0,12.667 -10.334,28.667 -31,48 -20.667,19.334 -43.334,38 -67.999995,56 -24.667,18 -47.334,39.834 -68,65.5 -20.667,25.667 -30.9999995000001,50.167 -30.9999995000001,73.5 0,4.667 0.5000000000001,9.167 1.5000000000001,13.5 1,4.334 2,7.5 3,9.5 1,2 2.833,5.334 5.4999995,10 2.666,4.667 4.666,8.334 6,11 11.333,19.334 20.333,33.334 27,42 6.666,8.667 17,16.667 31,24 14,7.334 30.999995,11 50.999995,11 19.333,0 39.333,-10.666 60,-32 20.666,-21.333 38.166,-44.666 52.5,-70 14.333,-25.333 29.333,-48.666 45,-70 15.666,-21.333 28.833,-32 39.5,-32 15.333,0 47.333,12.334 96,37 48.666,24.667 78,38.667 88,42 92,31.334 187.333,47 286,47 149.33298,0 295.333,-36 438,-108 146,-72.666 265.166,-162 357.5,-268 92.333,-106 153.833,-233.66597 184.5,-383 13.333,-65.333 20,-129.666 20,-193 0,-25.333 -2.667,-57.333 -8,-96 -5.334,-38.666 -13.334,-80 -24,-124 -10.667,-44 -26.5,-81.333 -47.5,-112 -21,-30.666 -44.5,-46 -70.5,-46.00001 z M 448,1216 c -17.334,0 -32.334,-6.333 -45,-19 -12.667,-12.666 -19,-27.666 -19,-45 0,-16 6.333,-31 19,-45 81.333,-90 159.833,-163.16598 235.5,-219.49998 75.666,-56.333 162.166,-101.00003 259.49998,-134.00003 97.333,-33 203.33302,-49.5 318.00002,-49.5 17.333,0 32.333,6.334 45,19 12.666,12.667 19,27.667 19,45 0,17.334 -6.334,32.334 -19,45 -12.667,12.66703 -27.667,19.00003 -45,19.00003 -121.334,0 -225.83402,17.334 -313.50002,52 C 814.833,918.66702 725.333,977.33402 634,1060 c -13.334,12.667 -35.667,34.667 -67,66 -31.334,31.334 -56,55 -74,71 -14,12.667 -29,19 -45,19 z" />
</svg>