<svg xmlns="http://www.w3.org/2000/svg" width="1792" height="1792" viewBox="0 0 1792 1792"><path fill="#295E06" d="M658 1493.098V60.902l476 238v1432.197l-476-238.001zm640-1194.032l444-236.8v1430.667l-444 236.8V299.066zm-1248 0l444-236.8v1430.667l-444 236.8V299.066z"/><path fill="#112603" d="M708 141.803l376 188v1320.393l-376-188V141.803m984 3.797v1317.332l-344 183.467V329.067L1692 145.6m-1248 0v1317.332l-344 183.467V329.067L444 145.6M1760 0c-5.334 0-10.334 1.334-15 4l-480 256c-11.334 5.334-17 14.667-17 28v1472c0 8.667 3.166 16.167 9.5 22.5 6.333 6.334 13.833 9.5 22.5 9.5 5.333 0 10.333-1.333 15-4l480-256c11.333-5.333 17-14.666 17-28V32c0-8.666-3.167-16.166-9.5-22.5-6.334-6.333-13.834-9.5-22.5-9.5zM640 0c-8.667 0-16.167 3.167-22.5 9.5-6.334 6.334-9.5 13.834-9.5 22.5v1472c0 12.667 6 22.334 18 29l512 256c4 2 8.666 3 14 3 8.666 0 16.166-3.166 22.5-9.5 6.333-6.333 9.5-13.833 9.5-22.5V288c0-12.666-6-22.333-18-29L654 3c-4-2-8.667-3-14-3zM512 0c-5.334 0-10.334 1.334-15 4L17 260c-11.334 5.334-17 14.667-17 28v1472c0 8.667 3.166 16.167 9.5 22.5 6.333 6.334 13.833 9.5 22.5 9.5 5.333 0 10.333-1.333 15-4l480-256c11.333-5.333 17-14.666 17-28V32c0-8.666-3.167-16.166-9.5-22.5C528.166 3.167 520.666 0 512 0z"/></svg>