<?xml version="1.0" encoding="UTF-8" standalone="no"?>
<svg
   xmlns:dc="http://purl.org/dc/elements/1.1/"
   xmlns:cc="http://creativecommons.org/ns#"
   xmlns:rdf="http://www.w3.org/1999/02/22-rdf-syntax-ns#"
   xmlns:svg="http://www.w3.org/2000/svg"
   xmlns="http://www.w3.org/2000/svg"
   xmlns:sodipodi="http://sodipodi.sourceforge.net/DTD/sodipodi-0.dtd"
   xmlns:inkscape="http://www.inkscape.org/namespaces/inkscape"
   width="1792"
   height="1792"
   viewBox="0 0 1792 1792"
   version="1.1"
   id="svg6"
   sodipodi:docname="map.svg"
   inkscape:version="0.92.3 (2405546, 2018-03-11)">
  <metadata
     id="metadata12">
    <rdf:RDF>
      <cc:Work
         rdf:about="">
        <dc:format>image/svg+xml</dc:format>
        <dc:type
           rdf:resource="http://purl.org/dc/dcmitype/StillImage" />
      </cc:Work>
    </rdf:RDF>
  </metadata>
  <defs
     id="defs10" />
  <sodipodi:namedview
     pagecolor="#ffffff"
     bordercolor="#666666"
     borderopacity="1"
     objecttolerance="10"
     gridtolerance="10"
     guidetolerance="10"
     inkscape:pageopacity="0"
     inkscape:pageshadow="2"
     inkscape:window-width="2400"
     inkscape:window-height="1271"
     id="namedview8"
     showgrid="false"
     inkscape:zoom="0.37249375"
     inkscape:cx="758.87961"
     inkscape:cy="785.25513"
     inkscape:window-x="2551"
     inkscape:window-y="-9"
     inkscape:window-maximized="1"
     inkscape:current-layer="svg6" />
  <g
     id="g818">
    <path
       style="fill:#295e06"
       inkscape:connector-curvature="0"
       id="path2"
       d="M 658,1493.0975 V 60.9015 l 476,238 v 1432.197 z m 640,-1194.032 444,-236.8 v 1430.667 l -444,236.8 z m -1248,0 444,-236.8 v 1430.667 l -444,236.8 z" />
    <path
       fill="#112603"
       style="fill:#295e06;fill-opacity:1"
       id="path4"
       d="M708 141.803l376 188v1320.393l-376-188V141.803m984 3.797v1317.332l-344 183.467V329.067L1692 145.6m-1248 0v1317.332l-344 183.467V329.067L444 145.6M1760 0c-5.334 0-10.334 1.334-15 4l-480 256c-11.334 5.334-17 14.667-17 28v1472c0 8.667 3.166 16.167 9.5 22.5 6.333 6.334 13.833 9.5 22.5 9.5 5.333 0 10.333-1.333 15-4l480-256c11.333-5.333 17-14.666 17-28V32c0-8.666-3.167-16.166-9.5-22.5-6.334-6.333-13.834-9.5-22.5-9.5zM640 0c-8.667 0-16.167 3.167-22.5 9.5-6.334 6.334-9.5 13.834-9.5 22.5v1472c0 12.667 6 22.334 18 29l512 256c4 2 8.666 3 14 3 8.666 0 16.166-3.166 22.5-9.5 6.333-6.333 9.5-13.833 9.5-22.5V288c0-12.666-6-22.333-18-29L654 3c-4-2-8.667-3-14-3zM512 0c-5.334 0-10.334 1.334-15 4L17 260c-11.334 5.334-17 14.667-17 28v1472c0 8.667 3.166 16.167 9.5 22.5 6.333 6.334 13.833 9.5 22.5 9.5 5.333 0 10.333-1.333 15-4l480-256c11.333-5.333 17-14.666 17-28V32c0-8.666-3.167-16.166-9.5-22.5C528.166 3.167 520.666 0 512 0z" />
  </g>
</svg>
