<?xml version="1.0" encoding="utf-8"?>
<!-- Generator: Adobe Illustrator 16.0.0, SVG Export Plug-In . SVG Version: 6.00 Build 0)  -->
<!DOCTYPE svg PUBLIC "-//W3C//DTD SVG 1.1//EN" "http://www.w3.org/Graphics/SVG/1.1/DTD/svg11.dtd">
<svg version="1.1" id="Layer_1" xmlns="http://www.w3.org/2000/svg" xmlns:xlink="http://www.w3.org/1999/xlink" x="0px" y="0px"
	 width="1792px" height="1792px" viewBox="0 0 1792 1792" enable-background="new 0 0 1792 1792" xml:space="preserve">
<g>
	<path fill="#295E06" d="M658,1493.098V60.902l476,238v1432.197L658,1493.098z M1298,299.066l444-236.8v1430.667l-444,236.8V299.066
		z M50,299.066l444-236.8v1430.667l-444,236.8V299.066z"/>
	<path fill="#112603" d="M708,141.803l376,188v1320.393l-376-188V141.803 M1692,145.6v1317.332l-344,183.467V329.067L1692,145.6
		 M444,145.6v1317.332l-344,183.467V329.067L444,145.6 M1760,0c-5.334,0-10.334,1.334-15,4l-480,256c-11.334,5.334-17,14.667-17,28
		v1472c0,8.667,3.166,16.167,9.5,22.5c6.333,6.334,13.833,9.5,22.5,9.5c5.333,0,10.333-1.333,15-4l480-256
		c11.333-5.333,17-14.666,17-28V32c0-8.666-3.167-16.166-9.5-22.5C1776.166,3.167,1768.666,0,1760,0L1760,0z M640,0
		c-8.667,0-16.167,3.167-22.5,9.5c-6.334,6.334-9.5,13.834-9.5,22.5v1472c0,12.667,6,22.334,18,29l512,256c4,2,8.666,3,14,3
		c8.666,0,16.166-3.166,22.5-9.5c6.333-6.333,9.5-13.833,9.5-22.5V288c0-12.666-6-22.333-18-29L654,3C650,1,645.333,0,640,0L640,0z
		 M512,0c-5.334,0-10.334,1.334-15,4L17,260c-11.334,5.334-17,14.667-17,28v1472c0,8.667,3.166,16.167,9.5,22.5
		c6.333,6.334,13.833,9.5,22.5,9.5c5.333,0,10.333-1.333,15-4l480-256c11.333-5.333,17-14.666,17-28V32
		c0-8.666-3.167-16.166-9.5-22.5C528.166,3.167,520.666,0,512,0L512,0z"/>
</g>
</svg>
