<svg xmlns="http://www.w3.org/2000/svg" width="1792" height="1792" viewBox="0 0 1792 1792"><g fill="#303030"><path d="M896 1639c-100.113 0-197.233-19.845-288.662-58.98-91.599-39.21-171.375-92.588-237.118-158.652-65.766-66.085-119-146.219-158.226-238.174C172.849 1091.425 153 993.788 153 893c0-100.775 19.845-198.231 58.981-289.66 39.227-91.637 92.464-171.61 158.238-237.704 65.743-66.064 145.521-119.442 237.118-158.652C698.769 167.844 795.889 148 896 148c100.109 0 197.229 19.847 288.66 58.983 91.597 39.209 171.372 92.587 237.117 158.652 65.772 66.094 119.014 146.067 158.238 237.704C1619.156 694.769 1639 792.225 1639 893c0 100.786-19.851 198.422-58.995 290.191-39.229 91.955-92.462 172.089-158.228 238.174-65.745 66.065-145.521 119.443-237.116 158.652C1093.234 1619.155 996.114 1639 896 1639zm-336.521-283.863l25.902 16.827C680.406 1433.698 784.913 1465 896 1465c77.09 0 151.59-15.325 221.431-45.557 69.591-30.122 130.569-71.09 181.247-121.766 50.724-50.726 91.549-112.103 121.342-182.426C1449.865 1044.801 1465 970.022 1465 893c0-111.742-30.63-215.575-91.032-308.612l-16.802-25.879-797.687 796.628zM896 322c-102.694 0-198.786 25.709-285.607 76.412-86.733 50.652-156.387 120.653-207.022 208.058C352.694 693.932 327 790.337 327 893c0 112.412 31.302 217.595 93.036 312.619l16.804 25.867 798.307-797.249-25.173-16.968C1116.191 354.053 1010.554 322 896 322z"/><path d="M896 173c48.399 0 96.384 4.79 142.612 14.238 46.208 9.443 92.036 23.819 136.209 42.728 44.442 19.024 86.283 41.597 124.363 67.085 37.904 25.375 73.188 54.383 104.872 86.22 31.713 31.868 60.631 67.303 85.951 105.322 25.435 38.188 47.982 80.105 67.022 124.585 18.905 44.164 33.278 90.062 42.724 136.428C1609.207 796.01 1614 844.258 1614 893c0 48.75-4.796 97.043-14.248 143.537-9.446 46.461-23.828 92.504-42.742 136.847-19.042 44.638-41.594 86.675-67.026 124.94-25.312 38.086-54.223 73.551-85.925 105.406-31.684 31.839-66.968 60.847-104.872 86.22-38.08 25.49-79.921 48.062-124.363 67.084-44.173 18.909-90 33.285-136.209 42.729C992.384 1609.212 944.403 1614 896 1614c-48.403 0-96.386-4.788-142.614-14.235-46.208-9.443-92.036-23.819-136.209-42.729-44.442-19.021-86.284-41.594-124.363-67.084-37.905-25.373-73.188-54.382-104.872-86.22-31.702-31.854-60.609-67.319-85.925-105.406-25.434-38.268-47.984-80.305-67.026-124.94-18.913-44.344-33.296-90.385-42.741-136.846C182.794 990.045 178 941.75 178 893c0-48.742 4.792-96.988 14.244-143.396 9.441-46.364 23.814-92.265 42.722-136.428 19.04-44.479 41.589-86.396 67.022-124.585 25.319-38.021 54.238-73.454 85.951-105.321 31.685-31.838 66.967-60.846 104.872-86.219 38.08-25.49 79.921-48.062 124.363-67.087 44.174-18.907 90.001-33.283 136.209-42.728C799.615 177.79 847.599 173 896 173M432.68 1270.972l43.65-43.594 755.002-754 42.959-42.903-50.346-33.938c-48.928-32.979-101.392-58.092-155.934-74.636C1013.536 305.381 955.662 297 896 297c-53.464 0-105.668 6.713-155.168 19.947-49.597 13.262-97.726 33.407-143.049 59.876-45.208 26.402-86.333 58.082-122.229 94.161-35.878 36.062-67.444 77.427-93.819 122.951-26.434 45.626-46.554 93.971-59.801 143.693C308.707 787.279 302 839.553 302 893c0 58.581 8.185 115.782 24.328 170.017 16.131 54.19 40.604 106.754 72.741 156.225l33.611 51.73M896 1490c80.524 0 158.365-16.02 231.359-47.611 72.494-31.379 136.08-74.118 188.994-127.031 53.008-53.008 95.63-117.051 126.684-190.354C1474.198 1051.448 1490 973.39 1490 893c0-58.204-8.007-114.859-23.793-168.393-15.799-53.568-39.776-105.326-71.271-153.834l-33.604-51.758-43.664 43.604-754 753-43.713 43.653 51.806 33.654c49.442 32.122 101.808 56.587 155.636 72.717C781.323 1481.806 838.052 1490 896 1490m0-1367c-104 0-203.5 20.334-298.5 61-95 40.667-176.667 95.334-245 164-68.334 68.669-122.834 150.5-163.5 245.5-40.667 95-61 194.834-61 299.5 0 104.668 20.333 204.668 61 300 40.666 95.334 95.166 177.334 163.5 246 68.333 68.668 150 123.334 245 164 95 40.668 194.5 61 298.5 61s203.5-20.332 298.5-61c95-40.666 176.666-95.332 245-164 68.332-68.666 122.832-150.666 163.5-246 40.666-95.332 61-195.332 61-300 0-104.666-20.334-204.5-61-299.5-40.668-95-95.168-176.831-163.5-245.5-68.334-68.666-150-123.333-245-164-95-40.666-194.5-61-298.5-61zM441 1192c-59.334-91.332-89-191-89-299 0-98.666 24.333-190 73-274 48.666-84 114.666-150.331 198-199 83.332-48.666 174.332-73 273-73 110 0 210 30.334 300 91l-755 754zm455 248c-106.668 0-205.668-29.666-297-89l754-753c58 89.334 87 187.668 87 295 0 74-14.334 144.834-43 212.5-28.668 67.668-67.334 125.834-116 174.5-48.668 48.668-106.5 87.5-173.5 116.5S970 1440 896 1440z"/></g></svg>