<?xml version="1.0" encoding="UTF-8" standalone="no"?>
<svg
   xmlns:dc="http://purl.org/dc/elements/1.1/"
   xmlns:cc="http://creativecommons.org/ns#"
   xmlns:rdf="http://www.w3.org/1999/02/22-rdf-syntax-ns#"
   xmlns:svg="http://www.w3.org/2000/svg"
   xmlns="http://www.w3.org/2000/svg"
   xmlns:xlink="http://www.w3.org/1999/xlink"
   xmlns:sodipodi="http://sodipodi.sourceforge.net/DTD/sodipodi-0.dtd"
   xmlns:inkscape="http://www.inkscape.org/namespaces/inkscape"
   width="1792"
   height="1792"
   viewBox="0 0 1792 1792"
   version="1.1"
   id="svg6"
   sodipodi:docname="paperclip.svg"
   inkscape:version="0.92.3 (2405546, 2018-03-11)">
  <metadata
     id="metadata12">
    <rdf:RDF>
      <cc:Work
         rdf:about="">
        <dc:format>image/svg+xml</dc:format>
        <dc:type
           rdf:resource="http://purl.org/dc/dcmitype/StillImage" />
        <dc:title />
      </cc:Work>
    </rdf:RDF>
  </metadata>
  <defs
     id="defs10">
    <symbol
       overflow="visible"
       id="t">
      <path
         id="path816"
         d="m18.766-1.125c-0.96875 0.5-1.9805 0.875-3.0312 1.125-1.043 0.25781-2.1367 0.39062-3.2812 0.39062-3.3984 0-6.0898-0.94531-8.0781-2.8438-1.9922-1.9062-2.9844-4.4844-2.9844-7.7344 0-3.2578 0.99219-5.8359 2.9844-7.7344 1.9883-1.9062 4.6797-2.8594 8.0781-2.8594 1.1445 0 2.2383 0.13281 3.2812 0.39062 1.0508 0.25 2.0625 0.625 3.0312 1.125v4.2188c-0.98047-0.65625-1.9453-1.1406-2.8906-1.4531-0.94922-0.3125-1.9492-0.46875-3-0.46875-1.875 0-3.3516 0.60547-4.4219 1.8125-1.0742 1.1992-1.6094 2.8555-1.6094 4.9688 0 2.1055 0.53516 3.7617 1.6094 4.9688 1.0703 1.1992 2.5469 1.7969 4.4219 1.7969 1.0508 0 2.0508-0.14844 3-0.45312 0.94531-0.3125 1.9102-0.80078 2.8906-1.4688z" />
    </symbol>
    <symbol
       overflow="visible"
       id="d">
      <path
         id="path819"
         d="m13.734-11.141c-0.4375-0.19531-0.87109-0.34375-1.2969-0.4375-0.41797-0.10156-0.83984-0.15625-1.2656-0.15625-1.2617 0-2.2305 0.40625-2.9062 1.2188-0.67969 0.80469-1.0156 1.9531-1.0156 3.4531v7.0625h-4.8906v-15.312h4.8906v2.5156c0.625-1 1.3438-1.7266 2.1562-2.1875 0.82031-0.46875 1.8008-0.70312 2.9375-0.70312 0.16406 0 0.34375 0.011719 0.53125 0.03125 0.19531 0.011719 0.47656 0.039062 0.84375 0.078125z" />
    </symbol>
    <symbol
       overflow="visible"
       id="a">
      <path
         id="path822"
         d="m17.641-7.7031v1.4062h-11.453c0.125 1.1484 0.53906 2.0078 1.25 2.5781 0.70703 0.57422 1.7031 0.85938 2.9844 0.85938 1.0312 0 2.082-0.14844 3.1562-0.45312 1.082-0.3125 2.1914-0.77344 3.3281-1.3906v3.7656c-1.1562 0.4375-2.3125 0.76562-3.4688 0.98438-1.1562 0.22656-2.3125 0.34375-3.4688 0.34375-2.7734 0-4.9297-0.70312-6.4688-2.1094-1.5312-1.4062-2.2969-3.3789-2.2969-5.9219 0-2.5 0.75391-4.4609 2.2656-5.8906 1.5078-1.4375 3.582-2.1562 6.2188-2.1562 2.4062 0 4.332 0.73047 5.7812 2.1875 1.4453 1.4492 2.1719 3.3828 2.1719 5.7969zm-5.0312-1.625c0-0.92578-0.27344-1.6719-0.8125-2.2344-0.54297-0.57031-1.25-0.85938-2.125-0.85938-0.94922 0-1.7188 0.26562-2.3125 0.79688s-0.96484 1.2969-1.1094 2.2969z" />
    </symbol>
    <symbol
       overflow="visible"
       id="i">
      <path
         id="path825"
         d="m9.2188-6.8906c-1.0234 0-1.793 0.17188-2.3125 0.51562-0.51172 0.34375-0.76562 0.85547-0.76562 1.5312 0 0.625 0.20703 1.1172 0.625 1.4688 0.41406 0.34375 0.98828 0.51562 1.7188 0.51562 0.92578 0 1.7031-0.32812 2.3281-0.98438 0.63281-0.66406 0.95312-1.4922 0.95312-2.4844v-0.5625zm7.4688-1.8438v8.7344h-4.9219v-2.2656c-0.65625 0.92969-1.3984 1.6055-2.2188 2.0312-0.82422 0.41406-1.8242 0.625-3 0.625-1.5859 0-2.8711-0.45703-3.8594-1.375-0.99219-0.92578-1.4844-2.1289-1.4844-3.6094 0-1.7891 0.61328-3.1016 1.8438-3.9375 1.2383-0.84375 3.1797-1.2656 5.8281-1.2656h2.8906v-0.39062c0-0.76953-0.30859-1.332-0.92188-1.6875-0.61719-0.36328-1.5703-0.54688-2.8594-0.54688-1.0547 0-2.0312 0.10547-2.9375 0.3125-0.89844 0.21094-1.7305 0.52344-2.5 0.9375v-3.7344c1.0391-0.25 2.0859-0.44141 3.1406-0.57812 1.0625-0.13281 2.125-0.20312 3.1875-0.20312 2.7578 0 4.75 0.54688 5.9688 1.6406 1.2266 1.0859 1.8438 2.8555 1.8438 5.3125z" />
    </symbol>
    <symbol
       overflow="visible"
       id="c">
      <path
         id="path828"
         d="m7.7031-19.656v4.3438h5.0469v3.5h-5.0469v6.5c0 0.71094 0.14062 1.1875 0.42188 1.4375s0.83594 0.375 1.6719 0.375h2.5156v3.5h-4.1875c-1.9375 0-3.3125-0.39844-4.125-1.2031-0.80469-0.8125-1.2031-2.1797-1.2031-4.1094v-6.5h-2.4219v-3.5h2.4219v-4.3438z" />
    </symbol>
    <symbol
       overflow="visible"
       id="h">
      <path
         id="path831"
         d="m12.766-13.078v-8.2031h4.9219v21.281h-4.9219v-2.2188c-0.66797 0.90625-1.4062 1.5703-2.2188 1.9844s-1.7578 0.625-2.8281 0.625c-1.8867 0-3.4336-0.75-4.6406-2.25-1.2109-1.5-1.8125-3.4258-1.8125-5.7812 0-2.3633 0.60156-4.2969 1.8125-5.7969 1.207-1.5 2.7539-2.25 4.6406-2.25 1.0625 0 2 0.21484 2.8125 0.64062 0.82031 0.42969 1.5664 1.0859 2.2344 1.9688zm-3.2188 9.9219c1.0391 0 1.8359-0.37891 2.3906-1.1406 0.55078-0.76953 0.82812-1.8828 0.82812-3.3438 0-1.457-0.27734-2.5664-0.82812-3.3281-0.55469-0.76953-1.3516-1.1562-2.3906-1.1562-1.043 0-1.8398 0.38672-2.3906 1.1562-0.55469 0.76172-0.82812 1.8711-0.82812 3.3281 0 1.4609 0.27344 2.5742 0.82812 3.3438 0.55078 0.76172 1.3477 1.1406 2.3906 1.1406z" />
    </symbol>
    <symbol
       overflow="visible"
       id="g">
      <path
         id="path834"
         d="m10.5-3.1562c1.0508 0 1.8516-0.37891 2.4062-1.1406 0.55078-0.76953 0.82812-1.8828 0.82812-3.3438 0-1.457-0.27734-2.5664-0.82812-3.3281-0.55469-0.76953-1.3555-1.1562-2.4062-1.1562-1.0547 0-1.8594 0.38672-2.4219 1.1562-0.55469 0.77344-0.82812 1.8828-0.82812 3.3281 0 1.4492 0.27344 2.5586 0.82812 3.3281 0.5625 0.77344 1.3672 1.1562 2.4219 1.1562zm-3.25-9.9219c0.67578-0.88281 1.4219-1.5391 2.2344-1.9688 0.82031-0.42578 1.7656-0.64062 2.8281-0.64062 1.8945 0 3.4453 0.75 4.6562 2.25 1.207 1.5 1.8125 3.4336 1.8125 5.7969 0 2.3555-0.60547 4.2812-1.8125 5.7812-1.2109 1.5-2.7617 2.25-4.6562 2.25-1.0625 0-2.0078-0.21094-2.8281-0.625-0.8125-0.42578-1.5586-1.0859-2.2344-1.9844v2.2188h-4.8906v-21.281h4.8906z" />
    </symbol>
    <symbol
       overflow="visible"
       id="b">
      <path
         id="path837"
         d="m0.34375-15.312h4.8906l4.125 10.391 3.5-10.391h4.8906l-6.4375 16.766c-0.64844 1.6953-1.4023 2.8828-2.2656 3.5625-0.86719 0.6875-2 1.0312-3.4062 1.0312h-2.8438v-3.2188h1.5312c0.83203 0 1.4375-0.13672 1.8125-0.40625 0.38281-0.26172 0.67969-0.73047 0.89062-1.4062l0.14062-0.42188z" />
    </symbol>
    <symbol
       overflow="visible"
       id="f">
      <path
         id="path840"
         d="m2.5781-20.406h6.6875l4.6562 10.922 4.6719-10.922h6.6875v20.406h-4.9844v-14.938l-4.7031 11.016h-3.3281l-4.7031-11.016v14.938h-4.9844z" />
    </symbol>
    <symbol
       overflow="visible"
       id="s">
      <path
         id="path843"
         d="m2.3594-21.281h4.8906v21.281h-4.8906z" />
    </symbol>
    <symbol
       overflow="visible"
       id="r">
      <path
         id="path846"
         d="m12.422-21.281v3.2188h-2.7031c-0.6875 0-1.1719 0.125-1.4531 0.375-0.27344 0.25-0.40625 0.6875-0.40625 1.3125v1.0625h4.1875v3.5h-4.1875v11.812h-4.8906v-11.812h-2.4375v-3.5h2.4375v-1.0625c0-1.6641 0.46094-2.8984 1.3906-3.7031 0.92578-0.80078 2.3672-1.2031 4.3281-1.2031z" />
    </symbol>
    <symbol
       overflow="visible"
       id="e">
      <path
         id="path849"
         d="m9.6406-12.188c-1.0859 0-1.9141 0.39062-2.4844 1.1719-0.57422 0.78125-0.85938 1.9062-0.85938 3.375s0.28516 2.5938 0.85938 3.375c0.57031 0.77344 1.3984 1.1562 2.4844 1.1562 1.0625 0 1.875-0.38281 2.4375-1.1562 0.57031-0.78125 0.85938-1.9062 0.85938-3.375s-0.28906-2.5938-0.85938-3.375c-0.5625-0.78125-1.375-1.1719-2.4375-1.1719zm0-3.5c2.6328 0 4.6914 0.71484 6.1719 2.1406 1.4766 1.418 2.2188 3.3867 2.2188 5.9062 0 2.5117-0.74219 4.4805-2.2188 5.9062-1.4805 1.418-3.5391 2.125-6.1719 2.125-2.6484 0-4.7148-0.70703-6.2031-2.125-1.4922-1.4258-2.2344-3.3945-2.2344-5.9062 0-2.5195 0.74219-4.4883 2.2344-5.9062 1.4883-1.4258 3.5547-2.1406 6.2031-2.1406z" />
    </symbol>
    <symbol
       overflow="visible"
       id="q">
      <path
         id="path852"
         d="m16.547-12.766c0.61328-0.94531 1.3477-1.6719 2.2031-2.1719 0.85156-0.5 1.7891-0.75 2.8125-0.75 1.7578 0 3.0977 0.54688 4.0156 1.6406 0.92578 1.0859 1.3906 2.6562 1.3906 4.7188v9.3281h-4.9219v-7.9844-0.35938c0.007813-0.13281 0.015625-0.32031 0.015625-0.5625 0-1.082-0.16406-1.8633-0.48438-2.3438-0.3125-0.48828-0.82422-0.73438-1.5312-0.73438-0.92969 0-1.6484 0.38672-2.1562 1.1562-0.51172 0.76172-0.77344 1.8672-0.78125 3.3125v7.5156h-4.9219v-7.9844c0-1.6953-0.14844-2.7852-0.4375-3.2656-0.29297-0.48828-0.8125-0.73438-1.5625-0.73438-0.9375 0-1.6641 0.38672-2.1719 1.1562-0.51172 0.76172-0.76562 1.8594-0.76562 3.2969v7.5312h-4.9219v-15.312h4.9219v2.2344c0.60156-0.86328 1.2891-1.5156 2.0625-1.9531 0.78125-0.4375 1.6406-0.65625 2.5781-0.65625 1.0625 0 2 0.25781 2.8125 0.76562 0.8125 0.51172 1.4258 1.2305 1.8438 2.1562z" />
    </symbol>
    <symbol
       overflow="visible"
       id="p">
      <path
         id="path855"
         d="m17.75-9.3281v9.3281h-4.9219v-7.1094c0-1.3438-0.03125-2.2656-0.09375-2.7656s-0.16797-0.86719-0.3125-1.1094c-0.1875-0.3125-0.44922-0.55469-0.78125-0.73438-0.32422-0.17578-0.69531-0.26562-1.1094-0.26562-1.0234 0-1.8242 0.39844-2.4062 1.1875-0.58594 0.78125-0.875 1.8711-0.875 3.2656v7.5312h-4.8906v-21.281h4.8906v8.2031c0.73828-0.88281 1.5195-1.5391 2.3438-1.9688 0.83203-0.42578 1.75-0.64062 2.75-0.64062 1.7695 0 3.1133 0.54688 4.0312 1.6406 0.91406 1.0859 1.375 2.6562 1.375 4.7188z" />
    </symbol>
    <symbol
       overflow="visible"
       id="o">
      <path
         id="path858"
         d="m2.5781-20.406h5.875l7.4219 14v-14h4.9844v20.406h-5.875l-7.4219-14v14h-4.9844z" />
    </symbol>
    <symbol
       overflow="visible"
       id="n">
      <path
         id="path861"
         d="m2.1875-5.9688v-9.3438h4.9219v1.5312c0 0.83594-0.007813 1.875-0.015625 3.125-0.011719 1.25-0.015625 2.0859-0.015625 2.5 0 1.2422 0.03125 2.1328 0.09375 2.6719 0.070313 0.54297 0.17969 0.93359 0.32812 1.1719 0.20703 0.32422 0.47266 0.57422 0.79688 0.75 0.32031 0.16797 0.69141 0.25 1.1094 0.25 1.0195 0 1.8203-0.39062 2.4062-1.1719 0.58203-0.78125 0.875-1.8672 0.875-3.2656v-7.5625h4.8906v15.312h-4.8906v-2.2188c-0.74219 0.89844-1.5234 1.5586-2.3438 1.9844-0.82422 0.41406-1.7344 0.625-2.7344 0.625-1.7617 0-3.1055-0.53906-4.0312-1.625-0.92969-1.082-1.3906-2.6602-1.3906-4.7344z" />
    </symbol>
    <symbol
       overflow="visible"
       id="m">
      <path
         id="path864"
         d="m17.75-9.3281v9.3281h-4.9219v-7.1406c0-1.3203-0.03125-2.2344-0.09375-2.7344s-0.16797-0.86719-0.3125-1.1094c-0.1875-0.3125-0.44922-0.55469-0.78125-0.73438-0.32422-0.17578-0.69531-0.26562-1.1094-0.26562-1.0234 0-1.8242 0.39844-2.4062 1.1875-0.58594 0.78125-0.875 1.8711-0.875 3.2656v7.5312h-4.8906v-15.312h4.8906v2.2344c0.73828-0.88281 1.5195-1.5391 2.3438-1.9688 0.83203-0.42578 1.75-0.64062 2.75-0.64062 1.7695 0 3.1133 0.54688 4.0312 1.6406 0.91406 1.0859 1.375 2.6562 1.375 4.7188z" />
    </symbol>
    <symbol
       overflow="visible"
       id="l">
      <path
         id="path867"
         d="m2.5781-20.406h8.7344c2.5938 0 4.582 0.57812 5.9688 1.7344 1.3945 1.1484 2.0938 2.7891 2.0938 4.9219 0 2.1367-0.69922 3.7812-2.0938 4.9375-1.3867 1.1562-3.375 1.7344-5.9688 1.7344h-3.4844v7.0781h-5.25zm5.25 3.8125v5.7031h2.9219c1.0195 0 1.8047-0.25 2.3594-0.75 0.5625-0.5 0.84375-1.2031 0.84375-2.1094 0-0.91406-0.28125-1.6172-0.84375-2.1094-0.55469-0.48828-1.3398-0.73438-2.3594-0.73438z" />
    </symbol>
    <symbol
       overflow="visible"
       id="k">
      <path
         id="path870"
         d="m2.3594-15.312h4.8906v15.031c0 2.0508-0.49609 3.6172-1.4844 4.7031-0.98047 1.082-2.4062 1.625-4.2812 1.625h-2.4219v-3.2188h0.85938c0.92578 0 1.5625-0.21094 1.9062-0.625 0.35156-0.41797 0.53125-1.2461 0.53125-2.4844zm0-5.9688h4.8906v4h-4.8906z" />
    </symbol>
    <symbol
       overflow="visible"
       id="j">
      <path
         id="path873"
         d="m14.719-14.828v3.9844c-0.65625-0.45703-1.3242-0.79688-2-1.0156-0.66797-0.21875-1.3594-0.32812-2.0781-0.32812-1.3672 0-2.4336 0.40234-3.2031 1.2031-0.76172 0.79297-1.1406 1.9062-1.1406 3.3438 0 1.4297 0.37891 2.543 1.1406 3.3438 0.76953 0.79297 1.8359 1.1875 3.2031 1.1875 0.75781 0 1.4844-0.10938 2.1719-0.32812 0.6875-0.22656 1.3203-0.56641 1.9062-1.0156v4c-0.76172 0.28125-1.5391 0.48828-2.3281 0.625-0.78125 0.14453-1.5742 0.21875-2.375 0.21875-2.7617 0-4.9219-0.70703-6.4844-2.125-1.5547-1.4141-2.3281-3.3828-2.3281-5.9062 0-2.5312 0.77344-4.5039 2.3281-5.9219 1.5625-1.4141 3.7227-2.125 6.4844-2.125 0.80078 0 1.5938 0.074219 2.375 0.21875 0.78125 0.13672 1.5547 0.35156 2.3281 0.64062z" />
    </symbol>
    <symbol
       overflow="visible"
       id="g-4">
      <path
         id="path1023"
         d="m1.875-0.10938c-0.09375 0.054688-0.19531 0.089844-0.29688 0.10938-0.10547 0.03125-0.21484 0.046875-0.32812 0.046875-0.34375 0-0.61719-0.09375-0.8125-0.28125-0.19922-0.19531-0.29688-0.45703-0.29688-0.78125 0-0.32031 0.097656-0.57812 0.29688-0.76562 0.19531-0.19531 0.46875-0.29688 0.8125-0.29688 0.11328 0 0.22266 0.015625 0.32812 0.046875 0.10156 0.023438 0.20312 0.058594 0.29688 0.10938v0.42188c-0.09375-0.070312-0.19531-0.11719-0.29688-0.14062-0.09375-0.03125-0.19531-0.046875-0.29688-0.046875-0.1875 0-0.33594 0.0625-0.4375 0.1875-0.10547 0.11719-0.15625 0.27734-0.15625 0.48438 0 0.21094 0.050781 0.375 0.15625 0.5 0.10156 0.11719 0.25 0.17188 0.4375 0.17188 0.10156 0 0.20312-0.015625 0.29688-0.046875 0.10156-0.03125 0.20312-0.078125 0.29688-0.14062z" />
    </symbol>
    <symbol
       overflow="visible"
       id="a-6">
      <path
         id="path1026"
         d="m1.375-1.1094c-0.042969-0.019531-0.085938-0.035156-0.125-0.046875-0.042969-0.007812-0.089844-0.015625-0.14062-0.015625-0.125 0-0.22656 0.042969-0.29688 0.125-0.0625 0.074219-0.09375 0.1875-0.09375 0.34375v0.70312h-0.48438v-1.5312h0.48438v0.25c0.0625-0.09375 0.13281-0.16016 0.21875-0.20312 0.082031-0.050781 0.17969-0.078125 0.29688-0.078125h0.046875 0.09375z" />
    </symbol>
    <symbol
       overflow="visible"
       id="b-1">
      <path
         id="path1029"
         d="m1.7656-0.76562v0.14062h-1.1406c0.007812 0.11719 0.046875 0.20312 0.10938 0.26562 0.070313 0.054687 0.17578 0.078125 0.3125 0.078125 0.09375 0 0.19141-0.015625 0.29688-0.046875 0.11328-0.03125 0.22656-0.078125 0.34375-0.14062v0.375c-0.11719 0.042969-0.23047 0.074219-0.34375 0.09375-0.11719 0.03125-0.23047 0.046875-0.34375 0.046875-0.28125 0-0.5-0.066406-0.65625-0.20312-0.14844-0.14453-0.21875-0.34766-0.21875-0.60938 0-0.25 0.070312-0.44141 0.21875-0.57812 0.15625-0.14453 0.36328-0.21875 0.625-0.21875 0.23828 0 0.42969 0.074219 0.57812 0.21875 0.14453 0.14844 0.21875 0.33984 0.21875 0.57812zm-0.5-0.17188c0-0.09375-0.03125-0.16406-0.09375-0.21875-0.054687-0.050781-0.12109-0.078125-0.20312-0.078125-0.09375 0-0.17188 0.027344-0.23438 0.078125-0.0625 0.054688-0.10156 0.125-0.10938 0.21875z" />
    </symbol>
    <symbol
       overflow="visible"
       id="c-3">
      <path
         id="path1032"
         d="m0.92188-0.6875c-0.10547 0-0.18359 0.023438-0.23438 0.0625-0.054688 0.03125-0.078125 0.078125-0.078125 0.14062s0.019531 0.11719 0.0625 0.15625c0.039063 0.03125 0.097656 0.046875 0.17188 0.046875 0.09375 0 0.17188-0.03125 0.23438-0.09375 0.0625-0.070312 0.09375-0.15625 0.09375-0.25v-0.0625zm0.75-0.1875v0.875h-0.5v-0.23438c-0.0625 0.09375-0.13672 0.16797-0.21875 0.21875-0.085937 0.039062-0.18359 0.0625-0.29688 0.0625-0.15625 0-0.28906-0.046875-0.39062-0.14062-0.09375-0.09375-0.14062-0.21094-0.14062-0.35938 0-0.1875 0.054688-0.32031 0.17188-0.40625 0.125-0.082031 0.32031-0.125 0.59375-0.125h0.28125v-0.03125c0-0.082031-0.03125-0.14062-0.09375-0.17188s-0.15625-0.046875-0.28125-0.046875c-0.10547 0-0.20312 0.011719-0.29688 0.03125-0.085938 0.023437-0.16797 0.054687-0.25 0.09375v-0.375c0.10156-0.03125 0.20703-0.050781 0.3125-0.0625 0.11328-0.007813 0.22266-0.015625 0.32812-0.015625 0.26953 0 0.46875 0.058594 0.59375 0.17188 0.125 0.10547 0.1875 0.27734 0.1875 0.51562z" />
    </symbol>
    <symbol
       overflow="visible"
       id="e-7">
      <path
         id="path1035"
         d="m0.76562-1.9688v0.4375h0.5v0.34375h-0.5v0.65625c0 0.074219 0.015625 0.125 0.046875 0.15625 0.03125 0.023438 0.085938 0.03125 0.17188 0.03125h0.25v0.34375h-0.42188c-0.19922 0-0.33984-0.035156-0.42188-0.10938-0.074219-0.082031-0.10938-0.22266-0.10938-0.42188v-0.65625h-0.25v-0.34375h0.25v-0.4375z" />
    </symbol>
    <symbol
       overflow="visible"
       id="j-7">
      <path
         id="path1038"
         d="m1.2812-1.3125v-0.8125h0.48438v2.125h-0.48438v-0.21875c-0.074219 0.085938-0.15234 0.15234-0.23438 0.20312-0.074219 0.039062-0.16797 0.0625-0.28125 0.0625-0.1875 0-0.34375-0.070312-0.46875-0.21875-0.11719-0.15625-0.17188-0.35156-0.17188-0.59375 0-0.22656 0.054688-0.41406 0.17188-0.5625 0.125-0.15625 0.28125-0.23438 0.46875-0.23438 0.11328 0 0.20703 0.023438 0.28125 0.0625 0.082031 0.042969 0.16016 0.10547 0.23438 0.1875zm-0.32812 1c0.10156 0 0.17969-0.035156 0.23438-0.10938 0.0625-0.082031 0.09375-0.19531 0.09375-0.34375 0-0.14453-0.03125-0.25391-0.09375-0.32812-0.054688-0.082031-0.13281-0.125-0.23438-0.125-0.10547 0-0.1875 0.042969-0.25 0.125-0.054687 0.074219-0.078125 0.18359-0.078125 0.32812 0 0.14844 0.023438 0.26172 0.078125 0.34375 0.0625 0.074219 0.14453 0.10938 0.25 0.10938z" />
    </symbol>
    <symbol
       overflow="visible"
       id="f-6">
      <path
         id="path1041"
         d="m1.0469-0.3125c0.10156 0 0.17969-0.035156 0.23438-0.10938 0.0625-0.082031 0.09375-0.19531 0.09375-0.34375 0-0.14453-0.03125-0.25391-0.09375-0.32812-0.054688-0.082031-0.13281-0.125-0.23438-0.125-0.10547 0-0.1875 0.042969-0.25 0.125-0.054687 0.074219-0.078125 0.18359-0.078125 0.32812 0 0.14844 0.023438 0.26172 0.078125 0.34375 0.0625 0.074219 0.14453 0.10938 0.25 0.10938zm-0.32812-1c0.070312-0.082031 0.14844-0.14453 0.23438-0.1875 0.082031-0.039062 0.17578-0.0625 0.28125-0.0625 0.1875 0 0.33594 0.078125 0.45312 0.23438 0.125 0.14844 0.1875 0.33594 0.1875 0.5625 0 0.24219-0.0625 0.4375-0.1875 0.59375-0.11719 0.14844-0.26562 0.21875-0.45312 0.21875-0.10547 0-0.19922-0.023438-0.28125-0.0625-0.085937-0.050781-0.16406-0.11719-0.23438-0.20312v0.21875h-0.48438v-2.125h0.48438z" />
    </symbol>
    <symbol
       overflow="visible"
       id="i-6">
      <path
         id="path1044"
         d="m0.03125-1.5312h0.48438l0.42188 1.0469 0.34375-1.0469h0.48438l-0.64062 1.6719c-0.0625 0.17578-0.13672 0.29688-0.21875 0.35938-0.085938 0.070312-0.19922 0.10938-0.34375 0.10938h-0.28125v-0.32812h0.15625c0.082031 0 0.14062-0.015625 0.17188-0.046875 0.039063-0.023437 0.070313-0.070313 0.09375-0.14062l0.015625-0.03125z" />
    </symbol>
    <symbol
       overflow="visible"
       id="h-0">
      <path
         id="path1047"
         d="m1.5-0.375h-0.82812l-0.125 0.375h-0.53125l0.75-2.0312h0.625l0.76562 2.0312h-0.53125zm-0.70312-0.375h0.5625l-0.28125-0.8125z" />
    </symbol>
    <symbol
       overflow="visible"
       id="u">
      <path
         id="path1050"
         d="m0.23438-2.125h0.48438v2.125h-0.48438z" />
    </symbol>
    <symbol
       overflow="visible"
       id="t-8">
      <path
         id="path1053"
         d="m0.046875-1.5312h0.48438l0.375 1.0625 0.39062-1.0625h0.48438l-0.59375 1.5312h-0.54688z" />
    </symbol>
    <symbol
       overflow="visible"
       id="d-2">
      <path
         id="path1056"
         d="m0.96875-1.2188c-0.11719 0-0.20312 0.042969-0.26562 0.125-0.054687 0.074219-0.078125 0.18359-0.078125 0.32812 0 0.14844 0.023438 0.26172 0.078125 0.34375 0.0625 0.074219 0.14844 0.10938 0.26562 0.10938 0.10156 0 0.17969-0.035156 0.23438-0.10938 0.0625-0.082031 0.09375-0.19531 0.09375-0.34375 0-0.14453-0.03125-0.25391-0.09375-0.32812-0.054687-0.082031-0.13281-0.125-0.23438-0.125zm0-0.34375c0.25781 0 0.46094 0.074219 0.60938 0.21875 0.14453 0.13672 0.21875 0.32812 0.21875 0.57812s-0.074219 0.44922-0.21875 0.59375c-0.14844 0.14844-0.35156 0.21875-0.60938 0.21875-0.27344 0-0.48047-0.070312-0.625-0.21875-0.14844-0.14453-0.21875-0.34375-0.21875-0.59375s0.070312-0.44141 0.21875-0.57812c0.14453-0.14453 0.35156-0.21875 0.625-0.21875z" />
    </symbol>
    <symbol
       overflow="visible"
       id="s-8">
      <path
         id="path1059"
         d="m1.2344-2.125v0.32812h-0.26562c-0.0625 0-0.10938 0.011719-0.14062 0.03125-0.03125 0.023437-0.046875 0.0625-0.046875 0.125v0.10938h0.42188v0.34375h-0.42188v1.1875h-0.48438v-1.1875h-0.25v-0.34375h0.25v-0.10938c0-0.16406 0.046875-0.28516 0.14062-0.35938 0.09375-0.082031 0.23828-0.125 0.4375-0.125z" />
    </symbol>
    <symbol
       overflow="visible"
       id="r-3">
      <path
         id="path1062"
         d="m1.6562-1.2812c0.0625-0.09375 0.13281-0.16016 0.21875-0.20312 0.082031-0.050781 0.17578-0.078125 0.28125-0.078125 0.17578 0 0.30469 0.058594 0.39062 0.17188 0.09375 0.10547 0.14062 0.25781 0.14062 0.45312v0.9375h-0.48438v-0.79688-0.03125-0.0625c0-0.10156-0.015625-0.17969-0.046875-0.23438-0.03125-0.050781-0.085938-0.078125-0.15625-0.078125-0.09375 0-0.16797 0.042969-0.21875 0.125-0.042969 0.074219-0.070312 0.18359-0.078125 0.32812v0.75h-0.48438v-0.79688c0-0.16406-0.015625-0.27344-0.046875-0.32812-0.03125-0.050781-0.085937-0.078125-0.15625-0.078125-0.09375 0-0.16797 0.042969-0.21875 0.125-0.054687 0.074219-0.078125 0.18359-0.078125 0.32812v0.75h-0.48438v-1.5312h0.48438v0.21875c0.0625-0.082031 0.12891-0.14453 0.20312-0.1875 0.082031-0.039062 0.17188-0.0625 0.26562-0.0625 0.10156 0 0.19531 0.027344 0.28125 0.078125 0.082031 0.054687 0.14453 0.12109 0.1875 0.20312z" />
    </symbol>
    <symbol
       overflow="visible"
       id="q-5">
      <path
         id="path1065"
         d="m1.7656-0.9375v0.9375h-0.48438v-0.70312c0-0.13281-0.007812-0.22656-0.015625-0.28125 0-0.050781-0.011719-0.085937-0.03125-0.10938-0.011719-0.03125-0.039063-0.054688-0.078125-0.078125-0.03125-0.019531-0.070312-0.03125-0.10938-0.03125-0.09375 0-0.17188 0.042969-0.23438 0.125-0.0625 0.074219-0.09375 0.18359-0.09375 0.32812v0.75h-0.48438v-2.125h0.48438v0.8125c0.070312-0.082031 0.14844-0.14453 0.23438-0.1875 0.082031-0.039062 0.17578-0.0625 0.28125-0.0625 0.17578 0 0.30469 0.058594 0.39062 0.17188 0.09375 0.10547 0.14062 0.25781 0.14062 0.45312z" />
    </symbol>
    <symbol
       overflow="visible"
       id="p-3">
      <path
         id="path1068"
         d="m0.25-2.0312h0.59375l0.73438 1.3906v-1.3906h0.5v2.0312h-0.57812l-0.75-1.4062v1.4062h-0.5z" />
    </symbol>
    <symbol
       overflow="visible"
       id="o-2">
      <path
         id="path1071"
         d="m0.21875-0.59375v-0.9375h0.48438v0.15625 0.3125 0.25 0.26562c0.007813 0.054687 0.023437 0.089844 0.046875 0.10938 0.019531 0.042969 0.046875 0.074219 0.078125 0.09375 0.03125 0.011719 0.066406 0.015625 0.10938 0.015625 0.10156 0 0.17969-0.035156 0.23438-0.10938 0.0625-0.082031 0.09375-0.19531 0.09375-0.34375v-0.75h0.48438v1.5312h-0.48438v-0.21875c-0.074219 0.085938-0.15234 0.15234-0.23438 0.20312-0.085938 0.039062-0.17188 0.0625-0.26562 0.0625-0.17969 0-0.3125-0.050781-0.40625-0.15625-0.09375-0.11328-0.14062-0.27344-0.14062-0.48438z" />
    </symbol>
    <symbol
       overflow="visible"
       id="n-7">
      <path
         id="path1074"
         d="m1.7656-0.9375v0.9375h-0.48438v-0.71875c0-0.125-0.007812-0.21094-0.015625-0.26562 0-0.050781-0.011719-0.085937-0.03125-0.10938-0.011719-0.03125-0.039063-0.054688-0.078125-0.078125-0.03125-0.019531-0.070312-0.03125-0.10938-0.03125-0.09375 0-0.17188 0.042969-0.23438 0.125-0.0625 0.074219-0.09375 0.18359-0.09375 0.32812v0.75h-0.48438v-1.5312h0.48438v0.21875c0.070312-0.082031 0.14844-0.14453 0.23438-0.1875 0.082031-0.039062 0.17578-0.0625 0.28125-0.0625 0.17578 0 0.30469 0.058594 0.39062 0.17188 0.09375 0.10547 0.14062 0.25781 0.14062 0.45312z" />
    </symbol>
    <symbol
       overflow="visible"
       id="m-1">
      <path
         id="path1077"
         d="m0.25-2.0312h0.875c0.25781 0 0.45703 0.058594 0.59375 0.17188 0.14453 0.11719 0.21875 0.27734 0.21875 0.48438 0 0.21875-0.074219 0.38672-0.21875 0.5-0.13672 0.11719-0.33594 0.17188-0.59375 0.17188h-0.34375v0.70312h-0.53125zm0.53125 0.375v0.5625h0.29688c0.09375 0 0.16406-0.019531 0.21875-0.0625 0.0625-0.050781 0.09375-0.125 0.09375-0.21875s-0.03125-0.16016-0.09375-0.20312c-0.054687-0.050781-0.125-0.078125-0.21875-0.078125z" />
    </symbol>
    <symbol
       overflow="visible"
       id="l-0">
      <path
         id="path1080"
         d="m0.23438-1.5312h0.48438v1.5c0 0.20703-0.054688 0.36328-0.15625 0.46875-0.09375 0.11328-0.23047 0.17188-0.40625 0.17188h-0.25v-0.32812h0.078125c0.09375 0 0.15625-0.023438 0.1875-0.0625 0.039063-0.042969 0.0625-0.125 0.0625-0.25zm0-0.59375h0.48438v0.40625h-0.48438z" />
    </symbol>
    <symbol
       overflow="visible"
       id="k-7">
      <path
         id="path1083"
         d="m1.4688-1.4844v0.40625c-0.0625-0.050781-0.13281-0.085937-0.20312-0.10938-0.0625-0.019531-0.13281-0.03125-0.20312-0.03125-0.13672 0-0.24609 0.042969-0.32812 0.125-0.074219 0.074219-0.10938 0.18359-0.10938 0.32812 0 0.14844 0.035156 0.26172 0.10938 0.34375 0.082031 0.074219 0.19141 0.10938 0.32812 0.10938 0.070312 0 0.14453-0.007812 0.21875-0.03125 0.070312-0.019531 0.13281-0.050781 0.1875-0.09375v0.39062c-0.074219 0.03125-0.15234 0.050781-0.23438 0.0625-0.074219 0.019531-0.15234 0.03125-0.23438 0.03125-0.27344 0-0.48438-0.070312-0.64062-0.21875-0.15625-0.14453-0.23438-0.34375-0.23438-0.59375s0.078125-0.44141 0.23438-0.57812c0.15625-0.14453 0.36719-0.21875 0.64062-0.21875 0.082031 0 0.16016 0.007812 0.23438 0.015625 0.082031 0.011719 0.16016 0.03125 0.23438 0.0625z" />
    </symbol>
  </defs>
  <sodipodi:namedview
     pagecolor="#ffffff"
     bordercolor="#666666"
     borderopacity="1"
     objecttolerance="10"
     gridtolerance="10"
     guidetolerance="10"
     inkscape:pageopacity="0"
     inkscape:pageshadow="2"
     inkscape:window-width="2400"
     inkscape:window-height="1271"
     id="namedview8"
     showgrid="true"
     inkscape:zoom="0.35355339"
     inkscape:cx="169.95922"
     inkscape:cy="919.5068"
     inkscape:window-x="2551"
     inkscape:window-y="-9"
     inkscape:window-maximized="1"
     inkscape:current-layer="svg6"
     showguides="false" />
  <path
     style="color:#000000;font-style:normal;font-variant:normal;font-weight:normal;font-stretch:normal;font-size:medium;line-height:normal;font-family:sans-serif;font-variant-ligatures:normal;font-variant-position:normal;font-variant-caps:normal;font-variant-numeric:normal;font-variant-alternates:normal;font-feature-settings:normal;text-indent:0;text-align:start;text-decoration:none;text-decoration-line:none;text-decoration-style:solid;text-decoration-color:#000000;letter-spacing:normal;word-spacing:normal;text-transform:none;writing-mode:lr-tb;direction:ltr;text-orientation:mixed;dominant-baseline:auto;baseline-shift:baseline;text-anchor:start;white-space:normal;shape-padding:0;clip-rule:nonzero;display:inline;overflow:visible;visibility:visible;opacity:1;isolation:auto;mix-blend-mode:normal;color-interpolation:sRGB;color-interpolation-filters:linearRGB;solid-color:#000000;solid-opacity:1;vector-effect:none;fill:#4b6280;fill-opacity:1;fill-rule:nonzero;stroke:none;stroke-width:20;stroke-linecap:butt;stroke-linejoin:miter;stroke-miterlimit:4;stroke-dasharray:none;stroke-dashoffset:0;stroke-opacity:1;paint-order:markers stroke fill;color-rendering:auto;image-rendering:auto;shape-rendering:auto;text-rendering:auto;enable-background:accumulate"
     d="m -1984.1256,-203.23365 c -88.7003,-0.001 -177.4009,34.5009 -244.8653,103.51172 -133.6255,136.68228 -133.7837,357.312 0,494.15234 v 0.002 l 541.0469,552.89249 c 92.1793,94.2829 243.3329,92.956 333.9394,-3.084 v 0 c 87.358,-92.5947 84.5404,-239.32866 -4.418,-330.32412 v -0.004 L -1783.7565,179.4284 c -22.0731,-22.54422 -58.5464,-22.93371 -81.0918,-0.86328 l -67.6446,66.21875 c -22.5479,22.07299 -22.9334,58.54685 -0.8633,81.0918 l 425.2871,434.4414 c 10.8615,11.11599 11.2769,30.20883 1.7891,40.26753 -9.3845,9.9459 -22.4904,10.0854 -31.9941,0.3613 v 0 L -2079.327,248.05725 v -0.004 c -54.2377,-55.48379 -54.2392,-145.90513 0.035,-201.42188 53.0455,-54.2563799 137.2556,-54.2849799 190.3242,0 l 620.6797,634.87891 c 99.1281,101.40072 100.5902,265.53972 3.4941,365.72452 -96.8899,99.9751 -252.7353,100.0922 -349.7949,0.8164 l -509.1246,-520.77899 c -22.0558,-22.56288 -58.5278,-22.97299 -81.0899,-0.91797 l -67.6933,66.17383 c -22.5625,22.05548 -22.9767,58.52968 -0.918,81.0918 l 509.1231,520.77343 c 180.0801,184.1971 471.9933,182.0389 649.832,-1.4649 176.6755,-182.2965 173.3665,-476.2111 -4.1328,-657.76947 l -620.6758,-634.88086 c -67.4583,-69.00489 -156.1571,-103.51023 -244.8574,-103.51172 z"
     id="path2-3-5"
     inkscape:connector-curvature="0"
     sodipodi:nodetypes="scccccccccccccccccccccccccccccccs" />
  <path
     inkscape:connector-curvature="0"
     d="m -897.6411,1477.9683 c 172.8932,-178.3939 169.6709,-466.072 -4.1012,-643.81787 l -620.6758,-634.88174 c -131.1301,-134.136496 -344.2802,-134.148296 -475.4223,0 -129.8696,132.8404 -130.0265,347.1742 0,480.1715 l 541.0466,552.89131 c 88.3404,90.3584 232.6736,89.0978 319.5167,-2.9531 83.6652,-88.6806 80.9814,-229.2411 -4.2964,-316.47176 l -425.3328,-434.48185 c -18.2925,-18.683 -48.2669,-19.0026 -66.95,-0.7131 l -67.6451,66.219 c -18.686,18.2924 -19.0027,48.2669 -0.7132,66.9499 l 425.2884,434.44041 c 14.5937,14.928 15.4932,39.7331 1.9175,54.1256 -12.9366,13.712 -33.2738,13.9398 -46.4206,0.4883 L -1862.476,547.04649 c -58.0344,-59.3631 -58.0344,-156.0122 0.032,-215.4078 56.7798,-58.0759 147.8217,-58.1055 204.6252,0 l 620.6795,634.87873 c 102.863,105.22128 104.4491,275.54028 3.5242,379.67568 -100.635,103.8394 -263.3049,103.9696 -364.1263,0.8462 l -509.1222,-520.77752 c -18.2776,-18.69779 -48.2521,-19.03512 -66.9499,-0.7575 l -67.6925,66.17464 c -18.6978,18.27762 -19.0381,48.25209 -0.7575,66.94989 l 509.1221,520.77449 c 176.2842,180.3144 461.4323,178.178 635.5003,-1.435 z"
     id="path2-3"
     style="fill:#6480a7;fill-opacity:1;stroke:none;stroke-width:20;stroke-linecap:butt;stroke-linejoin:miter;stroke-miterlimit:4;stroke-dasharray:none;stroke-opacity:1;paint-order:markers stroke fill" />
  <path
     inkscape:connector-curvature="0"
     d="m 872.36863,251.42442 691.75717,691.75715 c 18.9489,18.94888 18.9489,50.545 0,69.49453 -18.9488,18.9495 -50.5449,18.9488 -69.4945,0 L 802.87413,320.91871 c -115.28996,-115.29 -300.07746,-115.29 -415.37016,0 -115.2903,115.29021 -115.2903,300.07747 0,415.37043 l 761.24873,761.24896 c 75.8063,75.8061 200.5808,75.8061 276.3871,0 75.8061,-75.8063 75.8061,-200.5809 0,-276.3872 L 698.63677,494.64787 c -37.9073,-37.90748 -99.5021,-37.90748 -138.9861,0 -37.9072,37.90726 -37.9072,99.5021 0,138.98603 l 622.26573,622.2657 c 18.9489,18.9488 18.9489,50.545 0,69.4945 -18.9488,18.9493 -50.5449,18.9488 -69.4945,0 L 491.73567,701.54898 c -75.8063,-75.80628 -75.8063,-200.58087 0,-276.38715 75.8062,-75.80628 200.5808,-75.80628 276.3871,0 0,0 664.21993,665.99337 761.24873,761.24897 97.0288,95.2556 63.1337,286.717 -34.7454,380.6216 -115.2903,115.2902 -300.0774,115.2902 -415.3704,0 L 319.58627,805.78343 c -153.1974,-153.19727 -153.1974,-401.15603 0,-552.77408 153.1973,-151.62377 399.5766,-153.197476 552.77416,-1.58641 z"
     id="path878"
     style="stroke-width:40;fill:#6480a7;fill-opacity:1;stroke:#6480a7;stroke-opacity:1;stroke-miterlimit:4;stroke-dasharray:none;stroke-linecap:round;stroke-linejoin:round;paint-order:stroke fill markers"
     sodipodi:nodetypes="csscsccccccccscccsszcccccc" />
  <g
     id="g1170"
     transform="matrix(1.3333333,0,0,1.3333333,-3150.8883,206.54815)">
    <path
       id="path1088"
       d="M 559.72,334.66 310.52,85.46 C 291.649,66.589 266.559,56.23 239.903,56.23 c -26.656,0 -51.742,10.359 -70.617,29.23 l -1.3984,1.3984 c -18.871,18.871 -29.23,43.961 -29.23,70.617 0,26.656 10.359,51.742 29.23,70.617 l 253.34,253.34 c 14.055,14.055 32.762,21.84 52.695,21.84 19.879,0 38.586,-7.7266 52.695,-21.84 l 1.0078,-1.0078 c 29.062,-29.062 29.062,-76.328 0,-105.39 l -79.629,-79.637 -104.83,-104.77 -9.5195,-9.5195 c -18.312,-18.312 -48.16,-18.367 -66.527,0 l -0.61719,0.61719 c -18.312,18.312 -18.312,48.16 0,66.527 l 114.3,114.35 c 0.44922,0.44922 1.0078,0.67188 1.5664,0.67188 0.55859,0 1.1758,-0.22266 1.5664,-0.67188 0.89453,-0.89453 0.89453,-2.2969 0,-3.1914 l -114.24,-114.36 c -8.0078,-8.0078 -12.434,-18.703 -12.434,-30.07 0,-11.367 4.4258,-22.062 12.434,-30.07 l 0.61719,-0.61719 c 8.0078,-8.0078 18.703,-12.434 30.07,-12.434 11.367,0 22.062,4.4258 30.07,12.434 l 193.98,193.98 c 27.273,27.273 27.273,71.68 0,99.008 l -1.0078,1.0078 c -13.215,13.215 -30.801,20.496 -49.504,20.496 -18.703,0 -36.289,-7.2812 -49.504,-20.496 l -253.34,-253.34 c -18.031,-18.031 -27.945,-41.945 -27.945,-67.426 0,-25.48 9.9102,-49.449 27.945,-67.426 l 1.3984,-1.3984 c 18.031,-18.031 41.945,-27.945 67.426,-27.945 25.48,0 49.449,9.9102 67.426,27.945 l 249.2,249.2 c 0.89453,0.89453 2.2969,0.89453 3.1914,0 0.89844,-0.89453 0.89844,-2.3516 0,-3.2461 z"
       inkscape:connector-curvature="0" />
    <use
       id="use1090"
       xlink:href="#g-4"
       y="568.39844"
       x="70"
       width="100%"
       height="100%" />
    <use
       id="use1092"
       xlink:href="#a-6"
       y="568.39844"
       x="72.054688"
       width="100%"
       height="100%" />
    <use
       id="use1094"
       xlink:href="#b-1"
       y="568.39844"
       x="73.4375"
       width="100%"
       height="100%" />
    <use
       id="use1096"
       xlink:href="#c-3"
       y="568.39844"
       x="75.335938"
       width="100%"
       height="100%" />
    <use
       id="use1098"
       xlink:href="#e-7"
       y="568.39844"
       x="77.222656"
       width="100%"
       height="100%" />
    <use
       id="use1100"
       xlink:href="#b-1"
       y="568.39844"
       x="78.5625"
       width="100%"
       height="100%" />
    <use
       id="use1102"
       xlink:href="#j-7"
       y="568.39844"
       x="80.460938"
       width="100%"
       height="100%" />
    <use
       id="use1104"
       xlink:href="#f-6"
       y="568.39844"
       x="83.441406"
       width="100%"
       height="100%" />
    <use
       id="use1106"
       xlink:href="#i-6"
       y="568.39844"
       x="85.445312"
       width="100%"
       height="100%" />
    <use
       id="use1108"
       xlink:href="#h-0"
       y="568.39844"
       x="88.246094"
       width="100%"
       height="100%" />
    <use
       id="use1110"
       xlink:href="#u"
       y="568.39844"
       x="90.410156"
       width="100%"
       height="100%" />
    <use
       id="use1112"
       xlink:href="#t-8"
       y="568.39844"
       x="91.371094"
       width="100%"
       height="100%" />
    <use
       id="use1114"
       xlink:href="#c-3"
       y="568.39844"
       x="93.195312"
       width="100%"
       height="100%" />
    <use
       id="use1116"
       xlink:href="#a-6"
       y="568.39844"
       x="95.085938"
       width="100%"
       height="100%" />
    <use
       id="use1118"
       xlink:href="#d-2"
       y="568.39844"
       x="96.46875"
       width="100%"
       height="100%" />
    <use
       id="use1120"
       xlink:href="#g-4"
       y="568.39844"
       x="99.367188"
       width="100%"
       height="100%" />
    <use
       id="use1122"
       xlink:href="#c-3"
       y="568.39844"
       x="101.42188"
       width="100%"
       height="100%" />
    <use
       id="use1124"
       xlink:href="#f-6"
       y="568.39844"
       x="103.30859"
       width="100%"
       height="100%" />
    <use
       id="use1126"
       xlink:href="#a-6"
       y="568.39844"
       x="105.3125"
       width="100%"
       height="100%" />
    <use
       id="use1128"
       xlink:href="#b-1"
       y="568.39844"
       x="106.69531"
       width="100%"
       height="100%" />
    <use
       id="use1130"
       xlink:href="#a-6"
       y="568.39844"
       x="108.59375"
       width="100%"
       height="100%" />
    <use
       id="use1132"
       xlink:href="#c-3"
       y="568.39844"
       x="109.97656"
       width="100%"
       height="100%" />
    <use
       id="use1134"
       xlink:href="#s-8"
       y="571.19922"
       x="70"
       width="100%"
       height="100%" />
    <use
       id="use1136"
       xlink:href="#a-6"
       y="571.19922"
       x="71.21875"
       width="100%"
       height="100%" />
    <use
       id="use1138"
       xlink:href="#d-2"
       y="571.19922"
       x="72.597656"
       width="100%"
       height="100%" />
    <use
       id="use1140"
       xlink:href="#r-3"
       y="571.19922"
       x="74.523438"
       width="100%"
       height="100%" />
    <use
       id="use1142"
       xlink:href="#e-7"
       y="571.19922"
       x="78.414062"
       width="100%"
       height="100%" />
    <use
       id="use1144"
       xlink:href="#q-5"
       y="571.19922"
       x="79.753906"
       width="100%"
       height="100%" />
    <use
       id="use1146"
       xlink:href="#b-1"
       y="571.19922"
       x="81.746094"
       width="100%"
       height="100%" />
    <use
       id="use1148"
       xlink:href="#p-3"
       y="571.19922"
       x="84.621094"
       width="100%"
       height="100%" />
    <use
       id="use1150"
       xlink:href="#d-2"
       y="571.19922"
       x="86.964844"
       width="100%"
       height="100%" />
    <use
       id="use1152"
       xlink:href="#o-2"
       y="571.19922"
       x="88.886719"
       width="100%"
       height="100%" />
    <use
       id="use1154"
       xlink:href="#n-7"
       y="571.19922"
       x="90.882812"
       width="100%"
       height="100%" />
    <use
       id="use1156"
       xlink:href="#m-1"
       y="571.19922"
       x="93.847656"
       width="100%"
       height="100%" />
    <use
       id="use1158"
       xlink:href="#a-6"
       y="571.19922"
       x="95.902344"
       width="100%"
       height="100%" />
    <use
       id="use1160"
       xlink:href="#d-2"
       y="571.19922"
       x="97.28125"
       width="100%"
       height="100%" />
    <use
       id="use1162"
       xlink:href="#l-0"
       y="571.19922"
       x="99.207031"
       width="100%"
       height="100%" />
    <use
       id="use1164"
       xlink:href="#b-1"
       y="571.19922"
       x="100.16406"
       width="100%"
       height="100%" />
    <use
       id="use1166"
       xlink:href="#k-7"
       y="571.19922"
       x="102.06641"
       width="100%"
       height="100%" />
    <use
       id="use1168"
       xlink:href="#e-7"
       y="571.19922"
       x="103.72266"
       width="100%"
       height="100%" />
  </g>
</svg>
