<svg xmlns="http://www.w3.org/2000/svg" width="1792" height="1792" viewBox="0 0 1792 1792"><path fill="#6480A7" d="M145.5 1646.5v-391.251l814.5-814.5L1351.251 832l-814.5 814.5H145.5zm221-93h131.749l108.5-108.5L347 1185.251l-108.5 108.5V1425.5h128v128zm625.5-985c-11.284 0-21.441 4.193-29.374 12.125l-542 542c-7.933 7.933-12.125 18.09-12.125 29.374 0 24.364 15.135 39.5 39.5 39.5 11.284 0 21.442-4.193 29.375-12.126l542-542c7.933-7.933 12.126-18.09 12.126-29.375-.002-24.363-15.137-39.498-39.502-39.498zm56.786-216.463l153.737-152.811.181-.191c20.741-21.893 46.024-32.536 77.296-32.536 30.785 0 56.504 10.753 78.626 32.875l234.843 233.843c21.552 22.793 32.031 48.567 32.031 78.782 0 30.786-10.426 56.178-31.874 77.625L1440 743.251l-391.214-391.214z"/><path fill="#4B6280" d="M1280 184c25.907 0 47.578 9.077 66.252 27.749l.025.026.026.026 234.624 233.625C1599.144 464.771 1608 486.552 1608 512c0 25.908-8.75 47.252-26.749 65.251L1440 718.503l-366.428-366.428 141.102-140.252.373-.371.361-.381c8.72-9.204 18.109-15.854 28.706-20.327C1254.862 186.206 1266.6 184 1280 184M960 465.497L1326.503 832l-797 797H163v-366.503l797-797M448 1209c16.026 0 30.463-5.965 41.749-17.251l542-542C1043.035 638.463 1049 624.026 1049 608c0-21.074-8.565-34.063-15.751-41.249C1026.063 559.566 1013.073 551 992 551c-16.026 0-30.463 5.965-41.749 17.251l-542 542C396.966 1121.537 391 1135.973 391 1152c0 21.075 8.565 34.063 15.751 41.249C413.936 1200.434 426.926 1209 448 1209m-227 234h128v128h156.498l10.251-10.251 91-91L631.498 1445l-24.749-24.749-235-235L347 1160.503l-24.749 24.748-91 91L221 1286.503V1443M1280 149c-36 0-66 12.667-90 38l-166 165 416 416 166-166c24.666-24.666 37-54.666 37-90 0-34.665-12.334-65-37-91l-235-234c-25.334-25.333-55.668-38-91-38zM960 416l-832 832v416h416l832-832-416-416zm-512 758c-14.668 0-22-7.332-22-22 0-6.666 2.332-12.332 7-17l542-542c4.666-4.666 10.332-7 17-7 14.666 0 22 7.334 22 22 0 6.668-2.334 12.334-7 17l-542 542c-4.668 4.668-10.335 7-17 7zm-192 234v-107l91-91 235 235-91 91H384v-128H256z"/></svg>