<?xml version="1.0" encoding="utf-8"?>
<!-- Generator: Adobe Illustrator 16.0.0, SVG Export Plug-In . SVG Version: 6.00 Build 0)  -->
<!DOCTYPE svg PUBLIC "-//W3C//DTD SVG 1.1//EN" "http://www.w3.org/Graphics/SVG/1.1/DTD/svg11.dtd">
<svg version="1.1" id="Layer_1" xmlns="http://www.w3.org/2000/svg" xmlns:xlink="http://www.w3.org/1999/xlink" x="0px" y="0px"
	 width="1792px" height="1792px" viewBox="0 0 1792 1792" enable-background="new 0 0 1792 1792" xml:space="preserve">
<g>
	<path fill="#6480A7" d="M145.5,1646.5v-391.251l814.5-814.5L1351.251,832l-814.5,814.5H145.5z M366.5,1553.5h131.749l108.5-108.5
		L347,1185.251l-108.5,108.5V1425.5h128V1553.5z M992,568.5c-11.284,0-21.441,4.193-29.374,12.125l-542,542
		c-7.933,7.933-12.125,18.09-12.125,29.374c0,24.364,15.135,39.5,39.5,39.5c11.284,0,21.442-4.193,29.375-12.126l542-542
		c7.933-7.933,12.126-18.09,12.126-29.375C1031.5,583.635,1016.365,568.5,992,568.5z M1048.786,352.037l153.737-152.811l0.181-0.191
		c20.741-21.893,46.024-32.536,77.296-32.536c30.785,0,56.504,10.753,78.626,32.875l234.843,233.843
		c21.552,22.793,32.031,48.567,32.031,78.782c0,30.786-10.426,56.178-31.874,77.625L1440,743.251L1048.786,352.037z"/>
	<path fill="#4B6280" d="M1280,184c25.907,0,47.578,9.077,66.252,27.749l0.025,0.026l0.026,0.026l234.624,233.625
		C1599.144,464.771,1608,486.552,1608,512c0,25.908-8.75,47.252-26.749,65.251L1440,718.503l-366.428-366.428l141.102-140.252
		l0.373-0.371l0.361-0.381c8.72-9.204,18.109-15.854,28.706-20.327C1254.862,186.206,1266.6,184,1280,184 M960,465.497L1326.503,832
		l-797,797H163v-366.503L960,465.497 M448,1209c16.026,0,30.463-5.965,41.749-17.251l542-542
		C1043.035,638.463,1049,624.026,1049,608c0-21.074-8.565-34.063-15.751-41.249C1026.063,559.566,1013.073,551,992,551
		c-16.026,0-30.463,5.965-41.749,17.251l-542,542C396.966,1121.537,391,1135.973,391,1152c0,21.075,8.565,34.063,15.751,41.249
		C413.936,1200.434,426.926,1209,448,1209 M221,1443h35h93v93v35h35h107h14.498l10.251-10.251l91-91L631.498,1445l-24.749-24.749
		l-235-235L347,1160.503l-24.749,24.748l-91,91L221,1286.503V1301v107V1443 M1280,149c-36,0-66,12.667-90,38l-166,165l416,416
		l166-166c24.666-24.666,37-54.666,37-90c0-34.665-12.334-65-37-91l-235-234C1345.666,161.667,1315.332,149,1280,149L1280,149z
		 M960,416l-832,832v416h416l832-832L960,416L960,416z M448,1174c-14.668,0-22-7.332-22-22c0-6.666,2.332-12.332,7-17l542-542
		c4.666-4.666,10.332-7,17-7c14.666,0,22,7.334,22,22c0,6.668-2.334,12.334-7,17l-542,542C460.332,1171.668,454.665,1174,448,1174
		L448,1174z M256,1408v-107l91-91l235,235l-91,91H384v-128H256L256,1408z"/>
</g>
</svg>
