<?xml version="1.0" encoding="utf-8"?>
<!-- Generator: Adobe Illustrator 16.0.0, SVG Export Plug-In . SVG Version: 6.00 Build 0)  -->
<!DOCTYPE svg PUBLIC "-//W3C//DTD SVG 1.1//EN" "http://www.w3.org/Graphics/SVG/1.1/DTD/svg11.dtd">
<svg version="1.1" id="Layer_1" xmlns="http://www.w3.org/2000/svg" xmlns:xlink="http://www.w3.org/1999/xlink" x="0px" y="0px"
	 width="1792px" height="1792px" viewBox="0 0 1792 1792" enable-background="new 0 0 1792 1792" xml:space="preserve">
<path fill="#2B2B2B" d="M1600,1240c0,18-3.334,41.5-10,70.5c-6.667,29-13.667,51.834-21,68.5c-14,33.334-54.667,68.667-122,106
	c-62.667,34-124.667,51-186,51c-18,0-35.5-1.166-52.5-3.5c-17-2.333-36.167-6.5-57.5-12.5c-21.334-6-37.167-10.833-47.5-14.5
	c-10.334-3.666-28.834-10.5-55.5-20.5c-26.667-10-43-16-49-18c-65.334-23.333-123.667-51-175-83
	c-85.334-52.666-173.5-124.5-264.5-215.5S396.666,989.334,344,904c-32-51.333-59.667-109.666-83-175c-2-6-8-22.333-18-49
	c-10-26.666-16.834-45.166-20.5-55.5c-3.667-10.333-8.5-26.166-14.5-47.5c-6-21.333-10.167-40.5-12.5-57.5
	c-2.334-17-3.5-34.5-3.5-52.5c0-61.333,17-123.333,51-186c37.333-67.333,72.666-108,106-122c16.666-7.333,39.5-14.333,68.5-21
	c29-6.666,52.5-10,70.5-10c9.333,0,16.333,1,21,3c12,4,29.666,29.334,53,76c7.333,12.667,17.333,30.667,30,54
	c12.666,23.334,24.333,44.5,35,63.5c10.666,19,21,36.834,31,53.5c2,2.667,7.833,11,17.5,25c9.666,14,16.833,25.834,21.5,35.5
	c4.666,9.667,7,19.167,7,28.5c0,13.334-9.5,30-28.5,50s-39.667,38.334-62,55c-22.334,16.667-43,34.334-62,53
	c-19,18.667-28.5,34-28.5,46c0,6,1.666,13.5,5,22.5c3.333,9,6.166,15.834,8.5,20.5c2.333,4.667,7,12.667,14,24
	c7,11.334,10.833,17.667,11.5,19c50.666,91.334,108.666,169.667,174,235c65.333,65.334,143.666,123.334,235,174
	c1.333,0.667,7.666,4.5,19,11.5c11.333,7,19.333,11.667,24,14c4.666,2.334,11.5,5.167,20.5,8.5c9,3.334,16.5,5,22.5,5
	c12,0,27.333-9.5,46-28.5c18.666-19,36.333-39.666,53-62c16.666-22.333,35-43,55-62s36.666-28.5,50-28.5
	c9.333,0,18.833,2.334,28.5,7c9.666,4.667,21.5,11.834,35.5,21.5c14,9.667,22.333,15.5,25,17.5c16.666,10,34.5,20.334,53.5,31
	c19,10.667,40.166,22.334,63.5,35c23.333,12.667,41.333,22.667,54,30c46.666,23.334,72,41,76,53
	C1599,1223.667,1600,1230.667,1600,1240z"/>
</svg>
