<?xml version="1.0" encoding="iso-8859-1"?>
<!-- Generator: Adobe Illustrator 16.0.0, SVG Export Plug-In . SVG Version: 6.00 Build 0)  -->
<!DOCTYPE svg PUBLIC "-//W3C//DTD SVG 1.1//EN" "http://www.w3.org/Graphics/SVG/1.1/DTD/svg11.dtd">
<svg version="1.1" id="Capa_1" xmlns="http://www.w3.org/2000/svg" xmlns:xlink="http://www.w3.org/1999/xlink" x="0px" y="0px"
	 width="966.797px" height="966.797px" viewBox="0 0 966.797 966.797" style="enable-background:new 0 0 966.797 966.797;"
	 xml:space="preserve">
<g>
	<path d="M542.162,720.664c6.678,6.677,6.723,17.503,0.045,24.18l-45.392,45.234c-3.496,3.495-7.833,5.13-12.833,4.945
		c-4.559,0.186-9.178-1.45-12.674-4.945l-45.234-45.234c-6.677-6.677-6.677-17.502,0-24.18l45.234-45.233
		c3.479-3.479,8.096-5.141,12.674-5.015c5-0.125,9.376,1.536,12.854,5.015L542.162,720.664z M471.31,596.198
		c3.486,3.487,8.105,5.136,12.674,4.98c5,0.156,9.345-1.492,12.833-4.98l45.392-45.233c6.678-6.677,6.585-17.455-0.149-24.074
		l-45.115-44.248c-3.516-3.456-7.96-5.089-12.96-4.937c-4.606-0.153-9.263,1.48-12.779,4.937l-45.023,44.248
		c-6.735,6.619-6.782,17.397-0.105,24.074L471.31,596.198z M444.875,622.633l-45.023-44.248c-6.735-6.619-17.607-6.571-24.284,0.105
		l-45.234,45.234c-6.677,6.677-6.63,17.455,0.105,24.074l45.023,44.248c6.735,6.619,17.607,6.572,24.284-0.105l45.233-45.233
		C451.657,640.03,451.61,629.251,444.875,622.633z M749.524,634.215c0,86.683-26.312,168.642-74.093,230.781
		c-24.115,31.361-52.468,56.135-84.272,73.63c-33.981,18.692-70.237,28.171-107.761,28.171s-73.778-9.479-107.761-28.171
		c-31.805-17.495-60.157-42.268-84.272-73.63c-47.779-62.14-74.093-144.1-74.093-230.781s26.313-168.643,74.093-230.781
		c24.115-31.363,52.468-56.135,84.272-73.63c4.345-2.39,8.729-4.625,13.146-6.713c-34.034-29.992-71.338-59.045-101.773-73.242
		c-17.115-7.983-19.279-16.94-0.784-20.764c17.957-3.712,43.443-5.299,76.349,1.491c0,0-43.806-86.769-103.897-126.327
		c-15.774-10.384-15.29-15.945,3.575-15.061c41.191,1.931,110.167,11.792,152.754,53.619c0,0,34.383-118.042,132.542-141.779
		c18.355-4.439,22.381,6.076,10.07,20.398c-29.139,33.9-72.444,99.275-53.705,172.673c0,0,64.996-70.383,175.452-18.727
		c17.107,8,14.996,19.801-3.02,25.464c-41.017,12.893-107.826,39.949-125.661,83.311c0,0,24.27-3.389,51.364-3.408
		c18.886-0.013,22.673,12.471,8.593,25.058l-24.108,21.551c1.544,0.807,3.089,1.611,4.624,2.455
		c31.805,17.495,60.157,42.268,84.272,73.63C723.212,465.573,749.524,547.534,749.524,634.215z M702.222,688.7
		c2.507-17.332,3.833-35.205,3.833-53.484c0-18.168-1.311-35.937-3.787-53.17c-0.936,1.415-1.942,2.717-3.022,3.836l-9.758,10.105
		c-6.559,6.793-17.289,6.888-23.966,0.211l-45.234-45.234c-6.677-6.677-6.677-17.502,0-24.18l46.432-46.431
		c1.051-1.051,2.159-1.878,3.291-2.53c-6.05-12.008-12.769-23.389-20.093-34.057c-0.714,1.074-1.521,2.081-2.439,2.985
		l-54.624,53.796c-6.729,6.626-17.595,6.584-24.272-0.093l-45.232-45.233c-6.678-6.677-6.638-17.462,0.089-24.09l56.495-55.665
		c-11.778-7.299-24.313-13.274-37.128-17.797c-29.658,28.28-52.821,52.378-58.821,59.019c-6.21-6.642-28.981-30.738-58.641-59.018
		c-12.815,4.523-25.169,10.498-36.947,17.797l56.495,55.665c6.726,6.627,6.766,17.413,0.089,24.09l-45.233,45.233
		c-6.677,6.677-17.544,6.719-24.271,0.093l-54.624-53.796c-0.917-0.903-1.727-1.911-2.44-2.985
		c-7.324,10.668-14.043,22.049-20.092,34.056c1.131,0.653,2.24,1.48,3.291,2.531l46.43,46.431c6.678,6.677,6.678,17.503,0,24.18
		l-45.233,45.233c-6.678,6.678-17.407,6.584-23.966-0.21l-9.758-10.105c-1.08-1.119-2.088-2.421-3.022-3.836
		c-2.477,17.233-3.787,35.001-3.787,53.17c0,18.279,1.327,36.153,3.833,53.485c0.983-1.462,2.048-2.8,3.19-3.941l9.33-9.33
		c6.677-6.677,17.55-6.724,24.284-0.106l45.024,44.248c6.734,6.619,6.782,17.397,0.104,24.074l-46.43,46.43
		c-1.051,1.052-2.16,1.878-3.291,2.531c6.312,12.532,13.351,24.392,21.05,35.459c0.744-1.184,1.599-2.295,2.587-3.284l53.611-53.61
		c6.677-6.678,17.55-6.725,24.284-0.105l45.023,44.248c6.735,6.619,6.782,17.397,0.104,24.074l-55.956,55.956
		c11.617,7.141,23.788,13,36.408,17.447l45.878-45.877c3.486-3.487,8.105-5.136,12.674-4.98c5-0.156,9.368,1.493,12.854,4.98
		l45.969,45.877c12.62-4.447,24.836-10.307,36.453-17.447l-55.934-55.956c-6.677-6.677-6.619-17.456,0.116-24.074l45.03-44.248
		c6.734-6.619,17.609-6.571,24.287,0.105l53.612,53.61c0.989,0.989,1.844,2.102,2.587,3.284
		c7.699-11.069,14.737-22.928,21.051-35.459c-1.132-0.653-2.24-1.479-3.291-2.531l-46.431-46.43
		c-6.677-6.677-6.63-17.455,0.105-24.074l45.023-44.248c6.735-6.618,17.607-6.571,24.285,0.106l9.33,9.33
		C700.174,685.902,701.238,687.239,702.222,688.7z M592.763,578.49c-6.678-6.677-17.549-6.724-24.284-0.105l-45.024,44.248
		c-6.734,6.619-6.781,17.396-0.104,24.074l45.232,45.233c6.678,6.677,17.551,6.725,24.285,0.105l45.024-44.248
		c6.734-6.619,6.782-17.397,0.104-24.074L592.763,578.49z"/>
</g>
<g>
</g>
<g>
</g>
<g>
</g>
<g>
</g>
<g>
</g>
<g>
</g>
<g>
</g>
<g>
</g>
<g>
</g>
<g>
</g>
<g>
</g>
<g>
</g>
<g>
</g>
<g>
</g>
<g>
</g>
</svg>
