<?xml version="1.0" encoding="utf-8"?>
<!-- Generator: Adobe Illustrator 16.0.0, SVG Export Plug-In . SVG Version: 6.00 Build 0)  -->
<!DOCTYPE svg PUBLIC "-//W3C//DTD SVG 1.1//EN" "http://www.w3.org/Graphics/SVG/1.1/DTD/svg11.dtd">
<svg version="1.1" id="Layer_1" xmlns="http://www.w3.org/2000/svg" xmlns:xlink="http://www.w3.org/1999/xlink" x="0px" y="0px"
	 width="1792px" height="1792px" viewBox="0 0 1792 1792" enable-background="new 0 0 1792 1792" xml:space="preserve">
<g>
	<path fill="#5E5E5E" d="M224,1601.5c-5.85,0-10.545-0.902-14.808-3H446.5V1120c0-5.85,0.902-10.544,3-14.808V1598.5h893v-493.308
		c2.098,4.263,3,8.958,3,14.808v478.5h237.308c-4.264,2.099-8.958,3-14.808,3H224z M193.5,1582.807c-2.099-4.263-3-8.958-3-14.808
		V224c0-5.85,0.902-10.544,3-14.807V1582.807z M1598.5,640c0-17.916-4.65-37.653-14.634-62.116
		c-10.072-24.675-20.771-42.174-33.668-55.075l-281.004-281.003c-12.791-12.788-29.997-23.431-54.154-33.498
		c-23.918-9.965-44.537-14.808-63.04-14.808h-62.5V672c0,10.155-2.718,16.83-9.694,23.806c-6.976,6.977-13.65,9.694-23.806,9.694
		H480c-10.155,0-16.83-2.717-23.805-9.693c-6.978-6.978-9.695-13.652-9.695-23.807V193.5H209.193c4.263-2.098,8.958-3,14.807-3h928
		c18.247,0,39.767,5.111,63.962,15.192c24.276,10.115,43.065,21.725,55.846,34.503l279.998,279.999
		c12.777,12.778,24.387,31.567,34.503,55.845c10.08,24.194,15.191,45.714,15.191,63.961v928c0,5.85-0.901,10.544-3,14.808V640z
		 M800,193.5c-25.078,0-48.763,9.875-66.694,27.806C715.375,239.237,705.5,262.922,705.5,288v320
		c0,25.081,9.876,48.768,27.81,66.698C751.233,692.623,774.92,702.5,800,702.5h192c25.077,0,48.764-9.875,66.694-27.806
		c17.931-17.931,27.806-41.617,27.806-66.694V288c0-25.075-9.874-48.759-27.802-66.69c-17.939-17.936-41.624-27.81-66.698-27.81H800
		z M465.193,1089.5c4.263-2.099,8.958-3,14.807-3h832c5.849,0,10.544,0.902,14.807,3H465.193z"/>
	<path d="M646.929,253c-2.595,11.359-3.929,23.083-3.929,35v320c0,11.918,1.333,23.64,3.928,35H509V256v-3H646.929 M1152,128H224
		c-26.667,0-49.334,9.334-68,28c-18.667,18.667-28,41.334-28,68v1344c0,26.667,9.333,49.334,28,68c18.666,18.667,41.333,28,68,28
		h1344c26.666,0,49.333-9.333,68-28c18.666-18.666,28-41.333,28-68V640c0-26.666-6.667-56-20-88c-13.334-32-29.334-57.333-48-76
		l-280-280c-18.667-18.666-44-34.666-76-48C1208,134.667,1178.666,128,1152,128L1152,128z M480,768h576c26.666,0,49.333-9.333,68-28
		c18.666-18.666,28-41.333,28-68V256c10,0,23,3.334,39,10c16,6.667,27.333,13.334,34,20l281,281c6.666,6.667,13.333,18.167,20,34.5
		c6.666,16.334,10,29.167,10,38.5v896h-128v-416c0-26.666-9.334-49.333-28-68c-18.667-18.666-41.334-28-68-28H480
		c-26.667,0-49.334,9.334-68,28c-18.667,18.667-28,41.334-28,68v416H256V256h128v416c0,26.667,9.333,49.334,28,68
		C430.666,758.667,453.333,768,480,768L480,768z M800,640c-8.667,0-16.167-3.166-22.5-9.5c-6.334-6.333-9.5-13.833-9.5-22.5V288
		c0-8.666,3.166-16.166,9.5-22.5c6.333-6.333,13.833-9.5,22.5-9.5h192c8.666,0,16.166,3.167,22.5,9.5
		c6.333,6.334,9.5,13.834,9.5,22.5v320c0,8.667-3.167,16.167-9.5,22.5c-6.334,6.334-13.834,9.5-22.5,9.5H800L800,640z M512,1536
		v-384h768v384H512L512,1536z"/>
</g>
</svg>
