<svg xmlns="http://www.w3.org/2000/svg" width="1792" height="1792" viewBox="0 0 1792 1792"><path fill="#6480A7" d="M1024 1618c-28.696 0-52.353-9.707-72.322-29.678L236.44 872.088c-22.768-22.167-42.564-53.34-58.841-92.652C161.276 740.017 153 703.871 153 672V256c0-28.022 10.035-51.68 30.678-72.322C204.321 163.034 227.978 153 256 153h416c31.868 0 68.015 8.276 107.436 24.599 39.417 16.321 71.005 36.199 93.887 59.08l714.763 713.763C1608.214 971.759 1618 995.824 1618 1024c0 28.695-9.708 52.353-29.678 72.322l-490.768 491.767C1076.24 1608.215 1052.176 1618 1024 1618zM448 295c-42.04 0-78.436 15.081-108.178 44.822C310.081 369.564 295 405.96 295 448s15.081 78.436 44.822 108.178C369.565 585.919 405.961 601 448 601s78.436-15.081 108.178-44.822C585.92 526.435 601 490.039 601 448s-15.081-78.436-44.822-108.178C526.436 310.08 490.04 295 448 295z"/><path fill="#4B6280" d="M672 178c28.569 0 61.499 7.636 97.871 22.696 36.368 15.059 65.227 33.112 85.798 53.684l714.476 713.478c15.589 16.61 22.854 34.467 22.854 56.143 0 22.029-7.104 39.393-22.355 54.645l-.018.018-.019.019-490.472 491.471C1063.529 1585.736 1045.674 1593 1024 1593c-22.029 0-39.394-7.104-54.62-22.331l-715-716-.249-.249-.251-.245c-20.32-19.784-38.213-48.147-53.184-84.304C185.636 733.5 178 700.572 178 672V256c0-21.347 7.421-38.71 23.355-54.645S234.654 178 256 178h416M448 626c24.186 0 47.153-4.436 68.265-13.184 21.107-8.746 40.483-21.854 57.59-38.961 17.106-17.106 30.215-36.482 38.961-57.59C621.565 495.154 626 472.186 626 448s-4.436-47.153-13.184-68.265c-8.746-21.107-21.854-40.484-38.961-57.59s-36.483-30.215-57.59-38.961C495.154 274.435 472.186 270 448 270s-47.154 4.436-68.266 13.184c-21.107 8.746-40.483 21.854-57.59 38.961-17.106 17.106-30.215 36.483-38.961 57.59C274.436 400.846 270 423.814 270 448s4.436 47.154 13.184 68.266c8.746 21.107 21.854 40.483 38.961 57.59 17.107 17.106 36.482 30.215 57.59 38.961C400.846 621.564 423.814 626 448 626m224-498H256c-34.667 0-64.667 12.667-90 38-25.334 25.334-38 55.334-38 90v416c0 35.334 8.833 74.334 26.5 117 17.666 42.667 39.166 76.334 64.5 101l715 716c24.666 24.667 54.666 37 90 37 34.666 0 65-12.333 91-37l491-492c24.666-24.666 37-54.666 37-90 0-34.666-12.334-65-37-91L891 219c-25.334-25.333-59.334-46.833-102-64.5-42.667-17.666-81.667-26.5-117-26.5zM448 576c-35.334 0-65.5-12.5-90.5-37.5S320 483.334 320 448c0-35.333 12.5-65.5 37.5-90.5S412.666 320 448 320c35.333 0 65.5 12.5 90.5 37.5S576 412.667 576 448c0 35.334-12.5 65.5-37.5 90.5S483.333 576 448 576z"/></svg>