<?xml version="1.0" encoding="utf-8"?>
<!-- Generator: Adobe Illustrator 16.0.0, SVG Export Plug-In . SVG Version: 6.00 Build 0)  -->
<!DOCTYPE svg PUBLIC "-//W3C//DTD SVG 1.1//EN" "http://www.w3.org/Graphics/SVG/1.1/DTD/svg11.dtd">
<svg version="1.1" id="Layer_1" xmlns="http://www.w3.org/2000/svg" xmlns:xlink="http://www.w3.org/1999/xlink" x="0px" y="0px"
	 width="1792px" height="1792px" viewBox="0 0 1792 1792" enable-background="new 0 0 1792 1792" xml:space="preserve">
<path fill="#262625" d="M704,1376V672c0-9.333-3-17-9-23s-13.667-9-23-9h-64c-9.334,0-17,3-23,9s-9,13.667-9,23v704
	c0,9.334,3,17,9,23s13.666,9,23,9h64c9.333,0,17-3,23-9S704,1385.334,704,1376z M960,1376V672c0-9.333-3-17-9-23s-13.667-9-23-9h-64
	c-9.334,0-17,3-23,9s-9,13.667-9,23v704c0,9.334,3,17,9,23s13.666,9,23,9h64c9.333,0,17-3,23-9S960,1385.334,960,1376z M1216,1376
	V672c0-9.333-3-17-9-23s-13.667-9-23-9h-64c-9.334,0-17,3-23,9s-9,13.667-9,23v704c0,9.334,3,17,9,23s13.666,9,23,9h64
	c9.333,0,17-3,23-9S1216,1385.334,1216,1376z M672,384h448l-48-117c-4.667-6-10.334-9.666-17-11H738c-6.667,1.334-12.334,5-17,11
	L672,384z M1600,416v64c0,9.334-3,17-9,23s-13.667,9-23,9h-96v948c0,55.334-15.667,103.167-47,143.5
	c-31.334,40.334-69,60.5-113,60.5H480c-44,0-81.667-19.5-113-58.5c-31.334-39-47-86.166-47-141.5V512h-96c-9.334,0-17-3-23-9
	s-9-13.666-9-23v-64c0-9.333,3-17,9-23s13.666-9,23-9h309l70-167c10-24.666,28-45.666,54-63c26-17.333,52.333-26,79-26h320
	c26.666,0,53,8.667,79,26c26,17.334,44,38.334,54,63l70,167h309c9.333,0,17,3,23,9S1600,406.667,1600,416z"/>
</svg>
