<svg xmlns="http://www.w3.org/2000/svg" width="1792" height="1792" viewBox="0 0 1792 1792"><path fill="#5BA012" d="M896 1638.5c-110.371 0-216.754-23.585-316.196-70.098-99.017-46.314-184.579-112.475-254.332-196.66-1.155-1.873-1.592-3.729-1.493-6.221.102-2.54.696-3.135 1.052-3.49l136.412-137.407c1.169-.953 2.854-1.853 6.011-2.072 2.434.45 3.485 1.034 3.744 1.198l.237.339.345.448c50.85 66.176 114.099 118.109 187.99 154.356 73.86 36.234 153.34 54.606 236.23 54.606 72.482 0 142.647-14.319 208.545-42.562 65.701-28.158 123.397-66.818 171.486-114.907s86.749-105.785 114.907-171.486c28.242-65.897 42.562-136.062 42.562-208.545s-14.319-142.647-42.562-208.545c-28.158-65.701-66.818-123.397-114.907-171.486s-105.785-86.75-171.486-114.907C1038.648 372.82 968.483 358.5 896 358.5c-68.243 0-134.643 12.542-197.356 37.278-62.751 24.752-119.32 60.641-168.137 106.668l-19.037 17.95 155.614 156.75.184.178c12.991 12.572 15.412 24.302 8.357 40.486l-.092.215C668.241 735.18 657.615 742.5 640 742.5H192c-10.533 0-19.102-3.664-26.968-11.53-7.868-7.868-11.532-16.437-11.532-26.97V256c0-17.614 7.319-28.241 24.475-35.532l.215-.092c5.931-2.585 11.417-3.896 16.306-3.896 5.29 0 13.551 1.27 24.18 12.254l.363.367 147.518 146.384 17.947-16.94c68.679-64.828 148.263-115.766 236.541-151.397C709.235 171.549 801.744 153.5 896 153.5c100.032 0 196.907 19.827 287.936 58.93 91.236 39.193 170.985 92.555 237.033 158.602 66.047 66.047 119.408 145.797 158.602 237.034 39.103 91.028 58.93 187.903 58.93 287.935 0 100.032-19.827 196.908-58.93 287.936-39.193 91.237-92.555 170.986-158.602 237.033-66.048 66.048-145.797 119.409-237.033 158.602-91.027 39.101-187.902 58.928-287.936 58.928z"/><path fill="#245604" d="M896 179c48.328 0 96.195 4.782 142.272 14.214 46.044 9.425 91.665 23.773 135.598 42.645 44.241 19.005 85.964 41.555 124.01 67.023 37.885 25.359 73.231 54.355 105.058 86.18 31.825 31.827 60.821 67.173 86.181 105.058 25.468 38.046 48.018 79.769 67.022 124.009 18.872 43.933 33.22 89.555 42.645 135.599C1608.218 799.804 1613 847.671 1613 896c0 48.328-4.782 96.196-14.215 142.272-9.425 46.044-23.772 91.666-42.645 135.598-19.005 44.241-41.555 85.965-67.022 124.011-25.359 37.885-54.354 73.23-86.181 105.057s-67.173 60.822-105.058 86.182c-38.046 25.468-79.769 48.017-124.01 67.021-43.932 18.872-89.554 33.221-135.598 42.646C992.197 1608.218 944.329 1613 896 1613c-53.359 0-106.084-5.691-156.711-16.916-50.608-11.22-100.631-28.305-148.681-50.78-48.016-22.459-93.059-49.878-133.877-81.497-36.412-28.206-70.435-60.505-101.325-96.177l109.739-110.54c23.094 27.848 48.5 53.205 75.738 75.573 32.734 26.883 68.955 50.14 107.655 69.124 38.661 18.966 79.111 33.401 120.228 42.903C809.851 1454.185 852.658 1459 896 1459c75.956 0 149.5-15.014 218.59-44.624 68.695-29.44 129.079-69.92 179.473-120.313s90.873-110.777 120.313-179.473C1443.987 1045.5 1459 971.956 1459 896c0-75.956-15.014-149.5-44.624-218.59-29.44-68.696-69.92-129.079-120.313-179.473s-110.777-90.873-179.473-120.313C1045.5 348.013 971.956 333 896 333c-71.459 0-141.007 13.141-206.714 39.058-65.78 25.947-125.087 63.574-176.273 111.835l-38.075 35.9 36.869 37.138 137 138 .359.362.367.355c3.853 3.729 4.482 5.731 4.483 5.73.056.439-.148 2.529-1.768 6.244l-.094.214-.091.215c-1.933 4.549-3.815 6.979-4.933 7.736-.864.586-3.192 1.213-7.13 1.213H192c-3.303 0-5.483-.608-8.939-4.064-3.453-3.453-4.061-5.633-4.061-8.936V256c0-3.938.626-6.266 1.213-7.131.757-1.117 3.188-3 7.736-4.933l.215-.092.214-.094c3.869-1.687 5.774-1.771 6.117-1.771.065 0 .103.002.111.002h.001c.103.032 2.098.717 5.745 4.485l.359.371.366.364 130 129 35.037 34.767 35.894-33.881c33.19-31.329 69.228-59.509 107.112-83.758 37.905-24.262 78.773-45.303 121.47-62.536 42.613-17.2 86.537-30.275 130.551-38.861C805.126 183.35 850.499 179 896 179m0-51c-98 0-192.834 18.5-284.5 55.5-91.667 37-173.167 89.167-244.5 156.5L237 211c-12.917-13.348-27.084-20.021-42.504-20.021-8.455 0-17.289 2.007-26.496 6.021-26.667 11.334-40 31-40 59v448c0 17.334 6.333 32.334 19 45 12.666 12.667 27.666 19 45 19h448c28 0 47.666-13.333 59-40 11.333-26 6.666-49-14-69L548 521c46.666-44 100-77.833 160-101.5 60-23.666 122.666-35.5 188-35.5 69.333 0 135.5 13.5 198.5 40.5S1212 488 1258 534s82.5 100.5 109.5 163.5S1408 826.667 1408 896c0 69.334-13.5 135.5-40.5 198.5S1304 1212 1258 1258s-100.5 82.5-163.5 109.5S965.333 1408 896 1408c-79.334 0-154.334-17.333-225-52-70.667-34.666-130.334-83.666-179-147-4.667-6.666-12.334-10.666-23-12-10 0-18.334 3-25 9l-137 138c-5.334 5.334-8.167 12.167-8.5 20.5-.334 8.334 1.833 15.834 6.5 22.5 72.666 88 160.666 156.167 264 204.5 103.333 48.334 212.333 72.5 327 72.5 104 0 203.333-20.333 298-61 94.666-40.666 176.333-95.333 245-164 68.666-68.666 123.333-150.333 164-245 40.666-94.666 61-194 61-298s-20.334-203.333-61-298c-40.667-94.666-95.334-176.333-164-245-68.667-68.666-150.334-123.333-245-164-94.667-40.666-194-61-298-61z"/></svg>