<?xml version="1.0" encoding="UTF-8" standalone="no"?>
<svg
   xmlns:dc="http://purl.org/dc/elements/1.1/"
   xmlns:cc="http://creativecommons.org/ns#"
   xmlns:rdf="http://www.w3.org/1999/02/22-rdf-syntax-ns#"
   xmlns:svg="http://www.w3.org/2000/svg"
   xmlns="http://www.w3.org/2000/svg"
   xmlns:sodipodi="http://sodipodi.sourceforge.net/DTD/sodipodi-0.dtd"
   xmlns:inkscape="http://www.inkscape.org/namespaces/inkscape"
   width="1792"
   height="1792"
   viewBox="0 0 1792 1792"
   version="1.1"
   id="svg6"
   sodipodi:docname="undo.svg"
   inkscape:version="0.92.3 (2405546, 2018-03-11)">
  <metadata
     id="metadata12">
    <rdf:RDF>
      <cc:Work
         rdf:about="">
        <dc:format>image/svg+xml</dc:format>
        <dc:type
           rdf:resource="http://purl.org/dc/dcmitype/StillImage" />
      </cc:Work>
    </rdf:RDF>
  </metadata>
  <defs
     id="defs10" />
  <sodipodi:namedview
     pagecolor="#ffffff"
     bordercolor="#666666"
     borderopacity="1"
     objecttolerance="10"
     gridtolerance="10"
     guidetolerance="10"
     inkscape:pageopacity="0"
     inkscape:pageshadow="2"
     inkscape:window-width="2400"
     inkscape:window-height="1271"
     id="namedview8"
     showgrid="false"
     inkscape:zoom="0.26339286"
     inkscape:cx="432.06299"
     inkscape:cy="630.42247"
     inkscape:window-x="2551"
     inkscape:window-y="-9"
     inkscape:window-maximized="1"
     inkscape:current-layer="svg6" />
  <path
     d="m 895.99945,1695.3936 c -118.8281,0 -233.36262,-25.3922 -340.42429,-75.4692 -106.60411,-49.8628 -198.72224,-121.0933 -273.82002,-211.7289 -1.2435,-2.0166 -1.71398,-4.0148 -1.6074,-6.6977 0.10982,-2.7347 0.74934,-3.3752 1.13261,-3.7574 l 146.86448,-147.9358 c 1.25857,-1.026 3.07268,-1.9949 6.47159,-2.2307 2.6205,0.4845 3.75203,1.1132 4.03088,1.2898 l 0.25516,0.3649 0.37143,0.4824 c 54.74635,71.2467 122.84176,127.159 202.3946,166.1834 79.51948,39.0104 165.08957,58.7901 254.33096,58.7901 78.03584,0 153.57725,-15.4161 224.52465,-45.8232 70.7353,-30.3156 132.8522,-71.9379 184.626,-123.7117 51.7738,-51.7738 93.3961,-113.8907 123.7116,-184.626 30.4061,-70.9463 45.8233,-146.48769 45.8233,-224.52465 0,-78.03696 -15.4162,-153.57723 -45.8233,-224.52462 -30.3155,-70.73529 -71.9378,-132.85221 -123.7116,-184.62599 -51.7738,-51.77379 -113.8907,-93.39716 -184.626,-123.71167 -70.9463,-30.40495 -146.48771,-45.82221 -224.52465,-45.82221 -73.47207,0 -144.95992,13.50302 -212.47826,40.1344 -67.55925,26.64861 -128.46281,65.28758 -181.02038,114.84136 l -20.4957,19.32541 167.53781,168.76086 0.1981,0.19164 c 13.98643,13.53532 16.59294,26.16412 8.99735,43.58821 l -0.099,0.23147 c -7.85074,18.46949 -19.29095,26.35038 -38.25569,26.35038 H 138.05595 c -11.34009,0 -20.56568,-3.94475 -29.03441,-12.41348 -8.47088,-8.47088 -12.41563,-17.69647 -12.41563,-29.03655 V 206.96047 c 0,-18.96366 7.87981,-30.40495 26.35038,-38.25461 l 0.23147,-0.0991 c 6.38546,-2.78308 12.29182,-4.19453 17.55544,-4.19453 5.69534,0 14.58934,1.36731 26.03278,13.19295 l 0.39081,0.39512 158.82146,157.60058 19.32218,-18.23802 c 73.94148,-69.7954 159.62355,-124.63649 254.66579,-162.99769 94.9475,-38.32675 194.54493,-57.75874 296.02323,-57.75874 107.69685,0 211.99485,21.34623 309.99895,63.44547 98.2269,42.19614 184.0866,99.64696 255.1954,170.75477 71.1079,71.1078 128.5576,156.96859 170.7548,255.19656 42.0993,98.00296 63.4455,202.30094 63.4455,309.99782 0,107.69685 -21.3462,211.99595 -63.4455,309.99895 -42.1961,98.228 -99.6469,184.0877 -170.7548,255.1955 -71.1088,71.1089 -156.9685,128.5586 -255.1954,170.7548 -98.0019,42.0971 -202.2999,63.4433 -309.99895,63.4433 z"
     id="path2"
     style="fill:#54b218;fill-opacity:1;stroke-width:1"
     inkscape:connector-curvature="0" />
  <path
     d="m 896.00001,124.06039 c 52.03114,0 103.56584,5.14841 153.17359,15.30313 49.572,10.14719 98.6887,25.5946 145.9881,45.91265 47.6309,20.46125 92.5509,44.73912 133.5121,72.15859 40.7879,27.30212 78.8423,58.51992 113.108,92.78348 34.2635,34.26573 65.4813,72.32009 92.7846,113.108 27.4195,40.96125 51.6972,85.88124 72.1574,133.5111 20.3181,47.29934 35.7655,96.41709 45.9127,145.98918 10.1547,49.60654 15.3031,101.14132 15.3031,153.17349 0,52.0311 -5.1484,103.56695 -15.3042,153.17349 -10.1472,49.5721 -25.5935,98.6899 -45.9126,145.9881 -20.4613,47.631 -44.7392,92.5521 -72.1576,133.5133 -27.3021,40.7879 -58.5188,78.8412 -92.7845,113.1069 -34.2658,34.2657 -72.32,65.4825 -113.108,92.7857 -40.9613,27.4194 -85.8813,51.6962 -133.5121,72.1564 -47.2983,20.318 -96.4161,35.7665 -145.9881,45.9137 -49.60445,10.1537 -101.14035,15.3021 -153.17249,15.3021 -57.44759,0 -114.21261,-6.1271 -168.71887,-18.2122 -54.4858,-12.0797 -108.34178,-30.4739 -160.07358,-54.671 -51.69519,-24.1799 -100.18958,-53.6998 -144.13523,-87.7416 -39.20204,-30.3673 -75.83203,-65.1412 -109.08895,-103.5465 l 118.14767,-119.0101 c 24.86356,29.9819 52.21628,57.2818 81.54137,81.3637 35.24222,28.9429 74.23863,53.982 115.90399,74.4206 41.62337,20.4193 85.17283,35.9604 129.44039,46.1904 44.23311,10.2226 90.32016,15.4065 136.98321,15.4065 81.77604,0 160.95539,-16.1644 235.33939,-48.0432 73.9586,-31.6959 138.9696,-75.2776 193.225,-129.5319 54.2554,-54.2544 97.8359,-119.2653 129.5319,-193.225 31.8799,-74.3841 48.0432,-153.56331 48.0432,-235.33939 0,-81.77607 -16.1644,-160.95533 -48.0432,-235.3393 -31.696,-73.95979 -75.2776,-138.96959 -129.5319,-193.225 -54.2545,-54.2554 -119.2653,-97.83608 -193.225,-129.5319 -74.384,-31.87992 -153.56335,-48.04328 -235.33939,-48.04328 -76.93449,0 -151.81156,14.14792 -222.55331,42.05079 -70.82035,27.93517 -134.67171,68.44532 -189.7798,120.40428 l -40.99247,38.65081 39.69406,39.98368 147.49753,148.57415 0.38651,0.38974 0.39512,0.3822 c 4.14824,4.01473 4.82543,6.17013 4.82651,6.16906 0.0603,0.47264 -0.15934,2.72278 -1.90347,6.72244 l -0.10121,0.2304 -0.098,0.23147 c -2.08111,4.89757 -4.10732,7.51376 -5.31099,8.32877 -0.9302,0.6309 -3.43658,1.30594 -7.67633,1.30594 H 138.05651 c -3.55609,0 -5.90314,-0.65458 -9.62395,-4.3754 -3.71758,-3.71758 -4.37217,-6.06462 -4.37217,-9.62071 V 206.96046 c 0,-4.23975 0.67397,-6.74613 1.30595,-7.67741 0.815,-1.20259 3.43227,-3.22987 8.32876,-5.31098 l 0.23148,-0.099 0.23039,-0.10121 c 4.16546,-1.81626 6.21643,-1.9067 6.58571,-1.9067 0.07,0 0.1109,0.002 0.11951,0.002 h 0.001 c 0.11089,0.0345 2.25875,0.77194 6.1852,4.82866 l 0.38651,0.39943 0.39404,0.39189 139.96116,138.88454 37.72169,37.431 38.64435,-36.47711 c 35.73316,-33.72957 74.53255,-64.06884 115.31938,-90.1759 40.80953,-26.12096 84.80901,-48.77421 130.77764,-67.32768 45.87819,-18.51794 93.16783,-32.5948 140.55438,-41.8387 47.35532,-9.23959 96.20499,-13.9229 145.19247,-13.9229 m 0,-54.907845 c -105.50918,0 -207.60977,19.91755 -306.29961,59.752645 C 491.00948,168.7403 403.2646,224.90456 326.46576,297.3969 L 186.5046,158.51236 c -13.90676,-14.37078 -29.15929,-21.55509 -45.76084,-21.55509 -9.10286,0 -18.61376,2.16078 -28.52624,6.48235 -28.71034,12.20246 -43.06497,33.37536 -43.06497,63.52084 v 482.32769 c 0,18.6622 6.81826,34.81157 20.45586,48.44809 13.63653,13.6376 29.78589,20.45586 48.4481,20.45586 h 482.32768 c 30.14548,0 51.31838,-14.35463 63.52084,-43.06497 12.20138,-27.99223 7.17677,-52.75459 -15.07274,-74.28708 L 521.33476,492.2659 c 50.24175,-47.37147 107.66243,-83.7969 172.25988,-109.27737 64.59746,-25.47939 132.0652,-38.22016 202.40537,-38.22016 74.64564,0 145.88269,14.53442 213.70999,43.60329 67.8272,29.06885 126.5033,68.36564 176.0281,117.89036 49.5246,49.52471 88.8215,108.20074 117.8903,176.02807 29.0689,67.82733 43.6033,139.06433 43.6033,213.70992 0,74.64667 -14.5344,145.88259 -43.6033,213.70999 -29.0688,67.8273 -68.3657,126.5033 -117.8903,176.028 -49.5248,49.5248 -108.2009,88.8216 -176.0281,117.8904 -67.8273,29.0689 -139.06435,43.6033 -213.70999,43.6033 -85.41291,0 -166.15973,-18.6611 -242.24046,-55.9845 -76.08181,-37.3222 -140.32076,-90.0768 -192.71575,-158.2637 -5.02461,-7.1768 -13.27909,-11.4833 -24.76236,-12.9195 -10.76625,0 -19.73883,3.2298 -26.91561,9.6896 L 261.8683,1378.3277 c -5.74271,5.7428 -8.79279,13.0993 -9.15131,22.0708 -0.35959,8.9726 1.97346,17.0473 6.99806,24.2241 78.23398,94.7429 172.97692,168.1332 284.22882,220.1697 111.25082,52.0375 228.60286,78.0552 352.05614,78.0552 111.96899,0 218.91329,-21.891 320.83409,-65.6741 101.9196,-43.782 189.8443,-102.6378 263.773,-176.5664 73.9274,-73.9274 132.7833,-161.8521 176.5663,-263.7729 43.7819,-101.9197 65.674,-208.8652 65.674,-320.83409 0,-111.96892 -21.8921,-218.91325 -65.674,-320.83404 C 1613.3904,473.24626 1554.5345,385.32158 1480.6071,311.39302 1406.6785,237.46553 1318.7538,178.60971 1216.8341,134.82663 1114.9133,91.044624 1007.969,69.152545 896.00001,69.152545 Z"
     id="path4"
     style="fill:#54b218;fill-opacity:1;stroke-width:1"
     inkscape:connector-curvature="0" />
</svg>
