<?xml version="1.0" encoding="utf-8"?>
<!-- Generator: Adobe Illustrator 16.0.0, SVG Export Plug-In . SVG Version: 6.00 Build 0)  -->
<!DOCTYPE svg PUBLIC "-//W3C//DTD SVG 1.1//EN" "http://www.w3.org/Graphics/SVG/1.1/DTD/svg11.dtd">
<svg version="1.1" id="Layer_1" xmlns="http://www.w3.org/2000/svg" xmlns:xlink="http://www.w3.org/1999/xlink" x="0px" y="0px"
	 width="1792px" height="1792px" viewBox="0 0 1792 1792" enable-background="new 0 0 1792 1792" xml:space="preserve">
<g>
	<path fill="#444444" d="M459,1765c-37.033,0-70.643-5.313-99.895-15.793c-28.615-10.251-54.013-25.815-75.488-46.262
		c-21.303-20.281-37.51-44.599-48.173-72.276C224.533,1602.343,219,1569.481,219,1533c0-34.559,1.156-68.753,3.436-101.633
		c2.255-32.539,6.844-68.234,13.64-106.098c6.758-37.65,15.384-72.992,25.64-105.04c10.048-31.401,23.761-62.484,40.757-92.387
		c16.623-29.242,35.866-54.421,57.197-74.838c20.691-19.804,46.521-35.921,76.773-47.902c29.799-11.802,63.3-17.888,99.609-18.097
		c2.512,0.894,10.665,4.383,30.209,17.116c21.827,14.222,46.33,30.333,72.828,47.887c28.604,18.951,66.845,36.177,113.662,51.2
		C799.875,1118.332,848.072,1126,896,1126c47.928,0,96.124-7.668,143.25-22.791c46.815-15.023,85.057-32.249,113.662-51.2
		c26.44-17.518,50.943-33.629,72.827-47.887c19.546-12.734,27.697-16.224,30.209-17.116c36.309,0.209,69.81,6.295,99.61,18.098
		c30.25,11.98,56.08,28.098,76.772,47.902c21.331,20.418,40.575,45.597,57.196,74.837c16.995,29.898,30.708,60.981,40.758,92.387
		c10.256,32.055,18.883,67.396,25.64,105.04c6.794,37.854,11.384,73.551,13.64,106.098c2.279,32.894,3.436,67.088,3.436,101.633
		c0,36.481-5.533,69.342-16.445,97.669c-10.662,27.678-26.87,51.995-48.172,72.276c-21.476,20.445-46.874,36.011-75.489,46.262
		C1403.642,1759.686,1370.032,1765,1333,1765H459z M1540.368,997c-62.225-70.095-139.691-111.742-230.891-124.217
		C1350.333,800.886,1371,722.782,1371,640c0-8.985-0.341-18.544-1.018-28.624C1403.788,619.763,1437.958,624,1472,624
		c42.265,0,85.366-7.766,128.108-23.083c41.218-14.769,75.396-29.694,101.584-44.359c21.002-11.761,30.008-15.984,33.559-17.469
		c12.35,0.687,22.721,5.361,32.413,14.559c12.29,11.663,23.01,30.353,31.861,55.55C1819.083,664.874,1829,750.939,1829,865
		c0,43.204-14.661,74.809-44.822,96.622C1751.718,985.097,1710.612,997,1662,997H1540.368z M896,997
		c-49.188,0-95.294-8.771-137.04-26.068c-41.748-17.299-80.563-43.718-115.369-78.523s-61.225-73.621-78.523-115.369
		C547.771,735.294,539,689.187,539,640s8.771-95.294,26.068-137.04c17.299-41.748,43.718-80.563,78.523-115.369
		s73.621-61.225,115.369-78.523C800.706,291.77,846.813,283,896,283s95.294,8.771,137.039,26.068
		c41.748,17.299,80.563,43.718,115.369,78.523s61.225,73.621,78.523,115.369C1244.23,544.706,1253,590.812,1253,640
		s-8.771,95.294-26.068,137.04c-17.299,41.748-43.718,80.563-78.523,115.369s-73.621,61.225-115.369,78.523
		C991.294,988.229,945.188,997,896,997z M130,997c-48.612,0-89.718-11.902-122.178-35.378C-22.338,939.809-37,908.204-37,865
		c0-114.062,9.917-200.125,29.474-255.802C1.326,584,12.045,565.31,24.335,553.648c9.693-9.198,20.065-13.873,32.414-14.559
		c3.551,1.484,12.556,5.708,33.559,17.469c26.188,14.665,60.366,29.59,101.584,44.36C234.634,616.234,277.736,624,320,624
		c34.042,0,68.212-4.236,102.018-12.624C421.341,621.454,421,631.012,421,640c0,82.783,20.667,160.886,61.522,232.783
		c-91.2,12.475-168.666,54.122-230.89,124.217H130z M1472,485c-63.802,0-116.762-21.946-161.908-67.092
		C1264.947,372.762,1243,319.802,1243,256s21.946-116.762,67.092-161.908C1355.239,48.946,1408.198,27,1472,27
		s116.762,21.946,161.908,67.092C1679.054,139.238,1701,192.198,1701,256s-21.946,116.762-67.092,161.908
		C1588.762,463.054,1535.802,485,1472,485z M320,485c-63.802,0-116.762-21.946-161.908-67.092S91,319.802,91,256
		s21.946-116.762,67.092-161.908S256.198,27,320,27s116.762,21.946,161.908,67.092S549,192.198,549,256
		s-21.946,116.762-67.092,161.908S383.802,485,320,485z"/>
	<path d="M1472,54c56.276,0,102.991,19.359,142.816,59.184C1654.641,153.008,1674,199.723,1674,256s-19.359,102.992-59.184,142.816
		C1574.991,438.64,1528.277,458,1472,458s-102.991-19.359-142.816-59.184C1289.36,358.991,1270,312.276,1270,256
		s19.359-102.992,59.184-142.816C1369.009,73.359,1415.724,54,1472,54 M320,54c56.276,0,102.992,19.359,142.816,59.184
		C502.641,153.008,522,199.723,522,256s-19.359,102.992-59.184,142.816C422.992,438.64,376.277,458,320,458
		s-102.992-19.359-142.816-59.184C137.36,358.991,118,312.276,118,256s19.359-102.992,59.184-142.816
		C217.009,73.359,263.724,54,320,54 M896,310c45.623,0,88.252,8.079,126.704,24.012c38.456,15.935,74.325,40.386,106.612,72.672
		c32.286,32.287,56.736,68.156,72.672,106.612C1217.921,551.748,1226,594.377,1226,640s-8.079,88.252-24.012,126.704
		c-15.936,38.456-40.386,74.326-72.672,106.612c-32.287,32.286-68.156,56.736-106.612,72.672C984.252,961.921,941.623,970,896,970
		c-45.623,0-88.252-8.079-126.704-24.012c-38.456-15.936-74.326-40.386-106.612-72.672c-32.287-32.287-56.737-68.156-72.672-106.612
		C574.079,728.252,566,685.622,566,640s8.079-88.252,24.012-126.704c15.935-38.456,40.386-74.326,72.672-106.612
		c32.286-32.286,68.156-56.737,106.612-72.672C807.748,318.079,850.378,310,896,310 M52.71,567.012
		c4.746,2.369,12.415,6.388,24.405,13.103c27.879,15.612,62.444,30.731,105.668,46.219C228.457,642.701,274.623,651,320,651
		c24.679,0,49.41-2.088,74.022-6.236c0.457,49.986,8.103,98.751,22.744,145.026c6.75,21.334,15.059,42.361,24.867,62.962
		C363.744,870.5,296.131,909.731,239.709,970H130c-43.415,0-78.204-9.896-106.355-30.256c-11.272-8.153-19.392-17.701-24.822-29.191
		C-7.031,898.165-10,882.838-10,865c0-111.006,9.403-194.06,27.948-246.853c9.239-26.304,18.68-38.942,24.972-44.914
		C46.468,569.867,49.622,568.002,52.71,567.012 M1739.29,567.012c3.088,0.99,6.242,2.855,9.789,6.221
		c6.293,5.971,15.732,18.61,24.973,44.914C1792.597,670.94,1802,753.993,1802,865c0,17.838-2.969,33.164-8.822,45.553
		c-5.431,11.49-13.55,21.038-24.822,29.191C1740.204,960.103,1705.415,970,1662,970h-109.708
		c-56.423-60.269-124.036-99.5-201.925-117.248c9.809-20.601,18.117-41.628,24.867-62.962
		c14.642-46.274,22.287-95.04,22.744-145.026C1422.59,648.911,1447.321,651,1472,651c45.377,0,91.543-8.298,137.215-24.665
		c43.226-15.489,77.791-30.607,105.67-46.22C1726.875,573.4,1734.544,569.381,1739.29,567.012 M530.427,1014.093
		c3.622,1.865,10.242,5.581,21.094,12.651c21.768,14.182,46.212,30.256,72.654,47.772c31.101,20.604,70.459,38.399,120.324,54.4
		C794.296,1144.897,845.268,1153,896,1153c50.731,0,101.703-8.103,151.5-24.082c49.864-16.002,89.223-33.796,120.323-54.4
		c26.397-17.488,50.842-33.562,72.654-47.772c10.854-7.071,17.474-10.787,21.096-12.652c30.701,0.761,58.939,6.172,84.042,16.113
		c26.992,10.69,49.887,24.924,68.046,42.304c19.439,18.607,37.067,41.713,52.394,68.675c16.074,28.28,29.032,57.644,38.514,87.272
		c9.896,30.925,18.233,65.103,24.781,101.583c6.623,36.899,11.091,71.619,13.279,103.193c2.236,32.275,3.371,65.843,3.371,99.767
		c0,65.171-18.395,114.364-56.234,150.391c-18.995,18.084-40.577,31.299-65.978,40.398c-26.322,9.43-56.868,14.211-90.788,14.211
		H459c-33.921,0-64.466-4.781-90.789-14.211c-25.401-9.1-46.982-22.314-65.977-40.399C264.395,1647.364,246,1598.172,246,1533
		c0-33.935,1.134-67.501,3.371-99.767c2.188-31.568,6.656-66.287,13.28-103.193c6.548-36.485,14.886-70.663,24.78-101.583
		c9.48-29.627,22.438-58.989,38.515-87.271c15.327-26.964,32.955-50.069,52.393-68.675c18.159-17.381,41.053-31.614,68.044-42.305
		C471.487,1020.264,499.725,1014.853,530.427,1014.093 M1472,0c-70.667,0-131,25-181,75s-75,110.334-75,181c0,70.667,25,131,75,181
		s110.333,75,181,75c70.666,0,131-25,181-75s75-110.333,75-181c0-70.666-25-131-75-181S1542.666,0,1472,0L1472,0z M320,0
		c-70.667,0-131,25-181,75S64,185.334,64,256c0,70.667,25,131,75,181s110.333,75,181,75c70.666,0,131-25,181-75s75-110.333,75-181
		c0-70.666-25-131-75-181S390.666,0,320,0L320,0z M896,256c-106,0-196.5,37.5-271.5,112.5S512,534,512,640s37.5,196.5,112.5,271.5
		S790,1024,896,1024s196.5-37.5,271.5-112.5S1280,746,1280,640s-37.5-196.5-112.5-271.5S1002,256,896,256L896,256z M1732,512
		c-4,0-18.5,7-43.5,21s-57.5,28.167-97.5,42.5c-40,14.334-79.667,21.5-119,21.5c-44.667,0-89-7.666-133-23
		c3.333,24.667,5,46.667,5,66c0,92.667-27,178-81,256c108,3.334,196.333,46,265,128h134c54.666,0,100.666-13.5,138-40.5
		c37.333-27,56-66.5,56-118.5C1856,629.667,1814.666,512,1732,512L1732,512z M60,512c-82.667,0-124,117.667-124,353
		c0,52,18.666,91.5,56,118.5c37.333,27,83.333,40.5,138,40.5h134c68.666-82,157-124.666,265-128c-54-78-81-163.333-81-256
		c0-19.333,1.666-41.333,5-66c-44,15.334-88.334,23-133,23c-39.334,0-79-7.166-119-21.5c-40-14.333-72.5-28.5-97.5-42.5
		S64,512,60,512L60,512z M1254,960c-6.667,0-21,7.167-43,21.5c-22,14.334-46.334,30.334-73,48c-26.667,17.667-62.334,33.667-107,48
		c-44.667,14.334-89.667,21.5-135,21.5c-45.334,0-90.334-7.166-135-21.5c-44.667-14.333-80.334-30.333-107-48
		c-26.667-17.666-51-33.666-73-48c-22-14.333-36.334-21.5-43-21.5c-40.667,0-77.834,6.667-111.5,20
		c-33.667,13.334-62.167,31.167-85.5,53.5c-23.334,22.334-44,49.334-62,81c-18,31.667-32.334,64.167-43,97.5
		c-10.667,33.334-19.5,69.5-26.5,108.5s-11.667,75.334-14,109c-2.334,33.667-3.5,68.167-3.5,103.5c0,80,24.333,143.167,73,189.5
		c48.666,46.334,113.333,69.5,194,69.5h874c80.666,0,145.333-23.166,194-69.5c48.666-46.333,73-109.5,73-189.5
		c0-35.333-1.167-69.833-3.5-103.5c-2.334-33.666-7-70-14-109s-15.834-75.166-26.5-108.5c-10.667-33.333-25-65.833-43-97.5
		c-18-31.666-38.667-58.666-62-81c-23.334-22.333-51.834-40.166-85.5-53.5C1331.833,966.667,1294.666,960,1254,960L1254,960z"/>
</g>
</svg>
