<svg xmlns="http://www.w3.org/2000/svg" width="1792" height="1792" viewBox="0 0 1792 1792"><path fill="#6480A7" d="M139 1644c-37.855 0-72.273-5.415-102.298-16.094-29.547-10.509-55.777-26.47-77.963-47.441-22.029-20.821-38.791-45.933-49.819-74.638C-102.307 1476.606-108 1442.683-108 1405c0-34.72 1.162-69.077 3.452-102.117 2.272-32.788 6.893-68.737 13.733-106.85 6.813-37.955 15.514-73.598 25.863-105.938 10.195-31.86 24.103-63.39 41.339-93.713 16.958-29.832 36.621-55.548 58.442-76.435 21.348-20.433 47.939-37.038 79.036-49.354C145.02 858.256 180.056 852 218 852c7.729 0 16.492 4.118 26.048 12.239l.262.224.271.214c52.69 41.742 107.203 73.538 162.025 94.504C461.813 980.294 518.806 991 576 991s114.187-10.706 169.394-31.819c54.822-20.966 109.335-52.762 162.025-94.504l.271-.214.263-.224C917.507 856.117 926.271 852 934 852c5.368 0 10.794.183 16.262.546-7.099 8.772-12.958 17.271-17.673 25.613C922.245 896.459 917 918.612 917 944c0 41.33 14.42 76.705 42.858 105.143L1126.716 1216l-166.857 166.858C931.419 1411.296 917 1446.671 917 1488c0 40.667 14.42 75.705 42.858 104.143l51.857 51.857H139zm1605-9c-5.037 0-7.304-1.588-8.858-3.142L1472 1368.716l-263.142 263.143c-1.555 1.554-3.821 3.142-8.858 3.142-3.35 0-5.626-.91-7.858-3.142l-136-136c-2.231-2.232-3.142-4.509-3.142-7.858 0-5.037 1.588-7.304 3.142-8.858L1319.284 1216l-263.143-263.142c-1.554-1.555-3.142-3.821-3.142-8.858 0-3.35.91-5.626 3.142-7.858l136-136c2.232-2.232 4.509-3.142 7.858-3.142 5.037 0 7.304 1.588 8.858 3.142L1472 1063.284l263.142-263.142c1.555-1.554 3.821-3.142 8.858-3.142 3.35 0 5.626.91 7.858 3.142l136 136c2.231 2.232 3.142 4.509 3.142 7.858 0 5.037-1.588 7.304-3.142 8.858L1624.716 1216l263.143 263.142c1.554 1.555 3.142 3.821 3.142 8.858 0 3.35-.91 5.626-3.142 7.858l-136 136c-2.233 2.232-4.509 3.142-7.859 3.142zM576 876c-50.112 0-97.12-8.95-139.719-26.602-42.601-17.652-82.18-44.582-117.639-80.041s-62.388-75.038-80.041-117.639C220.95 609.12 212 562.112 212 512s8.95-97.12 26.602-139.719c17.652-42.601 44.582-82.18 80.041-117.639s75.038-62.388 117.639-80.041C478.88 156.95 525.888 148 576 148s97.12 8.95 139.719 26.602c42.601 17.652 82.18 44.582 117.639 80.041s62.388 75.038 80.041 117.639C931.05 414.88 940 461.888 940 512s-8.95 97.12-26.602 139.719c-17.652 42.601-44.582 82.18-80.041 117.639s-75.038 62.388-117.639 80.041C673.12 867.05 626.112 876 576 876z"/><path d="M576 168c47.471 0 91.903 8.438 132.063 25.078 40.163 16.642 77.56 42.113 111.153 75.706s59.064 70.99 75.706 111.153C911.563 420.096 920 464.529 920 512s-8.438 91.903-25.078 132.063c-16.642 40.163-42.113 77.56-75.706 111.153s-70.99 59.064-111.153 75.706C667.904 847.562 623.471 856 576 856s-91.903-8.438-132.063-25.078c-40.163-16.642-77.56-42.113-111.153-75.706s-59.064-70.99-75.706-111.153C240.438 603.903 232 559.471 232 512s8.438-91.903 25.078-132.063c16.642-40.163 42.113-77.56 75.706-111.153s70.99-59.064 111.153-75.706C484.097 176.437 528.529 168 576 168m1167.5 652.068L1867.932 944.5l-243.216 243.216-28.284 28.284 28.284 28.284 243.216 243.216-124.432 124.431-243.216-243.216-28.284-28.284-28.284 28.284-243.216 243.216-124.431-124.431 243.216-243.216 28.284-28.284-28.284-28.284L1076.069 944.5 1200.5 820.068l243.216 243.216 28.284 28.284 28.284-28.284L1743.5 820.068M218 872c1.596 0 6.149 1.575 13.095 7.479l.525.447.541.428c54.287 43.007 110.575 75.813 167.3 97.508C456.958 999.85 516.355 1011 576 1011s119.042-11.149 176.538-33.139c51.497-19.694 102.634-48.548 152.241-85.877C899.609 907.734 897 925.137 897 944c0 23.105 4.104 44.913 12.195 64.816 8.161 20.07 20.448 38.396 36.521 54.468L1098.432 1216l-152.716 152.716c-16.073 16.073-28.36 34.398-36.521 54.469C901.104 1443.087 897 1464.894 897 1488c0 22.827 4.123 44.431 12.254 64.21 8.16 19.847 20.427 38.04 36.462 54.074L963.432 1624H139c-35.565 0-67.729-5.025-95.596-14.938-26.911-9.571-50.774-24.083-70.927-43.132-20.118-19.016-34.8-41.021-44.888-67.276C-82.755 1471.731-88 1440.221-88 1405c0-34.258 1.146-68.149 3.404-100.735 2.222-32.068 6.753-67.294 13.466-104.698 6.658-37.092 15.145-71.872 25.227-103.376 9.774-30.547 23.124-60.802 39.677-89.924 15.999-28.145 34.464-52.325 54.884-71.87 19.472-18.638 43.889-33.848 72.57-45.207C150.03 877.783 182.589 872 218 872m358-744c-106 0-196.5 37.5-271.5 112.5S192 406 192 512s37.5 196.5 112.5 271.5S470 896 576 896s196.5-37.5 271.5-112.5S960 618 960 512s-37.5-196.5-112.5-271.5S682 128 576 128zm1168 649c-9.334 0-17 3-23 9l-249 249-249-249c-6-6-13.667-9-23-9-8.667 0-16 3-22 9l-136 136c-6 6-9 13.334-9 22 0 9.334 3 17 9 23l249 249-249 249c-6 6-9 13.667-9 23 0 8.667 3 16 9 22l136 136c6 6 13.333 9 22 9 9.333 0 17-3 23-9l249-249 249 249c6 6 13.666 9 23 9 8.666 0 16-3 22-9l136-136c6-6 9-13.333 9-22 0-9.333-3-17-9-23l-249-249 249-249c6-6 9-13.666 9-23 0-8.666-3-16-9-22l-136-136c-6-6-13.334-9-22-9zm-810 55c-12.667 0-25.667 5.667-39 17-102.667 81.334-209 122-319 122s-216.334-40.666-319-122c-13.334-11.333-26.334-17-39-17-40.667 0-77.834 6.667-111.5 20-33.667 13.334-62.167 31.167-85.5 53.5-23.334 22.334-44 49.334-62 81-18 31.667-32.334 64.167-43 97.5-10.667 33.334-19.5 69.5-26.5 108.5s-11.667 75.334-14 109c-2.334 33.667-3.5 68.167-3.5 103.5 0 80.667 24.333 144 73 190 48.666 46 113.333 69 194 69h874c15.333 0 30-1 44-3l-83-83c-24.667-24.666-37-54.666-37-90 0-36 12.333-66.333 37-91l181-181-181-181c-24.667-24.666-37-55-37-91 0-22 4.333-40.666 13-56 8.666-15.333 22.333-32 41-50-19.334-4-38.334-6-57-6z"/></svg>