<?xml version="1.0" encoding="UTF-8" standalone="no"?>
<svg
   xmlns:dc="http://purl.org/dc/elements/1.1/"
   xmlns:cc="http://creativecommons.org/ns#"
   xmlns:rdf="http://www.w3.org/1999/02/22-rdf-syntax-ns#"
   xmlns:svg="http://www.w3.org/2000/svg"
   xmlns="http://www.w3.org/2000/svg"
   xmlns:sodipodi="http://sodipodi.sourceforge.net/DTD/sodipodi-0.dtd"
   xmlns:inkscape="http://www.inkscape.org/namespaces/inkscape"
   width="1792"
   height="1792"
   viewBox="0 0 1792 1792"
   version="1.1"
   id="svg6"
   sodipodi:docname="bullhorn.svg"
   inkscape:version="0.92.3 (2405546, 2018-03-11)">
  <metadata
     id="metadata12">
    <rdf:RDF>
      <cc:Work
         rdf:about="">
        <dc:format>image/svg+xml</dc:format>
        <dc:type
           rdf:resource="http://purl.org/dc/dcmitype/StillImage" />
      </cc:Work>
    </rdf:RDF>
  </metadata>
  <defs
     id="defs10" />
  <sodipodi:namedview
     pagecolor="#ffffff"
     bordercolor="#666666"
     borderopacity="1"
     objecttolerance="10"
     gridtolerance="10"
     guidetolerance="10"
     inkscape:pageopacity="0"
     inkscape:pageshadow="2"
     inkscape:window-width="2400"
     inkscape:window-height="1271"
     id="namedview8"
     showgrid="false"
     inkscape:zoom="0.18624688"
     inkscape:cx="-260.86027"
     inkscape:cy="686.40989"
     inkscape:window-x="2551"
     inkscape:window-y="-9"
     inkscape:window-maximized="1"
     inkscape:current-layer="svg6" />
  <path
     d="m 547.8805,1630.8025 c -17.987,10e-4 -36.386,-1.456 -54.686,-4.328 -46.353,-7.276 -82.665,-21.254 -108.102,-41.589 -5.434,-16.959 -14.316,-43.097 -26.962,-79.351 -14.826,-42.501 -25.49,-73.985 -31.694,-93.579 -6.028,-19.034 -13.524,-48.089 -22.281,-86.358 -8.487,-37.094 -13.257,-68.963 -14.177,-94.724 -0.946,-26.496 0.195,-58.24 3.391,-94.351 3.10906,-35.1066 10.01062,-69.7734 20.584,-103.394 l 13.714,-43.561 h -167.668 c -35.075,0 -64.289,-12.164 -89.312,-37.188 -25.024,-25.021 -37.188,-54.236 -37.188,-89.31 v -192 c 0,-35.074 12.165,-64.288 37.188,-89.312 25.024,-25.024 54.238,-37.188 89.312,-37.188 h 480 c 74.55,0 150.669,-8.332 226.243,-24.765 75.318,-16.377 152.181,-41.255 228.454,-73.944 148.32,-63.566 300.55,-159.313 452.621,-284.663 20.803,2.368 38.882,11.447 54.995,27.56 18.967,18.968 28.188,40.659 28.188,66.312 v 417.5 h 33.5 c 26.326,0 48.181,9.057 66.812,27.688 18.632,18.631 27.688,40.486 27.688,66.812 0,26.326 -9.057,48.181 -27.688,66.812 -18.631,18.631 -40.485,27.688 -66.812,27.688 h -33.5 v 417.5 c 0,25.653 -9.221,47.345 -28.188,66.312 -16.114,16.115 -34.196,25.194 -55.003,27.562 -137.194,-112.978 -274.607,-202.005 -408.609,-264.715 -138.306,-64.725 -276.893,-103.262 -411.91,-114.542 l -6.766,-0.565 -6.452,2.114 c -45.51,14.908 -81.843,41.349 -107.988,78.585 -26.199,37.314 -38.667,78.025 -37.06,121.002 23.00793,63.2758 22.83269,96.2016 17.119,153.669 -2.438,26.415 0.175,50.716 7.768,72.229 7.398,20.962 20.26,42.308 39.32,65.255 17.399,20.95 34.811,39.065 51.75,53.841 10.663,9.303 23.6,20.109 38.635,32.276 -16.961,19.095 -42.175,33.568 -76.329,43.918 -32.395,9.815 -65.671,14.792 -98.907,14.792 z m 967.739,-1368.321 c -128.646,98.607 -257.265,176.916 -382.281,232.75 -124.222,55.479 -248.368,90.313 -368.989,103.537 l -29.85,3.272 v 330.003 l 29.791,3.319 c 121.662,13.554 246.354,48.401 370.614,103.574 125.004,55.503 253.105,133.136 380.745,230.743 l 53.85,41.179 V 221.1825 Z"
     id="path2"
     style="fill:#c64c4c;fill-opacity:1"
     inkscape:connector-curvature="0"
     sodipodi:nodetypes="ccccccccccscsscssccccscscssscscccccccccccccccscccccccccs" />
  <path
     d="m 701,576.60453 v 385.72899 l 4.739,0.52801 -2.597,0.851 c -52.535,17.21 -94.583,47.88497 -124.976,91.17097 -30.499,43.438 -45.006,91.047 -43.119,141.502 31.94872,82.1817 1.01993,160.6478 26.773,235.797 8.739,24.761 23.504,49.46 45.137,75.507 18.541,22.325 37.214,41.733 55.498,57.683 2.31862,2.0219 4.64698,4.0326 6.985,6.032 -9.377,4.869 -20.203,9.172 -32.371,12.858 -29.243,8.862 -59.25,13.354 -89.188,13.354 -16.257,0 -32.908,-1.319 -49.492,-3.923 -35.888,-5.634 -64.312,-15.397 -84.771,-29.09 -5.568,-16.897 -13.463,-39.988 -23.858,-69.789 -14.721,-42.198 -25.281,-73.373 -31.388,-92.66 -5.754,-18.168 -13.008,-46.334 -21.562,-83.716 -8.017,-35.036 -12.51,-64.794 -13.354,-88.447 -0.897,-25.115 0.207,-55.464 3.282,-90.202 2.89472,-32.6932 9.32153,-64.9767 19.168,-96.286 l 27.43,-87.11997 H 160 c -26.095,0 -46.947,-8.699 -65.625,-27.377 C 75.699,910.33053 67,889.47753 67,863.38353 v -192 c 0,-26.094 8.699,-46.946 27.376,-65.624 18.678,-18.678 39.53,-27.376 65.624,-27.376 h 480 c 20.24,0 40.582,-0.594 61,-1.779 m 963,129.779 c 17.461,0 30.761,5.513 43.124,17.876 12.364,12.36299 17.876,25.663 17.876,43.124 0,17.461 -5.513,30.761 -17.876,43.124 -12.363,12.363 -25.663,17.876 -43.124,17.876 h -61 v -122 h 61 m -128,-579 c -307.334,256 -606,384 -896,384 H 160 c -44,0 -81.667,15.667 -113,47 -31.334,31.334 -47,69 -47,113 v 192 c 0,44 15.666,81.667 47,113 31.333,31.33397 69,46.99997 113,46.99997 h 122 c -11.334,36 -18.667,72.834 -22,110.5 -3.334,37.667 -4.5,70.5 -3.5,98.5 1,28 6,61.667 15,101 9,39.334 16.666,69 23,89 6.333,20 17,51.5 32,94.5 15,43 24.833,72.167 29.5,87.5 30.666,28 74.666,46.5 132,55.5 20.107,3.156 40.062,4.733 59.882,4.733 36.695,0 72.907,-5.412 108.618,-16.233 99.46472,-40.6874 124.60736,-68.6015 50,-133.5 -15.667,-13.666 -31.667,-30.333 -48,-50 -50.48623,-74.5036 -48.65824,-186.6991 -56.5,-271 -1.334,-35.666 9,-69.166 31,-100.5 22,-31.333 52.333,-53.333 91,-66 263.333,22 534,148.667 812,380 34.666,0 64.666,-12.666 90,-38 25.333,-25.333 38,-55.333 38,-90 V 895.38353 c 35.333,0 65.5,-12.5 90.5,-37.5 25,-25 37.5,-55.166 37.5,-90.5 0,-35.333 -12.5,-65.5 -37.5,-90.5 -25,-25 -55.167,-37.5 -90.5,-37.5 v -384 c 0,-34.666 -12.667,-64.666 -38,-90 -25.334,-25.333 -55.334,-38 -90,-38 z m 0,1115.99997 C 1275.333,1044.0505 1019.333,930.38353 768,902.38353 v -270 c 249.333,-27.333 505.333,-141.666 768,-343 z"
     id="path4"
     inkscape:connector-curvature="0"
     style="fill:#c64c4c;fill-opacity:1"
     sodipodi:nodetypes="cccccccccccscccccccccsssscsscccsssccccssssscsccsccsccscccccccsscssscsccccccc" />
</svg>
