<?xml version="1.0" encoding="utf-8"?>
<!-- Generator: Adobe Illustrator 16.0.0, SVG Export Plug-In . SVG Version: 6.00 Build 0)  -->
<!DOCTYPE svg PUBLIC "-//W3C//DTD SVG 1.1//EN" "http://www.w3.org/Graphics/SVG/1.1/DTD/svg11.dtd">
<svg version="1.1" id="Layer_1" xmlns="http://www.w3.org/2000/svg" xmlns:xlink="http://www.w3.org/1999/xlink" x="0px" y="0px"
	 width="1792px" height="1792px" viewBox="0 0 1792 1792" enable-background="new 0 0 1792 1792" xml:space="preserve">
<g>
	<path fill="#636363" d="M785,1639c-3.609,0-6.232-0.877-8.77-2.931c-1.987-1.608-2.196-2.578-2.304-3.984l-0.071-0.927
		l-30.457-200.144l-14.64-4.78c-31.264-10.208-60.32-22.146-86.362-35.485l-13.989-7.165l-154.354,117.134l-0.778,0.699
		c-1.419,1.277-3.512,2.583-8.276,2.583c-1.274,0-3.645,0-7.321-3.677l-0.442-0.442l-0.464-0.419
		c-82.166-74.341-136.457-129.487-161.373-163.915c-1.659-2.418-2.4-5.061-2.4-8.547c0-1.661,0.333-4.329,3.218-8.296l0.125-0.173
		c9.712-13.597,26.623-35.641,50.263-65.52c24.121-30.486,42.519-54.51,54.683-71.404l9.149-12.708l-7.44-13.778
		c-17.059-31.59-30.167-63.212-38.959-93.989l-4.431-15.51l-198.859-29.34c-2.231-0.352-3.462-1.097-4.861-2.933
		c-2.023-2.655-2.886-5.152-2.886-8.35V783c0-1.662,0.333-4.329,3.218-8.295c1.37-1.884,2.538-2.881,3.147-3.08l200.958-30.252
		l4.594-15.094c8.799-28.912,21.264-58.297,37.048-87.341l7.4-13.615l-8.901-12.684c-26.918-38.357-63.322-85.317-108.2-139.573
		c-2.683-3.219-4.209-6.087-4.263-7.964c0.061-0.387,0.607-3.126,4.423-8.683c16.488-22.769,48.659-57.796,95.63-104.119
		c55.39-54.625,74.094-63.015,77.863-64.251c2.798,0.292,6.103,1.893,9.841,4.768l150.603,116.772l14.22-7.433
		c27.925-14.597,57.203-26.824,87.02-36.339l15.346-4.897l1.882-15.998c10.483-89.107,20.027-150.553,28.367-182.63l0.059-0.228
		c1.884-7.539,3.86-9.063,11.746-9.063h222c3.609,0,6.232,0.877,8.771,2.932c1.984,1.607,2.193,2.578,2.303,3.986l0.07,0.925
		l30.457,200.141l14.638,4.78c31.27,10.21,60.326,22.15,86.364,35.486l13.937,7.138l155.901-117.475l1.236-1.236
		c0.459-0.459,1.678-1.678,6.322-1.678c0.949,0,3.782,0,8.575,3.861c84.009,77.521,138.175,133.219,161.001,165.556l0.75,1.063
		l0.857,0.979c-0.005,0,0.816,1.359,0.816,5.54c0,1.662-0.334,4.329-3.219,8.296l-0.124,0.173
		c-9.72,13.606-26.63,35.65-50.263,65.519c-24.121,30.487-42.519,54.511-54.683,71.404l-8.992,12.488l7.1,13.653
		c16.576,31.877,29.805,63.478,39.318,93.923l4.655,14.896l198.426,30.36c2.244,0.345,3.485,1.088,4.896,2.94
		c2.021,2.654,2.885,5.151,2.885,8.348v222c0,1.661-0.334,4.329-3.219,8.296c-1.855,2.552-3.021,2.89-3.747,3.02l-199.63,30.214
		l-4.987,14.173c-12.175,34.602-24.761,64.01-37.41,87.41l-7.339,13.578l8.851,12.646c23.579,33.686,59.96,80.618,108.133,139.495
		l0.143,0.173c4.206,5.048,4.206,8.02,4.206,8.996c0,2.104-0.432,3.887-2.581,6.275l-0.858,0.952l-0.755,1.036
		c-17.123,23.464-49.542,58.77-96.359,104.936c-54.927,54.165-73.557,62.512-77.331,63.747c-1.796-0.199-5.292-1.072-10.701-4.411
		l-149.705-117.161l-14.29,7.471c-27.922,14.596-57.199,26.821-87.02,36.339l-15.346,4.897l-1.883,15.998
		c-10.483,89.108-20.027,150.555-28.366,182.631l-0.059,0.227c-1.885,7.539-3.86,9.063-11.746,9.063H785z M896,615
		c-77.208,0-144.053,27.697-198.678,82.322S615,818.792,615,896c0,77.208,27.697,144.053,82.322,198.678S818.793,1177,896,1177
		c77.208,0,144.053-27.697,198.678-82.322S1177,973.208,1177,896c0-77.208-27.697-144.053-82.322-198.678S973.208,615,896,615z"/>
	<path fill="#2D2D2D" d="M995.468,178l26.102,171.522l4.633,30.447l29.277,9.561c30.022,9.804,57.855,21.233,82.728,33.972
		l27.872,14.276l25.011-18.846l135.039-101.755c87.664,81.271,127.174,124.706,144.876,147.701
		c-9.873,13.441-25.043,33.102-45.216,58.598c-24.698,31.215-42.808,54.868-55.365,72.308l-17.983,24.977l14.198,27.306
		c15.898,30.574,28.561,60.803,37.638,89.847l9.31,29.791l30.852,4.72L1614,798.368V997.76l-170.482,25.803l-29.71,4.496
		l-9.974,28.345c-11.74,33.368-23.792,61.569-35.819,83.819l-14.68,27.158l17.703,25.291c23.022,32.89,57.91,78.029,103.751,134.24
		c-17.349,22.302-47.2,54.368-88.896,95.485c-32.735,32.281-51.105,46.834-60.42,53.263l-131.657-103.036l-25.397-19.877
		l-28.581,14.941c-26.648,13.93-54.587,25.597-83.039,34.678l-30.691,9.795l-3.764,31.996c-9.387,79.78-17.934,136.81-25.45,169.842
		h-200.36l-26.101-171.522l-4.634-30.448l-29.278-9.56c-30.017-9.802-57.85-21.231-82.725-33.972l-27.979-14.33l-25.041,19.002
		L466.82,1474.824c-71.965-65.405-121.05-114.861-146.154-147.254c9.859-13.444,25.143-33.259,45.545-59.046
		c24.698-31.215,42.808-54.867,55.366-72.31l18.299-25.415l-14.881-27.558c-16.2-30-28.622-59.937-36.919-88.978l-8.862-31.021
		l-31.916-4.709L178,993.557V794.101l170.443-25.658l31.203-4.697l9.188-30.188c8.309-27.301,20.117-55.12,35.097-82.683
		l14.798-27.229l-17.802-25.368c-26.06-37.135-60.792-82.105-103.306-133.761c12.859-16.491,38.179-45.296,87.987-94.417
		c32.305-31.859,50.721-46.6,60.288-53.296l132.465,102.709l25.361,19.664l28.439-14.866c26.652-13.932,54.59-25.6,83.039-34.678
		l30.692-9.795l3.764-31.996c9.385-79.78,17.933-136.81,25.45-169.842H995.468 M896,1202c84.079,0,156.871-30.161,216.355-89.645
		C1171.839,1052.871,1202,980.079,1202,896s-30.161-156.872-89.645-216.355C1052.871,620.161,980.079,590,896,590
		s-156.872,30.161-216.355,89.645C620.161,739.128,590,811.921,590,896s30.161,156.871,89.645,216.355
		C739.129,1171.839,811.921,1202,896,1202 M1007,128H785c-19.334,0-31.334,9.334-36,28c-8.667,33.334-18.334,95.334-29,186
		c-31.334,10-61.667,22.667-91,38L491,273c-8.667-6.666-17.334-10-26-10c-14.667,0-46.167,23.834-94.5,71.5
		C322.166,382.167,289.333,418,272,442c-6,8.667-9,16.334-9,23c0,8,3.333,16,10,24c44.666,54,80.333,100,107,138
		c-16.667,30.667-29.667,61.334-39,92l-186,28c-7.334,1.334-13.667,5.667-19,13c-5.334,7.334-8,15-8,23v222
		c0,8.667,2.666,16.5,8,23.5c5.333,7,12.333,11.167,21,12.5l183,27c9.333,32.667,23,65.667,41,99c-12,16.667-30,40.167-54,70.5
		c-24,30.334-41,52.5-51,66.5c-5.334,7.334-8,15-8,23c0,8.667,2.333,16.334,7,23c26,36,81,92,165,168c7.333,7.334,15.666,11,25,11
		c10,0,18.333-3,25-9l141-107c27.333,14,57.333,26.334,90,37l28,184c0.666,8.667,4.5,15.834,11.5,21.5c7,5.667,15.166,8.5,24.5,8.5
		h222c19.333,0,31.333-9.333,36-28c8.666-33.333,18.333-95.333,29-186c31.333-10,61.666-22.666,91-38l138,108c9.333,6,18,9,26,9
		c14.666,0,46-23.666,94-71c48-47.333,81-83.333,99-108c6-6.666,9-14.333,9-23c0-8.666-3.334-17-10-25
		c-48-58.666-83.667-104.666-107-138c13.333-24.666,26.333-55,39-91l185-28c8-1.333,14.666-5.666,20-13c5.333-7.333,8-15,8-23V787
		c0-8.666-2.667-16.5-8-23.5c-5.334-7-12.334-11.166-21-12.5l-183-28c-10-32-23.667-64.666-41-98c12-16.666,30-40.166,54-70.5
		c24-30.333,41-52.5,51-66.5c5.333-7.333,8-15,8-23c0-9.333-2.334-16.666-7-22c-24-34-79-90.666-165-170c-8-6.666-16.334-10-25-10
		c-10,0-18,3-24,9l-142,107c-27.334-14-57.334-26.333-90-37l-28-184c-0.667-8.666-4.5-15.833-11.5-21.5
		C1024.5,130.834,1016.333,128,1007,128L1007,128z M896,1152c-70.667,0-131-25-181-75s-75-110.333-75-181c0-70.666,25-131,75-181
		s110.333-75,181-75c70.666,0,131,25,181,75s75,110.334,75,181c0,70.667-25,131-75,181S966.666,1152,896,1152L896,1152z"/>
</g>
</svg>
