<?xml version="1.0" encoding="UTF-8" standalone="no"?>
<!-- Generator: Adobe Illustrator 16.0.0, SVG Export Plug-In . SVG Version: 6.00 Build 0)  -->

<svg
   xmlns:dc="http://purl.org/dc/elements/1.1/"
   xmlns:cc="http://creativecommons.org/ns#"
   xmlns:rdf="http://www.w3.org/1999/02/22-rdf-syntax-ns#"
   xmlns:svg="http://www.w3.org/2000/svg"
   xmlns="http://www.w3.org/2000/svg"
   xmlns:sodipodi="http://sodipodi.sourceforge.net/DTD/sodipodi-0.dtd"
   xmlns:inkscape="http://www.inkscape.org/namespaces/inkscape"
   version="1.1"
   id="Layer_1"
   x="0px"
   y="0px"
   width="1792px"
   height="1792px"
   viewBox="0 0 1792 1792"
   enable-background="new 0 0 1792 1792"
   xml:space="preserve"
   sodipodi:docname="gear.svg"
   inkscape:version="0.92.3 (2405546, 2018-03-11)"><metadata
   id="metadata13"><rdf:RDF><cc:Work
       rdf:about=""><dc:format>image/svg+xml</dc:format><dc:type
         rdf:resource="http://purl.org/dc/dcmitype/StillImage" /></cc:Work></rdf:RDF></metadata><defs
   id="defs11">
	
	
</defs><sodipodi:namedview
   pagecolor="#ffffff"
   bordercolor="#666666"
   borderopacity="1"
   objecttolerance="10"
   gridtolerance="10"
   guidetolerance="10"
   inkscape:pageopacity="0"
   inkscape:pageshadow="2"
   inkscape:window-width="2400"
   inkscape:window-height="1271"
   id="namedview9"
   showgrid="false"
   inkscape:zoom="0.52678571"
   inkscape:cx="838.1032"
   inkscape:cy="1012.6626"
   inkscape:window-x="2551"
   inkscape:window-y="-9"
   inkscape:window-maximized="1"
   inkscape:current-layer="Layer_1" />
<path
   style="fill:#636363"
   inkscape:connector-curvature="0"
   id="path2"
   d="m 785,1639 c -3.609,0 -6.232,-0.877 -8.77,-2.931 -1.987,-1.608 -2.196,-2.578 -2.304,-3.984 l -0.071,-0.927 -30.457,-200.144 -14.64,-4.78 c -31.264,-10.208 -60.32,-22.146 -86.362,-35.485 l -13.989,-7.165 -154.354,117.134 -0.778,0.699 c -1.419,1.277 -3.512,2.583 -8.276,2.583 -1.274,0 -3.645,0 -7.321,-3.677 l -0.442,-0.442 -0.464,-0.419 c -82.166,-74.341 -136.457,-129.487 -161.373,-163.915 -1.659,-2.418 -2.4,-5.061 -2.4,-8.547 0,-1.661 0.333,-4.329 3.218,-8.296 l 0.125,-0.173 c 9.712,-13.597 26.623,-35.641 50.263,-65.52 24.121,-30.486 42.519,-54.51 54.683,-71.404 l 9.149,-12.708 -7.44,-13.778 c -17.059,-31.59 -30.167,-63.212 -38.959,-93.989 l -4.431,-15.51 -198.859,-29.34 c -2.231,-0.352 -3.462,-1.097 -4.861,-2.933 -2.023,-2.655 -2.886,-5.152 -2.886,-8.35 V 783 c 0,-1.662 0.333,-4.329 3.218,-8.295 1.37,-1.884 2.538,-2.881 3.147,-3.08 l 200.958,-30.252 4.594,-15.094 c 8.799,-28.912 21.264,-58.297 37.048,-87.341 l 7.4,-13.615 -8.901,-12.684 c -26.918,-38.357 -63.322,-85.317 -108.2,-139.573 -2.683,-3.219 -4.209,-6.087 -4.263,-7.964 0.061,-0.387 0.607,-3.126 4.423,-8.683 16.488,-22.769 48.659,-57.796 95.63,-104.119 55.39,-54.625 74.094,-63.015 77.863,-64.251 2.798,0.292 6.103,1.893 9.841,4.768 l 150.603,116.772 14.22,-7.433 c 27.925,-14.597 57.203,-26.824 87.02,-36.339 l 15.346,-4.897 1.882,-15.998 c 10.483,-89.107 20.027,-150.553 28.367,-182.63 l 0.059,-0.228 c 1.884,-7.539 3.86,-9.063 11.746,-9.063 h 222 c 3.609,0 6.232,0.877 8.771,2.932 1.984,1.607 2.193,2.578 2.303,3.986 l 0.07,0.925 30.457,200.141 14.638,4.78 c 31.27,10.21 60.326,22.15 86.364,35.486 l 13.937,7.138 155.901,-117.475 1.236,-1.236 c 0.459,-0.459 1.678,-1.678 6.322,-1.678 0.949,0 3.782,0 8.575,3.861 84.009,77.521 138.175,133.219 161.001,165.556 l 0.75,1.063 0.857,0.979 c 0,0 0.816,1.359 0.816,5.54 0,1.662 -0.334,4.329 -3.219,8.296 l -0.124,0.173 c -9.72,13.606 -26.63,35.65 -50.263,65.519 -24.121,30.487 -42.519,54.511 -54.683,71.404 l -8.992,12.488 7.1,13.653 c 16.576,31.877 29.805,63.478 39.318,93.923 l 4.655,14.896 198.426,30.36 c 2.244,0.345 3.485,1.088 4.896,2.94 2.021,2.654 2.885,5.151 2.885,8.348 v 222 c 0,1.661 -0.334,4.329 -3.219,8.296 -1.855,2.552 -3.021,2.89 -3.747,3.02 l -199.63,30.214 -4.987,14.173 c -12.175,34.602 -24.761,64.01 -37.41,87.41 l -7.339,13.578 8.851,12.646 c 23.579,33.686 59.96,80.618 108.133,139.495 l 0.143,0.173 c 4.206,5.048 4.206,8.02 4.206,8.996 0,2.104 -0.432,3.887 -2.581,6.275 l -0.858,0.952 -0.755,1.036 c -17.123,23.464 -49.542,58.77 -96.359,104.936 -54.927,54.165 -73.557,62.512 -77.331,63.747 -1.796,-0.199 -5.292,-1.072 -10.701,-4.411 l -149.705,-117.161 -14.29,7.471 c -27.922,14.596 -57.199,26.821 -87.02,36.339 l -15.346,4.897 -1.883,15.998 c -10.483,89.108 -20.027,150.555 -28.366,182.631 l -0.059,0.227 c -1.885,7.539 -3.86,9.063 -11.746,9.063 z M 896,615 C 818.792,615 751.947,642.697 697.322,697.322 642.697,751.947 615,818.792 615,896 c 0,77.208 27.697,144.053 82.322,198.678 C 751.947,1149.303 818.793,1177 896,1177 c 77.208,0 144.053,-27.697 198.678,-82.322 C 1149.303,1040.053 1177,973.208 1177,896 1177,818.792 1149.303,751.947 1094.678,697.322 1040.053,642.697 973.208,615 896,615 Z" /><path
   style="fill:#636363;fill-opacity:1"
   inkscape:connector-curvature="0"
   id="path4"
   d="m 995.468,178 26.102,171.522 4.633,30.447 29.277,9.561 c 30.022,9.804 57.855,21.233 82.728,33.972 l 27.872,14.276 25.011,-18.846 135.039,-101.755 c 87.664,81.271 127.174,124.706 144.876,147.701 -9.873,13.441 -25.043,33.102 -45.216,58.598 -24.698,31.215 -42.808,54.868 -55.365,72.308 l -17.983,24.977 14.198,27.306 c 15.898,30.574 28.561,60.803 37.638,89.847 l 9.31,29.791 30.852,4.72 169.56,25.943 V 997.76 l -170.482,25.803 -29.71,4.496 -9.974,28.345 c -11.74,33.368 -23.792,61.569 -35.819,83.819 l -14.68,27.158 17.703,25.291 c 23.022,32.89 57.91,78.029 103.751,134.24 -17.349,22.302 -47.2,54.368 -88.896,95.485 -32.735,32.281 -51.105,46.834 -60.42,53.263 l -131.657,-103.036 -25.397,-19.877 -28.581,14.941 c -26.648,13.93 -54.587,25.597 -83.039,34.678 l -30.691,9.795 -3.764,31.996 c -9.387,79.78 -17.934,136.81 -25.45,169.842 h -200.36 l -26.101,-171.522 -4.634,-30.448 -29.278,-9.56 c -30.017,-9.802 -57.85,-21.231 -82.725,-33.972 l -27.979,-14.33 -25.041,19.002 -133.956,101.655 c -71.965,-65.405 -121.05,-114.861 -146.154,-147.254 9.859,-13.444 25.143,-33.259 45.545,-59.046 24.698,-31.215 42.808,-54.867 55.366,-72.31 l 18.299,-25.415 -14.881,-27.558 c -16.2,-30 -28.622,-59.937 -36.919,-88.978 l -8.862,-31.021 -31.916,-4.709 L 178,993.557 V 794.101 l 170.443,-25.658 31.203,-4.697 9.188,-30.188 c 8.309,-27.301 20.117,-55.12 35.097,-82.683 l 14.798,-27.229 -17.802,-25.368 C 394.867,561.143 360.135,516.173 317.621,464.517 330.48,448.026 355.8,419.221 405.608,370.1 c 32.305,-31.859 50.721,-46.6 60.288,-53.296 l 132.465,102.709 25.361,19.664 28.439,-14.866 c 26.652,-13.932 54.59,-25.6 83.039,-34.678 l 30.692,-9.795 3.764,-31.996 c 9.385,-79.78 17.933,-136.81 25.45,-169.842 H 995.468 M 896,1202 c 84.079,0 156.871,-30.161 216.355,-89.645 C 1171.839,1052.871 1202,980.079 1202,896 1202,811.921 1171.839,739.128 1112.355,679.645 1052.871,620.161 980.079,590 896,590 811.921,590 739.128,620.161 679.645,679.645 620.161,739.128 590,811.921 590,896 c 0,84.079 30.161,156.871 89.645,216.355 C 739.129,1171.839 811.921,1202 896,1202 M 1007,128 H 785 c -19.334,0 -31.334,9.334 -36,28 -8.667,33.334 -18.334,95.334 -29,186 -31.334,10 -61.667,22.667 -91,38 L 491,273 c -8.667,-6.666 -17.334,-10 -26,-10 -14.667,0 -46.167,23.834 -94.5,71.5 -48.334,47.667 -81.167,83.5 -98.5,107.5 -6,8.667 -9,16.334 -9,23 0,8 3.333,16 10,24 44.666,54 80.333,100 107,138 -16.667,30.667 -29.667,61.334 -39,92 l -186,28 c -7.334,1.334 -13.667,5.667 -19,13 -5.334,7.334 -8,15 -8,23 v 222 c 0,8.667 2.666,16.5 8,23.5 5.333,7 12.333,11.167 21,12.5 l 183,27 c 9.333,32.667 23,65.667 41,99 -12,16.667 -30,40.167 -54,70.5 -24,30.334 -41,52.5 -51,66.5 -5.334,7.334 -8,15 -8,23 0,8.667 2.333,16.334 7,23 26,36 81,92 165,168 7.333,7.334 15.666,11 25,11 10,0 18.333,-3 25,-9 l 141,-107 c 27.333,14 57.333,26.334 90,37 l 28,184 c 0.666,8.667 4.5,15.834 11.5,21.5 7,5.667 15.166,8.5 24.5,8.5 h 222 c 19.333,0 31.333,-9.333 36,-28 8.666,-33.333 18.333,-95.333 29,-186 31.333,-10 61.666,-22.666 91,-38 l 138,108 c 9.333,6 18,9 26,9 14.666,0 46,-23.666 94,-71 48,-47.333 81,-83.333 99,-108 6,-6.666 9,-14.333 9,-23 0,-8.666 -3.334,-17 -10,-25 -48,-58.666 -83.667,-104.666 -107,-138 13.333,-24.666 26.333,-55 39,-91 l 185,-28 c 8,-1.333 14.666,-5.666 20,-13 5.333,-7.333 8,-15 8,-23 V 787 c 0,-8.666 -2.667,-16.5 -8,-23.5 -5.334,-7 -12.334,-11.166 -21,-12.5 l -183,-28 c -10,-32 -23.667,-64.666 -41,-98 12,-16.666 30,-40.166 54,-70.5 24,-30.333 41,-52.5 51,-66.5 5.333,-7.333 8,-15 8,-23 0,-9.333 -2.334,-16.666 -7,-22 -24,-34 -79,-90.666 -165,-170 -8,-6.666 -16.334,-10 -25,-10 -10,0 -18,3 -24,9 l -142,107 c -27.334,-14 -57.334,-26.333 -90,-37 l -28,-184 c -0.667,-8.666 -4.5,-15.833 -11.5,-21.5 -7,-5.666 -15.167,-8.5 -24.5,-8.5 z M 896,1152 c -70.667,0 -131,-25 -181,-75 -50,-50 -75,-110.333 -75,-181 0,-70.666 25,-131 75,-181 50,-50 110.333,-75 181,-75 70.666,0 131,25 181,75 50,50 75,110.334 75,181 0,70.667 -25,131 -75,181 -50,50 -110.334,75 -181,75 z" />
</svg>