<?xml version="1.0" encoding="UTF-8" standalone="no"?>
<svg
   xmlns:dc="http://purl.org/dc/elements/1.1/"
   xmlns:cc="http://creativecommons.org/ns#"
   xmlns:rdf="http://www.w3.org/1999/02/22-rdf-syntax-ns#"
   xmlns:svg="http://www.w3.org/2000/svg"
   xmlns="http://www.w3.org/2000/svg"
   xmlns:sodipodi="http://sodipodi.sourceforge.net/DTD/sodipodi-0.dtd"
   xmlns:inkscape="http://www.inkscape.org/namespaces/inkscape"
   width="1792"
   height="1792"
   viewBox="0 0 1792 1792"
   version="1.1"
   id="svg6"
   sodipodi:docname="info.svg"
   inkscape:version="0.92.3 (2405546, 2018-03-11)">
  <metadata
     id="metadata12">
    <rdf:RDF>
      <cc:Work
         rdf:about="">
        <dc:format>image/svg+xml</dc:format>
        <dc:type
           rdf:resource="http://purl.org/dc/dcmitype/StillImage" />
      </cc:Work>
    </rdf:RDF>
  </metadata>
  <defs
     id="defs10" />
  <sodipodi:namedview
     pagecolor="#ffffff"
     bordercolor="#666666"
     borderopacity="1"
     objecttolerance="10"
     gridtolerance="10"
     guidetolerance="10"
     inkscape:pageopacity="0"
     inkscape:pageshadow="2"
     inkscape:window-width="2400"
     inkscape:window-height="1271"
     id="namedview8"
     showgrid="false"
     inkscape:zoom="0.37249375"
     inkscape:cx="732.61021"
     inkscape:cy="879.45653"
     inkscape:window-x="2551"
     inkscape:window-y="-9"
     inkscape:window-maximized="1"
     inkscape:current-layer="svg6" />
  <path
     d="m 597.04626,1697.6865 c -14.73515,0 -27.19779,-5.2995 -38.09909,-16.2019 -10.90364,-10.9024 -16.20306,-23.3651 -16.20306,-38.1003 v -149.4769 c 0,-14.7339 5.29942,-27.1977 16.20306,-38.1002 10.90247,-10.9025 23.3651,-16.2019 38.09909,-16.2019 h 95.17473 V 950.30215 h -95.17473 c -14.73515,0 -27.19779,-5.29945 -38.09909,-16.20192 -10.90364,-10.90247 -16.20306,-23.3651 -16.20306,-38.10025 V 746.5231 c 0,-14.73515 5.29942,-27.19778 16.20306,-38.09908 10.90247,-10.90247 23.3651,-16.20306 38.09909,-16.20306 h 448.43064 c 14.734,0 27.1966,5.30059 38.1003,16.20306 10.9024,10.90247 16.2018,23.3651 16.2018,38.09908 v 693.0822 h 95.1748 c 14.734,0 27.1966,5.2995 38.1002,16.203 10.9025,10.9025 16.2019,23.3652 16.2019,38.0991 v 149.4769 c 0,14.734 -5.2994,27.1978 -16.2019,38.1003 -10.9024,10.9024 -23.3662,16.2019 -38.1002,16.2019 z M 746.52313,427.13306 c -14.73515,0 -27.19778,-5.29943 -38.09908,-16.2019 -10.90364,-10.90246 -16.20306,-23.3651 -16.20306,-38.10025 V 148.6156 c 0,-14.73516 5.29942,-27.19779 16.20306,-38.09909 10.90247,-10.90247 23.3651,-16.20306 38.09908,-16.20306 h 298.95377 c 14.734,0 27.1966,5.30059 38.1003,16.20306 10.9024,10.90247 16.2018,23.3651 16.2018,38.09909 v 224.21531 c 0,14.73515 -5.2994,27.19779 -16.2018,38.09909 -10.9025,10.90247 -23.3663,16.20306 -38.1003,16.20306 z"
     id="path2"
     style="fill:#f29800;fill-opacity:1;stroke-width:1"
     inkscape:connector-curvature="0" />
  <path
     d="m 1045.4769,114.74973 c 9.4147,0 16.488,3.0561 23.6477,10.21581 7.1621,7.16321 10.2182,14.23534 10.2182,23.65005 V 372.8309 c 0,9.41471 -3.055,16.488 -10.217,23.64888 -7.1609,7.16087 -14.233,10.21698 -23.6489,10.21698 H 746.52312 c -9.41587,0 -16.488,-3.05494 -23.65004,-10.21815 -7.16088,-7.15971 -10.21581,-14.23183 -10.21581,-23.64771 V 148.61559 c 0,-9.41471 3.05493,-16.488 10.21698,-23.64888 7.16204,-7.16088 14.23417,-10.21698 23.64887,-10.21698 h 298.95378 m 0,597.90751 c 9.4147,0 16.488,3.0561 23.6477,10.21581 7.1621,7.16321 10.2182,14.23533 10.2182,23.65004 v 713.51851 h 115.611 c 9.4147,0 16.488,3.0561 23.6477,10.2158 7.162,7.162 10.2181,14.2342 10.2181,23.65 v 149.4769 c 0,9.4147 -3.0549,16.488 -10.2169,23.6489 -7.1609,7.162 -14.2331,10.217 -23.6489,10.217 H 597.04625 c -9.41588,0 -16.488,-3.055 -23.65005,-10.2182 -7.15971,-7.1597 -10.21581,-14.2318 -10.21581,-23.6477 v -149.4769 c 0,-9.4147 3.05494,-16.488 10.21698,-23.6488 7.16089,-7.1621 14.23417,-10.217 23.64888,-10.217 H 712.65727 V 929.86582 H 597.04625 c -9.41588,0 -16.488,-3.05493 -23.65005,-10.21814 -7.16087,-7.15971 -10.21581,-14.23184 -10.21581,-23.64771 V 746.52309 c 0,-9.41471 3.05494,-16.488 10.21698,-23.64887 7.16205,-7.16088 14.23417,-10.21698 23.64888,-10.21698 h 448.43065 m 0,-638.780085 H 746.52312 c -20.24244,0 -37.75926,7.39677 -52.55046,22.18797 -14.79237,14.792365 -22.18797,32.309185 -22.18797,52.550465 V 372.8309 c 0,20.24244 7.3956,37.75926 22.18797,52.55046 14.7912,14.79238 32.30802,22.18798 52.55046,22.18798 h 298.95378 c 20.2413,0 37.7581,-7.3956 52.5505,-22.18798 14.7912,-14.7912 22.1879,-32.30802 22.1879,-52.55046 V 148.61559 c 0,-20.24128 -7.3967,-37.7581 -22.1879,-52.550465 -14.7924,-14.7912 -32.3092,-22.18797 -52.5505,-22.18797 z m 0,597.907495 H 597.04625 c -20.24244,0 -37.75926,7.39677 -52.55047,22.18798 -14.79237,14.79237 -22.18797,32.30919 -22.18797,52.55046 v 149.47688 c 0,20.24244 7.3956,37.75926 22.18797,52.55047 14.79121,14.7924 32.30803,22.188 52.55047,22.188 h 74.73844 V 1419.169 h -74.73844 c -20.24244,0 -37.75926,7.3968 -52.55047,22.188 -14.79237,14.7923 -22.18797,32.3092 -22.18797,52.5504 v 149.4769 c 0,20.2425 7.3956,37.7593 22.18797,52.5505 14.79121,14.7923 32.30803,22.188 52.55047,22.188 h 597.90755 c 20.2412,0 37.7581,-7.3957 52.5504,-22.188 14.7912,-14.7912 22.188,-32.308 22.188,-52.5505 v -149.4769 c 0,-20.2412 -7.3968,-37.7581 -22.188,-52.5504 -14.7923,-14.7912 -32.3092,-22.188 -52.5504,-22.188 h -74.7385 V 746.52309 c 0,-20.24127 -7.3967,-37.75809 -22.1879,-52.55046 -14.7924,-14.79121 -32.3092,-22.18798 -52.5505,-22.18798 z"
     id="path4"
     inkscape:connector-curvature="0"
     style="fill:#f29800;stroke-width:1" />
</svg>
