<svg xmlns="http://www.w3.org/2000/svg" width="1792" height="1792" viewBox="0 0 1792 1792"><path fill="#2D2D2D" d="M1088 1256v240c0 10.667-4 20-12 28s-17.334 12-28 12H808c-10.667 0-20-4-28-12s-12-17.333-12-28v-240c0-10.666 4-20 12-28s17.333-12 28-12h240c10.666 0 20 4 28 12s12 17.334 12 28zm316-600c0 36-5.167 69.667-15.5 101-10.334 31.334-22 56.834-35 76.5-13 19.667-31.334 39.5-55 59.5-23.667 20-42.834 34.5-57.5 43.5-14.667 9-35 20.834-61 35.5-27.334 15.334-50.167 37-68.5 65-18.334 28-27.5 50.334-27.5 67 0 11.334-4 22.167-12 32.5-8 10.334-17.334 15.5-28 15.5H804c-10 0-18.5-6.166-25.5-18.5-7-12.333-10.5-24.833-10.5-37.5v-45c0-55.333 21.666-107.5 65-156.5 43.333-49 91-85.166 143-108.5 39.333-18 67.333-36.666 84-56 16.666-19.333 25-44.666 25-76 0-28-15.5-52.666-46.5-74-31-21.333-66.834-32-107.5-32-43.334 0-79.334 9.667-108 29-23.334 16.667-59 55-107 115-8.667 10.667-19 16-31 16-8 0-16.334-2.666-25-8L496 575c-8.667-6.666-13.834-15-15.5-25-1.667-10 .166-19.333 5.5-28 106.666-177.333 261.333-266 464-266 53.333 0 107 10.334 161 31 54 20.667 102.666 48.334 146 83 43.333 34.667 78.666 77.167 106 127.5 27.333 50.334 41 103.167 41 158.5z"/></svg>