<?xml version="1.0" encoding="UTF-8" standalone="no"?>
<svg
   xmlns:dc="http://purl.org/dc/elements/1.1/"
   xmlns:cc="http://creativecommons.org/ns#"
   xmlns:rdf="http://www.w3.org/1999/02/22-rdf-syntax-ns#"
   xmlns:svg="http://www.w3.org/2000/svg"
   xmlns="http://www.w3.org/2000/svg"
   xmlns:sodipodi="http://sodipodi.sourceforge.net/DTD/sodipodi-0.dtd"
   xmlns:inkscape="http://www.inkscape.org/namespaces/inkscape"
   width="1792"
   height="1792"
   viewBox="0 0 1792 1792"
   version="1.1"
   id="svg6"
   sodipodi:docname="asterisk.svg"
   inkscape:version="0.92.3 (2405546, 2018-03-11)">
  <metadata
     id="metadata12">
    <rdf:RDF>
      <cc:Work
         rdf:about="">
        <dc:format>image/svg+xml</dc:format>
        <dc:type
           rdf:resource="http://purl.org/dc/dcmitype/StillImage" />
      </cc:Work>
    </rdf:RDF>
  </metadata>
  <defs
     id="defs10" />
  <sodipodi:namedview
     pagecolor="#ffffff"
     bordercolor="#666666"
     borderopacity="1"
     objecttolerance="10"
     gridtolerance="10"
     guidetolerance="10"
     inkscape:pageopacity="0"
     inkscape:pageshadow="2"
     inkscape:window-width="2400"
     inkscape:window-height="1271"
     id="namedview8"
     showgrid="false"
     inkscape:zoom="0.13169643"
     inkscape:cx="-30.372881"
     inkscape:cy="896"
     inkscape:window-x="2551"
     inkscape:window-y="-9"
     inkscape:window-maximized="1"
     inkscape:current-layer="svg6" />
  <path
     d="m 831.99948,1629.5 c -25.375,0 -46.835,-9.124 -65.604,-27.895 -18.771,-18.771 -27.896,-40.23 -27.896,-65.605 v -366.644 l -317.578,182.667 c -15.023,8.472 -30.026,12.591 -45.862,12.591 -8.302,0 -16.986,-1.173 -25.812,-3.486 -25.161,-6.596 -43.548,-20.695 -56.213,-43.104 l -64.092,-110.163 c -12.784,-22.702 -15.75,-46.129 -9.07,-71.613 6.595,-25.16 20.695,-43.548 43.104,-56.214 L 580.85748,896 262.97548,711.965 c -22.409,-12.666 -36.508,-31.053 -43.103,-56.213 -6.679,-25.48 -3.714,-48.905 9.065,-71.605 l 64.097,-110.171 c 12.666,-22.409 31.053,-36.508 56.213,-43.104 8.825,-2.313 17.509,-3.486 25.812,-3.486 15.838,0 30.843,4.12 45.87,12.595 l 317.57,182.663 V 256 c 0,-25.375 9.125,-46.834 27.896,-65.604 18.77,-18.772 40.23,-27.896 65.604,-27.896 h 128 c 25.374,0 46.83402,9.125 65.60502,27.896 18.77,18.771 27.895,40.23 27.895,65.604 v 366.644 l 317.567,-182.661 c 15.027,-8.477 30.033,-12.597 45.873,-12.597 8.302,0 16.986,1.173 25.812,3.486 25.159,6.595 43.547,20.695 56.214,43.104 l 64.094,110.166 c 12.781,22.703 15.747,46.129 9.068,71.61 -6.596,25.16 -20.695,43.548 -43.104,56.213 L 1211.1425,896 l 317.881,184.034 c 22.409,12.667 36.509,31.055 43.104,56.214 6.68,25.483 3.714,48.908 -9.069,71.611 l -64.093,110.164 c -12.666,22.409 -31.054,36.509 -56.214,43.104 -8.825,2.313 -17.511,3.486 -25.813,3.486 -15.84,0 -30.847,-4.121 -45.874,-12.599 l -317.565,-182.658 V 1536 c 0,25.375 -9.125,46.834 -27.896,65.604 -18.771,18.77 -40.22902,27.896 -65.60402,27.896 z"
     id="path2"
     style="fill:#ffe000;fill-opacity:1"
     inkscape:connector-curvature="0" />
  <path
     d="m 960.00011,196.99999 c 16.415,0 28.739,5.321 41.20899,17.789 12.471,12.471 17.791,24.796 17.791,41.211 v 426.288 l 103.402,-59.477 265.744,-152.853 c 9.803,-5.507 18.959,-8.073 28.794,-8.073 5.351,0 11.093,0.793 17.063,2.359 16.318,4.277 26.764,12.265 34.928,26.708 l 0.212,0.375 0.217,0.372 63.754,109.578 c 8.298,14.841 10.036,28.959 5.641,45.726 -4.277,16.319 -12.265,26.764 -26.707,34.927 l -0.311,0.176 -0.309,0.179 -266,154 -103.143,59.71501 103.144,59.714 266,154 0.308,0.179 0.311,0.176 c 14.443,8.164 22.431,18.609 26.708,34.928 4.396,16.771 2.656,30.893 -5.646,45.736 l -63.748,109.568 -0.217,0.372 -0.212,0.375 c -8.163,14.442 -18.609,22.43 -34.928,26.707 -5.971,1.565 -11.713,2.359 -17.065,2.359 -9.828,0 -18.977,-2.562 -28.771,-8.062 l -265.765,-152.864 -103.404,-59.476 V 1536 c 0,16.415 -5.32,28.739 -17.79,41.21 -12.46999,12.469 -24.79499,17.79 -41.20999,17.79 h -128 c -16.416,0 -28.74,-5.32 -41.211,-17.791 -12.469,-12.469 -17.789,-24.793 -17.789,-41.209 v -426.288 l -103.403,59.477 -265.741,152.851 c -9.804,5.508 -18.96,8.075 -28.796,8.075 -5.352,0 -11.093,-0.794 -17.064,-2.359 -16.319,-4.277 -26.765,-12.265 -34.927,-26.706 l -0.212,-0.375 -0.217,-0.373 -63.747,-109.565 c -8.304,-14.843 -10.045,-28.967 -5.648,-45.739 4.277,-16.318 12.265,-26.765 26.708,-34.928 l 0.31,-0.175 0.309,-0.18 266,-153.99999 103.143,-59.715 -103.144,-59.71401 -266,-154 -0.309,-0.179 -0.312,-0.176 c -14.441,-8.162 -22.428,-18.607 -26.706,-34.927 -4.397,-16.77201 -2.657,-30.894 5.647,-45.73801 l 63.748,-109.566 0.217,-0.373 0.212,-0.375 c 8.163,-14.442 18.608,-22.429 34.928,-26.707 5.971,-1.565 11.711,-2.358 17.062,-2.358 9.829,0 18.979,2.562 28.776,8.062 l 265.762,152.86301 103.404,59.476 V 256 c 0,-16.416 5.32,-28.74001 17.791,-41.20901 12.469,-12.471 24.794,-17.79099 41.209,-17.79099 h 128 m 0,-69 h -128 c -34.667,0 -64.667,12.66699 -90,38 -25.334,25.334 -38,55.334 -38,90 v 307 l -266,-153 c -20.187,-11.41 -41.166,-17.11401 -62.941,-17.11401 -11.305,0 -22.826,1.538 -34.559,4.61401 -34.334,9 -60.167,28.83399 -77.5,59.5 l -63.99999,110 c -17.334,30.667 -21.5,63.167 -12.5,97.5 9,34.33399 28.83299,60.167 59.49999,77.5 l 266,154.00001 -266,153.99999 c -30.667,17.334 -50.49999,43.167 -59.49999,77.5 -9,34.334 -4.834,66.834 12.5,97.5 l 63.99999,110 c 17.333,30.667 43.166,50.5 77.5,59.5 11.735,3.076 23.254,4.614 34.561,4.614 21.773,0 42.754,-5.705 62.939,-17.114 l 266,-153 v 307 c 0,34.667 12.666,64.667 38,90 25.333,25.334 55.333,38 90,38 h 128 c 34.666,0 64.66599,-12.666 89.99999,-38 25.333,-25.333 38,-55.333 38,-90 v -307 l 266,153 c 20.187,11.41 41.163,17.114 62.938,17.114 11.305,0 22.828,-1.539 34.562,-4.614 34.333,-9 60.166,-28.833 77.5,-59.5 l 64,-110 c 17.333,-30.666 21.5,-63.166 12.5,-97.5 -9,-34.333 -28.834,-60.166 -59.5,-77.5 l -266,-153.99999 266,-154.00001 c 30.666,-17.333 50.5,-43.166 59.5,-77.5 9,-34.333 4.833,-66.833 -12.5,-97.5 l -64,-110 c -17.334,-30.666 -43.167,-50.5 -77.5,-59.5 -11.735,-3.076 -23.253,-4.614 -34.56,-4.614 -21.773,0 -42.756,5.705 -62.94,17.114 l -266,153 V 256 c 0,-34.666 -12.667,-64.666 -38,-90 -25.334,-25.333 -55.33399,-38 -89.99999,-38 z"
     id="path4"
     inkscape:connector-curvature="0"
     style="fill:#f29800" />
</svg>
