<?xml version="1.0" encoding="UTF-8" standalone="no"?>
<svg
   xmlns:dc="http://purl.org/dc/elements/1.1/"
   xmlns:cc="http://creativecommons.org/ns#"
   xmlns:rdf="http://www.w3.org/1999/02/22-rdf-syntax-ns#"
   xmlns:svg="http://www.w3.org/2000/svg"
   xmlns="http://www.w3.org/2000/svg"
   xmlns:sodipodi="http://sodipodi.sourceforge.net/DTD/sodipodi-0.dtd"
   xmlns:inkscape="http://www.inkscape.org/namespaces/inkscape"
   width="1792"
   height="1792"
   viewBox="0 0 1792 1792"
   version="1.1"
   id="svg6"
   sodipodi:docname="bolt.svg"
   inkscape:version="0.92.3 (2405546, 2018-03-11)">
  <metadata
     id="metadata12">
    <rdf:RDF>
      <cc:Work
         rdf:about="">
        <dc:format>image/svg+xml</dc:format>
        <dc:type
           rdf:resource="http://purl.org/dc/dcmitype/StillImage" />
      </cc:Work>
    </rdf:RDF>
  </metadata>
  <defs
     id="defs10" />
  <sodipodi:namedview
     pagecolor="#ffffff"
     bordercolor="#666666"
     borderopacity="1"
     objecttolerance="10"
     gridtolerance="10"
     guidetolerance="10"
     inkscape:pageopacity="0"
     inkscape:pageshadow="2"
     inkscape:window-width="2400"
     inkscape:window-height="1271"
     id="namedview8"
     showgrid="false"
     inkscape:zoom="0.13169643"
     inkscape:cx="896"
     inkscape:cy="896"
     inkscape:window-x="2551"
     inkscape:window-y="-9"
     inkscape:window-maximized="1"
     inkscape:current-layer="svg6" />
  <path
     d="m 758.12795,1703 c -0.397,-0.026 -2.529,-0.205 -8.033,-1.273 -6.157,-2.027 -8.712,-5.159 -10.254,-7.699 -2.193,-3.612 -2.661,-6.788 -1.617,-10.963 l 206.826,-848.305 -445.975,110.945 c -0.337,0.055 -2.042,0.295 -6.105,0.295 -6.116,0 -10.696,-1.568 -14.85,-5.083 l -0.145,-0.122 c -4.131,-3.442 -6.099,-6.77 -4.604,-14.336 l 200.75,-823.974 c 1.191,-3.898 3.316,-6.836 6.849,-9.485 3.639,-2.729 7.77,-4 13,-4 h 327.99995 c 6.176,0 10.701,1.703 14.673,5.522 4.682,4.501 5.327,8.177 5.327,11.478 0,0.086 -0.026,2.152 -2.36,6.82 l -0.615,1.229 -187.82495,508.554 441.80595,-109.335 c 4.017,-1.004 5.799,-1.225 6.229,-1.267 3.908,0.034 9.159,0.958 15.618,7.214 4.895,5.623 5.476,9.673 2.447,16.312 L 777.57195,1691.879 c -4.262,7.951 -9.762,11.087 -19.444,11.121 z"
     id="path2"
     inkscape:connector-curvature="0"
     style="fill:#ffe000" />
  <path
     d="m 1012.3495,114 -168.29502,455.677 -32.697,88.53 91.611,-22.672 384.42502,-95.135 -512.66602,1098.436 184.808,-757.992 19.584,-80.324 -80.232,19.959 -398.104,99.036 L 697.03448,114 h 315.31502 m 9.608,-50 H 693.95748 c -10.667,0 -20,3 -28,9 -8,6 -13.334,13.667 -16,23 l -201,825 c -3.334,16 1,29 13,39 8.666,7.334 19,11 31,11 5.333,0 9.333,-0.333 12,-1 l 406,-101 -197,808 c -2.667,10.667 -1.167,20.667 4.5,30 5.666,9.334 14.166,15.667 25.5,19 6.666,1.334 11.333,2 14,2 19.333,0 33.333,-8.333 42,-25 L 1339.9575,546 c 7.333,-16 5,-30.666 -7,-44 -10,-10 -21.334,-15 -34,-15 -2.667,0 -6.667,0.667 -12,2 L 890.95748,587 1061.9575,124 c 3.333,-6.666 5,-12.666 5,-18 0,-11.333 -4.334,-21.166 -13,-29.5 -8.667,-8.333 -19.334,-12.5 -32,-12.5 z"
     id="path4"
     inkscape:connector-curvature="0"
     style="fill:#f29800" />
</svg>
