<svg xmlns="http://www.w3.org/2000/svg" width="1792" height="1792" viewBox="0 0 1792 1792"><path fill="#FFE000" d="M758.158 1767c-.397-.026-2.529-.205-8.033-1.273-6.157-2.027-8.712-5.159-10.254-7.699-2.193-3.612-2.661-6.788-1.617-10.963L945.08 898.76l-445.975 110.945c-.337.055-2.042.295-6.105.295-6.116 0-10.696-1.568-14.85-5.083l-.145-.122c-4.131-3.442-6.099-6.77-4.604-14.336l200.75-823.974c1.191-3.898 3.316-6.836 6.849-9.485 3.639-2.729 7.77-4 13-4h328c6.176 0 10.701 1.703 14.673 5.522 4.682 4.501 5.327 8.177 5.327 11.478 0 .086-.026 2.152-2.36 6.82l-.615 1.229L851.2 686.603l441.806-109.335c4.017-1.004 5.799-1.225 6.229-1.267 3.908.034 9.159.958 15.618 7.214 4.895 5.623 5.476 9.673 2.447 16.312L777.602 1755.879c-4.262 7.951-9.762 11.087-19.444 11.121z"/><path fill="#F29800" d="M1012.392 178L844.097 633.677l-32.697 88.53 91.611-22.672 384.425-95.135L774.77 1702.836l184.808-757.992 19.584-80.324-80.232 19.959-398.104 99.036L697.077 178h315.315m9.608-50H694c-10.667 0-20 3-28 9s-13.334 13.667-16 23L449 985c-3.334 16 1 29 13 39 8.666 7.334 19 11 31 11 5.333 0 9.333-.333 12-1l406-101-197 808c-2.667 10.667-1.167 20.667 4.5 30 5.666 9.334 14.166 15.667 25.5 19 6.666 1.334 11.333 2 14 2 19.333 0 33.333-8.333 42-25l540-1157c7.333-16 5-30.666-7-44-10-10-21.334-15-34-15-2.667 0-6.667.667-12 2l-396 98 171-463c3.333-6.666 5-12.666 5-18 0-11.333-4.334-21.166-13-29.5-8.667-8.333-19.334-12.5-32-12.5z"/></svg>