<?xml version="1.0" encoding="UTF-8" standalone="no"?>
<svg
   xmlns:dc="http://purl.org/dc/elements/1.1/"
   xmlns:cc="http://creativecommons.org/ns#"
   xmlns:rdf="http://www.w3.org/1999/02/22-rdf-syntax-ns#"
   xmlns:svg="http://www.w3.org/2000/svg"
   xmlns="http://www.w3.org/2000/svg"
   xmlns:sodipodi="http://sodipodi.sourceforge.net/DTD/sodipodi-0.dtd"
   xmlns:inkscape="http://www.inkscape.org/namespaces/inkscape"
   width="1792"
   height="1792"
   viewBox="0 0 1792 1792"
   version="1.1"
   id="svg4"
   sodipodi:docname="cube.svg"
   inkscape:version="0.92.3 (2405546, 2018-03-11)">
  <metadata
     id="metadata10">
    <rdf:RDF>
      <cc:Work
         rdf:about="">
        <dc:format>image/svg+xml</dc:format>
        <dc:type
           rdf:resource="http://purl.org/dc/dcmitype/StillImage" />
      </cc:Work>
    </rdf:RDF>
  </metadata>
  <defs
     id="defs8" />
  <sodipodi:namedview
     pagecolor="#ffffff"
     bordercolor="#666666"
     borderopacity="1"
     objecttolerance="10"
     gridtolerance="10"
     guidetolerance="10"
     inkscape:pageopacity="0"
     inkscape:pageshadow="2"
     inkscape:window-width="2400"
     inkscape:window-height="1271"
     id="namedview6"
     showgrid="false"
     inkscape:zoom="0.18624688"
     inkscape:cx="97.458663"
     inkscape:cy="793.69588"
     inkscape:window-x="2551"
     inkscape:window-y="-9"
     inkscape:window-maximized="1"
     inkscape:current-layer="svg4" />
  <path
     d="m 960,1565 640,-349 V 580 L 960,813 Z M 896,700 1594,446 896,192 198,446 Z m 832,-252 v 768 c 0,23.334 -6,45 -18,65 -12,20 -28.334,35.667 -49,47 l -704,384 c -18.667,10.667 -39,16 -61,16 -22,0 -42.334,-5.333 -61,-16 L 131,1328 c -20.667,-11.333 -37,-27 -49,-47 -12,-20 -18,-41.666 -18,-65 V 448 c 0,-26.666 7.666,-51 23,-73 15.333,-22 35.666,-37.666 61,-47 L 852,72 c 14.666,-5.333 29.333,-8 44,-8 14.666,0 29.333,2.667 44,8 l 704,256 c 25.333,9.334 45.666,25 61,47 15.333,22 23,46.334 23,73 z"
     id="path2"
     style="fill:#955a00;fill-opacity:1"
     inkscape:connector-curvature="0" />
</svg>
