<?xml version="1.0" encoding="UTF-8" standalone="no"?>
<svg
   xmlns:dc="http://purl.org/dc/elements/1.1/"
   xmlns:cc="http://creativecommons.org/ns#"
   xmlns:rdf="http://www.w3.org/1999/02/22-rdf-syntax-ns#"
   xmlns:svg="http://www.w3.org/2000/svg"
   xmlns="http://www.w3.org/2000/svg"
   xmlns:sodipodi="http://sodipodi.sourceforge.net/DTD/sodipodi-0.dtd"
   xmlns:inkscape="http://www.inkscape.org/namespaces/inkscape"
   width="1792"
   height="1792"
   viewBox="0 0 1792 1792"
   version="1.1"
   id="svg6"
   sodipodi:docname="eye.svg"
   inkscape:version="0.92.3 (2405546, 2018-03-11)">
  <metadata
     id="metadata12">
    <rdf:RDF>
      <cc:Work
         rdf:about="">
        <dc:format>image/svg+xml</dc:format>
        <dc:type
           rdf:resource="http://purl.org/dc/dcmitype/StillImage" />
      </cc:Work>
    </rdf:RDF>
  </metadata>
  <defs
     id="defs10" />
  <sodipodi:namedview
     pagecolor="#ffffff"
     bordercolor="#666666"
     borderopacity="1"
     objecttolerance="10"
     gridtolerance="10"
     guidetolerance="10"
     inkscape:pageopacity="0"
     inkscape:pageshadow="2"
     inkscape:window-width="2400"
     inkscape:window-height="1271"
     id="namedview8"
     showgrid="false"
     inkscape:zoom="0.13169643"
     inkscape:cx="-30.372881"
     inkscape:cy="896"
     inkscape:window-x="2551"
     inkscape:window-y="-9"
     inkscape:window-maximized="1"
     inkscape:current-layer="svg6" />
  <path
     fill="#0D55A3"
     d="M896 1502.5c-84.222 0-167.458-11.279-247.395-33.523-80.062-22.279-159.171-56.213-235.131-100.857-76.129-44.743-145.415-97.423-205.934-156.576-60.353-58.99-113.743-126.136-158.689-199.575C38.665 994.015 33.5 976.532 33.5 960c0-16.529 5.164-34.012 15.349-51.963 44.948-73.444 98.335-140.586 158.692-199.58 60.519-59.152 129.805-111.833 205.934-156.576 75.96-44.645 155.069-78.578 235.131-100.857C728.543 428.779 811.779 417.5 896 417.5s167.457 11.279 247.394 33.524c80.062 22.279 159.172 56.212 235.132 100.857 76.128 44.743 145.414 97.423 205.933 156.576 60.354 58.991 113.744 126.139 158.691 199.577 10.187 17.955 15.351 35.437 15.351 51.966 0 16.541-5.171 34.032-15.369 51.998-44.947 73.765-98.337 141.117-158.688 200.187-60.502 59.216-129.767 111.839-205.871 156.407-75.964 44.487-155.079 78.301-235.147 100.501C1063.478 1491.26 980.233 1502.5 896 1502.5zM493.759 577.168c-78.715 40.217-151.817 91.36-217.276 152.008C211.219 789.643 151.787 861.2 99.836 941.86L88.11 960.066l11.786 18.166c45.465 70.078 97.46 133.946 154.542 189.831 57.158 55.958 120.982 105.445 189.7 147.087 69.123 41.888 142.205 73.762 217.214 94.737C736.369 1430.864 815.315 1441.5 896 1441.5s159.632-10.636 234.646-31.612c75.009-20.976 148.091-52.85 217.215-94.737 68.717-41.642 132.541-91.129 189.698-147.087 57.083-55.885 109.078-119.752 154.544-189.83l11.786-18.167-11.726-18.206c-51.951-80.66-111.384-152.217-176.646-212.684-65.459-60.648-138.562-111.792-217.276-152.008l-102.202-52.217 58.064 98.997C1291.526 687.751 1310.5 757.75 1310.5 832c0 56.944-10.198 110.363-30.312 158.772-20.122 48.432-50.866 93.528-91.377 134.039-40.511 40.512-85.608 71.255-134.04 91.378-48.407 20.113-101.826 30.311-158.771 30.311-56.945 0-110.363-10.198-158.772-30.311-48.432-20.123-93.53-50.866-134.04-91.377-40.511-40.511-71.254-85.608-91.377-134.04C491.698 942.363 481.5 888.945 481.5 832c0-74.251 18.975-144.25 56.396-208.051l58.066-98.998-102.203 52.217zM896 494.5c-92.151 0-172.29 33.414-238.188 99.312S558.5 739.848 558.5 832c0 22.164 8.234 42.112 23.813 57.689C597.888 905.265 617.837 913.5 640 913.5c22.162 0 42.11-8.234 57.688-23.812C713.266 874.11 721.5 854.162 721.5 832c0-48.532 16.744-88.868 51.188-123.312S847.469 657.5 896 657.5c22.162 0 42.11-8.234 57.688-23.812C969.266 618.11 977.5 598.162 977.5 576c0-22.16-8.233-42.108-23.811-57.687C938.109 502.734 918.16 494.5 896 494.5z"
     id="path2" />
  <path
     d="M896 451c80.497 0 160.039 10.683 236.453 31.755l92.754 158.142c17.232 29.38 30.312 60.295 38.877 91.885C1272.655 764.393 1277 797.775 1277 832c0 52.51-9.335 101.604-27.747 145.918-18.431 44.361-46.736 85.812-84.129 123.206-37.394 37.393-78.846 65.698-123.206 84.129C997.605 1203.665 948.511 1213 896 1213s-101.604-9.335-145.919-27.747c-44.36-18.431-85.812-46.736-123.205-84.13-37.393-37.393-65.698-78.844-84.129-123.204C524.336 933.604 515 884.51 515 832c0-34.225 4.345-67.607 12.916-99.218 8.564-31.59 21.645-62.504 38.877-91.884l92.757-158.144C735.963 461.682 815.503 451 896 451M640 947c31.24 0 59.379-11.627 81.376-33.624C743.373 891.379 755 863.24 755 832c0-19.952 3.314-37.639 10.133-54.07 6.831-16.46 17.05-31.361 31.243-45.554 14.193-14.192 29.093-24.412 45.553-31.243C858.362 694.314 876.048 691 896 691c31.24 0 59.379-11.627 81.376-33.624C999.373 635.379 1011 607.24 1011 576c0-31.238-11.626-59.377-33.626-81.378C955.377 472.626 927.239 461 896 461c-50.375 0-98.126 9.267-141.925 27.542-43.689 18.229-84.046 45.677-119.951 81.582-35.905 35.905-63.353 76.262-81.583 119.951C534.266 733.874 525 781.625 525 832c0 31.242 11.628 59.382 33.622 81.374C580.618 935.372 608.759 947 640 947m256-563c-175.334 0-341.834 46.334-499.5 139C238.833 615.667 113.333 738.334 20 891 6.666 914.334 0 937.334 0 960c0 22.667 6.666 45.667 20 69 93.333 152.667 218.833 275.334 376.5 368 157.666 92.667 324.166 139 499.5 139 175.333 0 341.833-46.166 499.5-138.5 157.666-92.333 283.166-215.166 376.5-368.5 13.333-23.333 20-46.333 20-69 0-22.666-6.667-45.666-20-69-93.334-152.666-218.834-275.333-376.5-368-157.667-92.666-324.167-139-499.5-139zM640 880c-13.334 0-24.667-4.666-34-14-9.334-9.333-14-20.666-14-34 0-83.333 29.833-154.833 89.5-214.5C741.166 557.834 812.666 528 896 528c13.333 0 24.666 4.667 34 14 9.333 9.334 14 20.667 14 34 0 13.334-4.667 24.667-14 34-9.334 9.334-20.667 14-34 14-57.334 0-106.334 20.334-147 61-40.667 40.667-61 89.667-61 147 0 13.334-4.667 24.667-14 34-9.334 9.334-20.667 14-34 14zm256 400c123.333 0 228.833-43.833 316.5-131.5 87.666-87.666 131.5-193.166 131.5-316.5 0-80.666-20.334-155.666-61-225 152.666 78 279.666 195.667 381 353-88.667 136.667-199.834 245.5-333.5 326.5-133.667 81-278.5 121.5-434.5 121.5s-300.834-40.5-434.5-121.5c-133.667-81-244.834-189.833-333.5-326.5 101.333-157.333 228.333-275 381-353-40.667 69.334-61 144.334-61 225 0 123.334 43.833 228.834 131.5 316.5C667.166 1236.167 772.666 1280 896 1280z"
     id="path4"
     fill="#0F0F0F"
     style="fill:#0d55a3;fill-opacity:1" />
</svg>
