<?xml version="1.0" encoding="UTF-8" standalone="no"?>
<!-- Generator: Adobe Illustrator 16.0.0, SVG Export Plug-In . SVG Version: 6.00 Build 0)  -->

<svg
   xmlns:dc="http://purl.org/dc/elements/1.1/"
   xmlns:cc="http://creativecommons.org/ns#"
   xmlns:rdf="http://www.w3.org/1999/02/22-rdf-syntax-ns#"
   xmlns:svg="http://www.w3.org/2000/svg"
   xmlns="http://www.w3.org/2000/svg"
   xmlns:sodipodi="http://sodipodi.sourceforge.net/DTD/sodipodi-0.dtd"
   xmlns:inkscape="http://www.inkscape.org/namespaces/inkscape"
   version="1.1"
   id="Layer_1"
   x="0px"
   y="0px"
   width="1792px"
   height="1792px"
   viewBox="0 0 1792 1792"
   enable-background="new 0 0 1792 1792"
   xml:space="preserve"
   sodipodi:docname="globe.svg"
   inkscape:version="0.92.3 (2405546, 2018-03-11)"><metadata
   id="metadata11"><rdf:RDF><cc:Work
       rdf:about=""><dc:format>image/svg+xml</dc:format><dc:type
         rdf:resource="http://purl.org/dc/dcmitype/StillImage" /><dc:title /></cc:Work></rdf:RDF></metadata><defs
   id="defs9"><clipPath
     clipPathUnits="userSpaceOnUse"
     id="clipPath835"><circle
       style="opacity:1;fill:#96a11d;fill-opacity:1;stroke:#ba1111;stroke-width:1;stroke-linecap:round;stroke-linejoin:round;stroke-miterlimit:4;stroke-dasharray:none;stroke-opacity:1;paint-order:stroke fill markers"
       id="circle837"
       cx="896"
       cy="896"
       r="695.31366"
       clip-path="none" /></clipPath></defs><sodipodi:namedview
   pagecolor="#ffffff"
   bordercolor="#666666"
   borderopacity="1"
   objecttolerance="10"
   gridtolerance="10"
   guidetolerance="10"
   inkscape:pageopacity="0"
   inkscape:pageshadow="2"
   inkscape:window-width="2400"
   inkscape:window-height="1271"
   id="namedview7"
   showgrid="false"
   inkscape:zoom="0.37249375"
   inkscape:cx="224.86281"
   inkscape:cy="985.62864"
   inkscape:window-x="2551"
   inkscape:window-y="-9"
   inkscape:window-maximized="1"
   inkscape:current-layer="Layer_1" />


<circle
   style="opacity:1;fill:#75901a;fill-opacity:1;stroke:#ba1111;stroke-width:1;stroke-linecap:round;stroke-linejoin:round;stroke-miterlimit:4;stroke-dasharray:none;stroke-opacity:1;paint-order:stroke fill markers"
   id="path818-2"
   cx="896"
   cy="896"
   r="768.02631" /><path
   d="m 896,128 c 139.333,0 267.833,34.33401 385.5,103.00001 117.666,68.667 210.833,161.834 279.5,279.5 68.666,117.667 103,246.167 103,385.5 0,139.33399 -34.334,267.83399 -103,385.49999 -68.667,117.667 -161.834,210.834 -279.5,279.5 -117.667,68.667 -246.167,103 -385.5,103 -139.334,0 -267.834,-34.333 -385.5,-103 C 392.833,1492.334 299.666,1399.167 231,1281.5 162.333,1163.834 128,1035.334 128,896.00001 c 0,-139.333 34.333,-267.833 103,-385.5 68.666,-117.666 161.833,-210.833 279.5,-279.5 C 628.16601,162.33401 756.66601,128 896,128 Z m 274,521.00001 c -1.334,0.667 -4.5,3.834 -9.5,9.5 -5,5.667 -9.5,8.834 -13.5,9.5 1.333,0 2.833,-1.666 4.5,-5 1.666,-3.333 3.333,-7 5,-11 1.666,-4 2.833,-6.333 3.5,-7 4,-4.666 11.333,-9.666 22,-15 9.333,-4 26.666,-8 52,-12 22.666,-5.333 39.666,-1.666 51,11 -1.334,-1.333 1.833,-5.666 9.5,-13 7.666,-7.333 12.5,-11.333 14.5,-12 2,-1.333 7,-2.833 15,-4.5 8,-1.666 13,-4.166 15,-7.5 l 2,-22 c -8,0.667 -13.834,-1.666 -17.5,-7 -3.667,-5.333 -5.834,-12.333 -6.5,-21 0,1.334 -2,4 -6,8 0,-4.666 -1.5,-7.333 -4.5,-8 -3,-0.666 -6.834,-0.333 -11.5,1 -4.667,1.334 -7.667,1.667 -9,1 -6.667,-2 -11.667,-4.5 -15,-7.5 -3.334,-3 -6,-8.5 -8,-16.5 -2,-8 -3.334,-13 -4,-15 -1.334,-3.333 -4.5,-6.833 -9.5,-10.5 -5,-3.666 -8.167,-7.166 -9.5,-10.5 -0.667,-1.333 -1.5,-3.166 -2.5,-5.5 -1,-2.333 -2,-4.5 -3,-6.5 -1,-2 -2.334,-3.833 -4,-5.5 -1.667,-1.666 -3.5,-2.5 -5.5,-2.5 -2,0 -4.334,1.667 -7,5 -2.667,3.334 -5.167,6.667 -7.5,10 -2.334,3.334 -3.834,5 -4.5,5 -2,-1.333 -4,-1.833 -6,-1.5 -2,0.334 -3.5,0.667 -4.5,1 -1,0.334 -2.5,1.334 -4.5,3 -2,1.667 -3.667,2.834 -5,3.5 -2,1.334 -4.834,2.334 -8.5,3 -3.667,0.667 -6.5,1.334 -8.5,2 10,-3.333 9.666,-7 -1,-11 -6.667,-2.666 -12,-3.666 -16,-3 6,-2.666 8.5,-6.666 7.5,-12 -1,-5.333 -3.834,-10 -8.5,-14 h 5 c -0.667,-2.666 -3.5,-5.5 -8.5,-8.5 -5,-3 -10.834,-5.833 -17.5,-8.5 -6.667,-2.666 -11,-4.666 -13,-6 -5.334,-3.333 -16.667,-6.5 -34,-9.5 -17.334,-3 -28.334,-3.166 -33,-0.5 -3.334,4 -4.834,7.5 -4.5,10.5 0.333,3 1.666,7.667 4,14 2.333,6.334 3.5,10.5 3.5,12.5 0.666,4 -1.167,8.334 -5.5,13 -4.334,4.667 -6.5,8.667 -6.5,12 0,4.667 4.666,9.834 14,15.5 9.333,5.667 12.666,12.834 10,21.5 -2,5.334 -7.334,10.667 -16,16 -8.667,5.334 -14,9.334 -16,12 -3.334,5.334 -3.834,11.5 -1.5,18.5 2.333,7 5.833,12.5 10.5,16.5 1.333,1.334 1.833,2.667 1.5,4 -0.334,1.334 -1.5,2.834 -3.5,4.5 -2,1.667 -3.834,3 -5.5,4 -1.667,1 -3.834,2.167 -6.5,3.5 l -3,2 c -7.334,3.334 -14.167,1.334 -20.5,-6 -6.33402,-7.333 -10.83402,-16 -13.50001,-26 -4.66701,-16.666 -10,-26.666 -16,-30 -15.334,-5.333 -25,-5 -29,1 -3.334,-8.666 -17,-17.333 -40.99999,-26 -16.667,-6 -36,-7.333 -58,-4 4,-0.666 4,-5.666 0,-15 -4.667,-10 -11,-14 -19,-12 2,-4 3.333,-9.833 4,-17.5 0.66601,-7.666 1,-12.166 1,-13.5 2,-8.666 6,-16.333 12,-23 0.66601,-0.666 3,-3.5 7,-8.5 4,-5 7.16601,-9.5 9.5,-13.5 2.333,-4 2.5,-6 0.5,-6 23.333,2.667 40,-1 49.99999,-11 3.33299,-3.333 7.166,-9 11.5,-17 4.33299,-8 7.83299,-13.666 10.5,-17 6,-4 10.666,-5.833 14,-5.5 3.33299,0.334 8.166,2.167 14.5,5.5 6.33299,3.334 11.166,5 14.5,5 9.33299,0.667 14.5,-3 15.5,-11 1,-8 -1.5,-14.666 -7.5,-20 8,0.667 9,-5 3,-17 -3.334,-4.666 -6,-7.666 -8,-9 -8,-2.666 -17,-1 -27,5 -5.334,2.667 -4.66701,5.334 2,8 -0.66701,-0.666 -3.834,2.834 -9.5,10.5 -5.66701,7.667 -11.16701,13.5 -16.5,17.5 -5.334,4 -10.66701,2.334 -16,-5 -0.66701,-0.666 -2.5,-5.166 -5.49999,-13.5 -3,-8.333 -6.167,-12.833 -9.5,-13.5 -5.33399,0 -10.667,5 -16,15 2,-5.333 -1.667,-10.333 -11,-15 -9.33399,-4.666 -17.33399,-7.333 -24,-8 12.66601,-8 10,-17 -8,-27 -4.667,-2.666 -11.5,-4.333 -20.5,-5 -9,-0.666 -15.5,0.667 -19.5,4 -3.33399,4.667 -5.167,8.5 -5.5,11.5 -0.33399,3 1.333,5.667 5,8 3.66601,2.334 7.16601,4.167 10.5,5.5 3.333,1.334 7.16601,2.667 11.5,4 4.333,1.334 7.16601,2.334 8.5,3 9.333,6.667 12,11.334 8,14 -1.33399,0.667 -4.167,1.834 -8.5,3.5 -4.33399,1.667 -8.167,3.167 -11.5,4.5 -3.33399,1.334 -5.33399,2.667 -6,4 -2,2.667 -2,7.334 0,14 2,6.667 1.333,11.334 -2,14 -3.33399,-3.333 -6.33399,-9.166 -9,-17.5 -2.667,-8.333 -5,-13.833 -7,-16.5 4.66601,6 -3.667,8 -25,6 l -10,-1 c -2.667,0 -8,0.667 -16,2 -8,1.334 -14.83399,1.667 -20.5,1 -5.667,-0.666 -10.167,-3.333 -13.5,-8 -2.667,-5.333 -2.667,-12 0,-20 0.66601,-2.666 2,-3.333 4,-2 -2.667,-2 -6.33399,-5.166 -11,-9.5 -4.667,-4.333 -8,-7.166 -10,-8.5 -30.667,10 -62,23.667 -94,41 4,0.667 8,0.334 12,-1 3.333,-1.333 7.66601,-3.5 13,-6.5 5.333,-3 8.66601,-4.833 10,-5.5 22.66601,-9.333 36.666,-11.666 42,-7 l 5,-5 c 9.333,10.667 16,19 20,25 -4.667,-2.666 -14.667,-3 -30,-1 -13.33399,4 -20.667,8 -22,12 4.66601,8 6.333,14 5,18 -2.667,-2 -6.5,-5.333 -11.5,-10 -5,-4.666 -9.83399,-8.333 -14.5,-11 -4.667,-2.666 -9.667,-4.333 -15,-5 -10.667,0 -18,0.334 -22,1 -97.334,53.334 -175.667,127.334 -235,222 4.666,4.667 8.666,7.334 12,8 2.666,0.667 4.33301,3.667 5,9 0.666,5.334 1.5,9 2.5,11 1,2 4.83301,1 11.5,-3 6,5.334 7,11.667 3,19 0.666,-0.666 15.33301,8.334 44,27 12.666,11.334 19.666,18.334 21,21 2,7.334 -1.334,13.334 -10,18 -0.66699,-1.333 -3.66699,-4.333 -9,-9 -5.334,-4.666 -8.334,-6 -9,-4 -2,3.334 -1.834,9.5 0.5,18.5 2.33301,9 5.83301,13.167 10.5,12.5 -4.66699,0 -7.834,5.334 -9.5,16 -1.66699,10.667 -2.5,22.5 -2.5,35.5 0,13 -0.334,20.834 -1,23.5 l 2,1 c -2,8 -0.16699,19.5 5.5,34.5 5.666,15 12.83301,21.5 21.5,19.5 -8.66699,2 -2,16.334 20,43 4,5.334 6.666,8.334 8,9 2,1.334 6,3.834 12,7.5 6,3.667 11,7 15,10 4,3 7.333,6.5 10,10.5 2.66601,3.334 6,10.834 10,22.5 4,11.667 8.66601,19.5 14,23.5 -1.33399,4 1.833,10.667 9.5,20 7.66601,9.334 11.16601,17 10.5,23 -0.667,0 -1.5,0.334 -2.5,1 -1,0.667 -1.83399,1 -2.5,1 2,4.667 7.16601,9.334 15.5,13.99998 C 579.833,1004.667 585,1009 587,1013 c 0.66601,2 1.333,5.334 2,10 0.66601,4.667 1.66601,8.334 3,11 1.333,2.667 4,3.334 8,2 1.333,-13.333 -6.667,-34 -24,-61.99999 -10,-16.666 -15.667,-26.333 -17,-29 -2,-3.333 -3.83399,-8.5 -5.5,-15.5 -1.667,-7 -3.167,-11.833 -4.5,-14.5 1.333,0 3.333,0.5 6,1.5 2.66601,1 5.5,2.167 8.5,3.5 3,1.334 5.5,2.667 7.5,4 2,1.334 2.66601,2.334 2,3 -2,4.667 -1.33399,10.5 2,17.5 3.333,7 7.333,13.167 12,18.5 4.66601,5.334 10.333,11.667 17,19 6.66601,7.334 10.66601,11.667 12,13 4,4 8.66601,10.49999 14,19.49999 5.333,9 5.333,13.5 0,13.5 6,0 12.66601,3.334 20,10 7.333,6.667 13,13.334 17,20 3.333,5.334 6,14 8,26 2,12 3.66601,20 5,24 1.333,4.667 4.16601,9.167 8.5,13.5 4.333,4.334 8.5,7.5 12.5,9.5 l 16,8 13,7 c 3.333,1.334 9.5,4.834 18.5,10.5 9,5.667 16.16601,9.5 21.5,11.5 6.66601,2.667 12,4 16,4 4,0 8.833,-0.833 14.5,-2.5 5.66601,-1.666 10.16601,-2.833 13.5,-3.5 10,-1.333 19.66601,3.667 29,15 9.333,11.334 16.333,18.334 21,21 24,12.667 42.333,16.334 54.99999,11 -1.334,0.667 -1.16701,3.167 0.5,7.5 1.666,4.334 4.33299,9.5 8,15.5 3.666,6 6.666,10.834 9,14.5 2.33299,3.667 4.166,6.5 5.5,8.5 3.33299,4 9.33299,9 18,15 8.666,6 14.666,11 18,15 4,-2.666 6.33299,-5.666 7,-9 -2,5.334 0.33299,12 7,20 6.666,8 12.66601,11.334 18.00001,10 9.333,-2 14,-12.666 14,-32 -20.667,10 -37.00001,4 -49.00001,-18 0,-0.666 -0.834,-2.5 -2.5,-5.5 -1.66701,-3 -3,-5.833 -4,-8.5 -1,-2.666 -1.834,-5.5 -2.5,-8.5 -0.66701,-3 -0.66701,-5.5 0,-7.5 0.666,-2 2.33299,-3 5,-3 6,0 9.33299,-1.166 10,-3.5 0.666,-2.333 0,-6.5 -2,-12.5 -2,-6 -3.334,-10.333 -4,-13 -0.66701,-5.333 -4.334,-12 -11,-20 -6.66701,-8 -10.66701,-13 -12,-15 -3.334,6 -8.66701,8.667 -16,8 -7.334,-0.666 -12.66701,-3.666 -16,-9 0,0.667 -0.5,2.5 -1.5,5.5 -1,3 -1.5,5.167 -1.5,6.5 -8.66698,0 -13.66698,-0.333 -14.99999,-1 0.66601,-2 1.5,-7.833 2.5,-17.5 1,-9.666 2.16601,-17.166 3.5,-22.5 0.66601,-2.666 2.49999,-6.666 5.49999,-12 3,-5.333 5.5,-10.166 7.5,-14.5 2,-4.333 3.33299,-8.5 4,-12.5 0.666,-4 -0.834,-7.166 -4.5,-9.5 -3.66701,-2.333 -9.5,-3.166 -17.49999,-2.5 -12.667,0.667 -21.33399,7.334 -26,20 -0.667,2 -1.667,5.5 -3,10.5 -1.33399,5 -3,8.834 -5,11.5 -2,2.667 -5,5 -9,7 -4.667,2 -12.667,2.667 -24,2 -11.33399,-0.666 -19.33399,-2.333 -24,-5 -8.667,-5.333 -16.167,-15 -22.5,-29 -6.33399,-14 -9.5,-26.333 -9.5,-37 0,-6.666 0.833,-15.5 2.5,-26.5 1.66601,-11 2.66601,-19.333 3,-25 0.333,-5.666 -1.5,-13.83299 -5.5,-24.49999 2,-1.333 5,-4.5 9,-9.5 4,-5 7.333,-8.5 10,-10.5 1.333,-0.666 2.833,-1.166 4.5,-1.5 1.66601,-0.333 3.16601,-0.333 4.5,0 1.333,0.334 2.66601,-0.166 4,-1.5 1.333,-1.333 2.333,-3.333 3,-6 -0.667,-0.666 -2,-1.666 -4,-3 -2,-2 -3.33399,-3 -4,-3 4.66601,2 14.16601,1.5 28.5,-1.5 14.333,-3 23.5,-2.5 27.5,1.5 10,7.334 17.333,6.667 22,-2 0,-0.666 -0.83399,-3.833 -2.5,-9.5 -1.667,-5.666 -1.83399,-10.166 -0.5,-13.5 3.333,18 13,21 28.99999,9 2,2 7.166,3.667 15.5,5 8.33299,1.334 14.166,3 17.5,5 2,1.334 4.33299,3.167 7,5.5 2.666,2.334 4.5,3.834 5.5,4.5 1,0.667 2.666,0.5 5,-0.5 2.33299,-1 5.166,-3.166 8.5,-6.5 6.666,9.334 10.666,17.334 12,24 7.33299,26.667 13.666,41.33399 19.00001,43.99999 4.666,2 8.333,2.667 11,2 2.666,-0.666 4.166,-3.833 4.5,-9.5 0.333,-5.666 0.333,-10.33299 0,-13.99999 -0.334,-3.666 -0.834,-7.833 -1.5,-12.5 l -1,-8 v -18 l -1,-8 c -10,-2 -16.16702,-6 -18.50001,-12 -2.334,-6 -1.834,-12.166 1.5,-18.5 3.33299,-6.333 8.33301,-12.5 15.00001,-18.5 0.666,-0.666 3.333,-1.833 8,-3.5 4.666,-1.666 9.833,-3.833 15.5,-6.5 5.666,-2.666 9.833,-5.333 12.5,-8 14,-12.666 19,-24.333 15,-35 4.666,0 8.333,-3 11,-9 -0.667,0 -2.334,-1 -5,-3 -2.667,-2 -5.167,-3.666 -7.5,-5 -2.334,-1.333 -3.834,-2 -4.5,-2 6,-3.333 6.666,-8.666 2,-16 3.333,-2 5.833,-5.666 7.5,-11 1.666,-5.333 4.166,-8.666 7.5,-10 6,8 13,8.667 21,2 4.666,-5.333 5,-10.666 1,-16 3.333,-4.666 10.166,-8.166 20.5,-10.5 10.333,-2.333 16.5,-5.5 18.5,-9.5 4.666,1.334 7.333,0.667 8,-2 0.666,-2.666 1,-6.666 1,-12 0,-5.333 1,-9.333 3,-12 2.666,-3.333 7.666,-6.333 15,-9 7.333,-2.666 11.666,-4.333 13,-5 l 17,-11 c 2,-2.666 2,-4 0,-4 12,1.334 22.333,-2.333 31,-11 6.666,-7.333 4.666,-14 -6,-20 2,-4 1,-7.166 -3,-9.5 -4,-2.333 -9,-4.166 -15,-5.5 2,-0.666 5.833,-0.833 11.5,-0.5 5.666,0.334 9.166,-0.166 10.5,-1.5 10,-6.666 7.666,-12 -7,-16 -11.334,-3.333 -25.667,0.667 -43,12 z M 1007,1526 c 137.333,-24 254.333,-87 351,-189 -2,-2 -6.167,-3.5 -12.5,-4.5 -6.334,-1 -10.5,-2.166 -12.5,-3.5 -12,-4.666 -20,-7.333 -24,-8 0.666,-4.666 -0.167,-9 -2.5,-13 -2.334,-4 -5,-7 -8,-9 -3,-2 -7.167,-4.666 -12.5,-8 -5.334,-3.333 -9,-5.666 -11,-7 -1.334,-1.333 -3.667,-3.333 -7,-6 -3.334,-2.666 -5.667,-4.5 -7,-5.5 -1.334,-1 -3.834,-2.5 -7.5,-4.5 -3.667,-2 -6.5,-2.666 -8.5,-2 -2,0.667 -5.334,1 -10,1 l -3,1 c -2,0.667 -3.834,1.5 -5.5,2.5 -1.667,1 -3.5,2 -5.5,3 -2,1 -3.334,2 -4,3 -0.667,1 -0.667,1.834 0,2.5 -14,-11.333 -26,-18.666 -36,-22 -3.334,-0.666 -7,-2.5 -11,-5.5 -4,-3 -7.5,-5.333 -10.5,-7 -3,-1.666 -6.334,-2.166 -10,-1.5 -3.667,0.667 -7.5,3 -11.5,7 -3.334,3.334 -5.334,8.334 -6,15 -0.667,6.667 -1.334,11 -2,13 -4.667,-3.333 -4.667,-9.166 0,-17.5 4.666,-8.333 5.333,-14.5 2,-18.5 -2,-4 -5.5,-5.5 -10.5,-4.5 -5,1 -9,2.5 -12,4.5 -3,2 -6.834,4.834 -11.5,8.5 -4.667,3.667 -7.667,5.834 -9,6.5 -1.334,0.667 -4.167,2.5 -8.5,5.5 -4.334,3 -7.167,5.5 -8.5,7.5 -2,2.667 -4,6.667 -6,12 -2,5.334 -3.667,9 -5,11 -1.334,-2.666 -5.167,-4.833 -11.5,-6.5 -6.334,-1.666 -9.5,-3.5 -9.5,-5.5 1.333,6.667 2.666,18.334 4,35 1.333,16.667 3,29.334 5,38 4.666,20.667 0.666,36.667 -12,48 -18,16.667 -27.667,30 -29,40 -2.667,14.667 1.333,23.334 12,26 0,4.667 -2.667,11.5 -8,20.5 -5.334,9 -7.667,16.167 -7,21.5 0,4 0.666,9.334 2,16 z"
   id="path4"
   inkscape:connector-curvature="0"
   style="fill:#83c6ec;fill-opacity:1;stroke-width:0.90532529"
   clip-path="url(#clipPath835)"
   transform="matrix(1.1045753,0,0,1.1045753,-93.699469,-93.699469)" /></svg>