<?xml version="1.0" encoding="UTF-8" standalone="no"?>
<svg
   xmlns:dc="http://purl.org/dc/elements/1.1/"
   xmlns:cc="http://creativecommons.org/ns#"
   xmlns:rdf="http://www.w3.org/1999/02/22-rdf-syntax-ns#"
   xmlns:svg="http://www.w3.org/2000/svg"
   xmlns="http://www.w3.org/2000/svg"
   xmlns:sodipodi="http://sodipodi.sourceforge.net/DTD/sodipodi-0.dtd"
   xmlns:inkscape="http://www.inkscape.org/namespaces/inkscape"
   width="1792"
   height="1792"
   viewBox="0 0 1792 1792"
   version="1.1"
   id="svg4"
   sodipodi:docname="datacreated.svg"
   inkscape:version="0.92.3 (2405546, 2018-03-11)">
  <metadata
     id="metadata10">
    <rdf:RDF>
      <cc:Work
         rdf:about="">
        <dc:format>image/svg+xml</dc:format>
        <dc:type
           rdf:resource="http://purl.org/dc/dcmitype/StillImage" />
      </cc:Work>
    </rdf:RDF>
  </metadata>
  <defs
     id="defs8" />
  <sodipodi:namedview
     pagecolor="#ffffff"
     bordercolor="#666666"
     borderopacity="1"
     objecttolerance="10"
     gridtolerance="10"
     guidetolerance="10"
     inkscape:pageopacity="0"
     inkscape:pageshadow="2"
     inkscape:window-width="2048"
     inkscape:window-height="1073"
     id="namedview6"
     showgrid="false"
     inkscape:zoom="0.13169643"
     inkscape:cx="-30.372881"
     inkscape:cy="896"
     inkscape:window-x="-9"
     inkscape:window-y="-9"
     inkscape:window-maximized="1"
     inkscape:current-layer="svg4" />
  <path
     inkscape:connector-curvature="0"
     d="m 1600,256 q 52,0 90,38 38,38 38,90 v 1280 q 0,52 -38,90 -38,38 -90,38 H 192.00002 q -52,0 -90,-38 -38,-38 -38,-90 V 384 q 0,-52 38,-90 38,-38 90,-38 h 128 v -96 q 0,-66 47,-113 47,-47 113,-47 h 64 q 66,0 113,47 47,47 47,113 v 96 H 1088 v -96 q 0,-66 47,-113 47,-47 113,-47 h 64 q 66,0 113,47 47,47 47,113 v 96 z m -384,-96 v 288 q 0,14 9,23 9,9 23,9 h 64 q 14,0 23,-9 9,-9 9,-23 V 160 q 0,-14 -9,-23 -9,-9 -23,-9 h -64 q -14,0 -23,9 -9,9 -9,23 z m -767.99998,0 v 288 q 0,14 9,23 9,9 23,9 h 64 q 14,0 23,-9 9,-9 9,-23 V 160 q 0,-14 -9,-23 -9,-9 -23,-9 h -64 q -14,0 -23,9 -9,9 -9,23 z M 1600,1664 V 640 H 192.00002 V 1664 Z M 960.00002,1088 H 1184 q 14,0 23,9 9,9 9,23 v 64 q 0,14 -9,23 -9,9 -23,9 H 960.00002 v 224 q 0,14 -9,23 -9,9 -23,9 h -64 q -14,0 -23,-9 -9,-9 -9,-23 v -224 h -224 q -14,0 -23,-9 -9,-9 -9,-23 v -64 q 0,-14 9,-23 9,-9 23,-9 h 224 V 864 q 0,-14 9,-23 9,-9 23,-9 h 64 q 14,0 23,9 9,9 9,23 z"
     id="path2-6"
     style="fill:#f29800;fill-opacity:1" />
</svg>
