<?xml version="1.0" encoding="UTF-8" standalone="no"?>
<svg
   xmlns:dc="http://purl.org/dc/elements/1.1/"
   xmlns:cc="http://creativecommons.org/ns#"
   xmlns:rdf="http://www.w3.org/1999/02/22-rdf-syntax-ns#"
   xmlns:svg="http://www.w3.org/2000/svg"
   xmlns="http://www.w3.org/2000/svg"
   xmlns:sodipodi="http://sodipodi.sourceforge.net/DTD/sodipodi-0.dtd"
   xmlns:inkscape="http://www.inkscape.org/namespaces/inkscape"
   width="1792"
   height="1792"
   fill="#6480A7"
   version="1.1"
   id="svg4"
   sodipodi:docname="star.svg"
   inkscape:version="0.92.3 (2405546, 2018-03-11)">
  <metadata
     id="metadata10">
    <rdf:RDF>
      <cc:Work
         rdf:about="">
        <dc:format>image/svg+xml</dc:format>
        <dc:type
           rdf:resource="http://purl.org/dc/dcmitype/StillImage" />
      </cc:Work>
    </rdf:RDF>
  </metadata>
  <defs
     id="defs8" />
  <sodipodi:namedview
     pagecolor="#ffffff"
     bordercolor="#666666"
     borderopacity="1"
     objecttolerance="10"
     gridtolerance="10"
     guidetolerance="10"
     inkscape:pageopacity="0"
     inkscape:pageshadow="2"
     inkscape:window-width="2400"
     inkscape:window-height="1271"
     id="namedview6"
     showgrid="false"
     showguides="false"
     inkscape:zoom="0.26339286"
     inkscape:cx="-454.35726"
     inkscape:cy="1132.8501"
     inkscape:window-x="2551"
     inkscape:window-y="-9"
     inkscape:window-maximized="1"
     inkscape:current-layer="svg4" />
  <path
     style="fill-rule:evenodd;stroke-width:1.33333325"
     inkscape:connector-curvature="0"
     id="path64"
     d="m 919.83892,47.628873 223.98848,517.860417 561.667,52.91967 c 10.3287,0.92001 19.1236,7.89966 22.3499,17.76194 3.226,9.86232 0.2575,20.6937 -7.5438,27.53853 l -423.4328,373.06297 123.2678,550.582 h -0.012 c 2.2571,10.083 -1.7051,20.5589 -10.0708,26.6187 -8.3782,6.072 -19.5532,6.5873 -28.4464,1.3125 L 895.99655,1327.9518 410.481,1615.3233 c -9.1634,5.4832 -20.7554,4.7839 -29.1948,-1.7664 -8.4394,-6.5503 -11.9967,-17.615 -8.9547,-27.8575 L 495.2058,1036.8132 71.835796,663.78157 c -8.1452,-7.04109 -11.0887,-18.38781 -7.3844,-28.50762 3.7044,-10.12011 13.2724,-16.89113 24.055,-17.00168 L 648.44617,565.51275 872.4347,47.652333 v 0 c 4.09639,-9.49426 13.45594,-15.65232 23.79643,-15.65232 10.3532,0 19.70003,6.15773 23.79713,15.65232 z" />
</svg>
