<?xml version="1.0" encoding="UTF-8" standalone="no"?>
<svg
   xmlns:dc="http://purl.org/dc/elements/1.1/"
   xmlns:cc="http://creativecommons.org/ns#"
   xmlns:rdf="http://www.w3.org/1999/02/22-rdf-syntax-ns#"
   xmlns:svg="http://www.w3.org/2000/svg"
   xmlns="http://www.w3.org/2000/svg"
   xmlns:sodipodi="http://sodipodi.sourceforge.net/DTD/sodipodi-0.dtd"
   xmlns:inkscape="http://www.inkscape.org/namespaces/inkscape"
   width="1792"
   height="1792"
   viewBox="0 0 1792 1792"
   fill="rgb(100,128,167)"
   version="1.1"
   id="svg4"
   sodipodi:docname="cubes.svg"
   inkscape:version="0.92.3 (2405546, 2018-03-11)">
  <metadata
     id="metadata10">
    <rdf:RDF>
      <cc:Work
         rdf:about="">
        <dc:format>image/svg+xml</dc:format>
        <dc:type
           rdf:resource="http://purl.org/dc/dcmitype/StillImage" />
      </cc:Work>
    </rdf:RDF>
  </metadata>
  <defs
     id="defs8" />
  <sodipodi:namedview
     pagecolor="#ffffff"
     bordercolor="#666666"
     borderopacity="1"
     objecttolerance="10"
     gridtolerance="10"
     guidetolerance="10"
     inkscape:pageopacity="0"
     inkscape:pageshadow="2"
     inkscape:window-width="2400"
     inkscape:window-height="1271"
     id="namedview6"
     showgrid="false"
     inkscape:zoom="0.26339286"
     inkscape:cx="1073.9295"
     inkscape:cy="743.13439"
     inkscape:window-x="2551"
     inkscape:window-y="-9"
     inkscape:window-maximized="1"
     inkscape:current-layer="svg4" />
  <path
     d="m 527.05882,1632 316.2353,-192 v -314 l -316.2353,164 z M 474.35294,1178 807.05882,1005 474.35294,832 141.64706,1005 Z m 895.99996,454 316.2353,-192 v -314 l -316.2353,164 z m -52.7058,-454 332.7058,-173 -332.7058,-173 -332.70593,173 z M 948.70588,885 1264.9412,720 V 454 L 948.70588,618 Z M 896,506 1259.1765,317 896,128 532.82353,317 Z m 896,518 v 416 q 0,36 -15.6471,67 -15.647,31 -42.8235,47 l -368.9412,224 q -20.5882,14 -46.9411,14 -26.353,0 -46.9412,-14 L 901.7647,1554 q -4.11764,-2 -5.7647,-4 -1.64706,2 -5.76471,4 l -368.94117,224 q -20.58824,14 -46.94118,14 Q 448,1792 427.41176,1778 L 58.47059,1554 Q 31.29412,1538 15.64706,1507 0,1476 0,1440 V 1024 Q 0,986 17.70588,954 35.41176,922 64.23529,906 L 421.64706,720 V 320 q 0,-38 17.70588,-70 17.70588,-32 46.52941,-48 L 854.82353,10 Q 873.7647,0 896,0 q 22.23529,0 41.17647,10 l 368.94113,192 q 28.8236,16 46.5295,48 17.7058,32 17.7058,70 v 400 l 357.4118,186 q 29.6471,16 46.9412,48 Q 1792,986 1792,1024 Z"
     id="path2"
     inkscape:connector-curvature="0"
     style="stroke-width:1" />
</svg>
